<svg width="179" height="76" viewBox="0 0 179 76" fill="none" xmlns="http://www.w3.org/2000/svg">
    <g clip-path="url(#clip0_511_14029)">
        <path d="M178.374 48.4335L175.601 45.1152C175.323 44.7815 174.962 44.5277 174.555 44.3795C174.149 44.2313 173.71 44.1939 173.284 44.2711L152.425 48.0316L150.352 45.3965C149.999 44.9309 149.499 44.6017 148.934 44.4642C148.37 44.3268 147.775 44.3895 147.251 44.6418C146.923 44.8074 146.636 45.0447 146.41 45.3364C146.185 45.628 146.027 45.9667 145.947 46.3278C145.868 46.6888 145.869 47.0632 145.952 47.4236C146.034 47.784 146.195 48.1214 146.423 48.4112L149.466 52.2788C149.695 52.573 149.988 52.8108 150.322 52.974C150.655 53.1373 151.022 53.2218 151.393 53.2212C151.541 53.2219 151.69 53.2084 151.836 53.181L172.766 49.4116L174.68 51.7027C174.916 51.9861 175.211 52.2127 175.545 52.3661C175.879 52.5195 176.243 52.5958 176.609 52.5894C176.976 52.583 177.337 52.494 177.665 52.329C177.994 52.164 178.281 51.9272 178.507 51.6357C178.852 51.1671 179.026 50.5937 179.002 50.0109C178.978 49.4282 178.756 48.8715 178.374 48.4335Z" fill="white"/>
        <path d="M139.679 45.0536C138.989 44.9149 138.273 45.0036 137.637 45.3066C137.001 45.6095 136.479 46.1107 136.147 46.7361C135.816 47.3614 135.692 48.0777 135.795 48.7792C135.898 49.4807 136.223 50.1302 136.72 50.6316C137.217 51.1331 137.861 51.4599 138.557 51.5639C139.253 51.6679 139.964 51.5434 140.584 51.209C141.204 50.8745 141.701 50.3478 142.002 49.7067C142.302 49.0655 142.39 48.3438 142.253 47.6484C142.125 47.0081 141.813 46.4201 141.355 45.9584C140.897 45.4967 140.314 45.1818 139.679 45.0536Z" fill="white"/>
        <path d="M92.7148 11.9157C93.4046 12.0544 94.1204 11.9657 94.7563 11.6627C95.3923 11.3597 95.9147 10.8585 96.2464 10.2332C96.5781 9.60785 96.7016 8.89152 96.5984 8.19002C96.4953 7.48853 96.1711 6.83908 95.6738 6.33763C95.1764 5.83618 94.5322 5.50932 93.8364 5.40535C93.1407 5.30137 92.4301 5.4258 91.8099 5.76025C91.1896 6.09469 90.6926 6.62141 90.392 7.26259C90.0915 7.90377 90.0036 8.6254 90.1411 9.32087C90.2678 9.96138 90.5799 10.5497 91.0379 11.0115C91.496 11.4733 92.0795 11.788 92.7148 11.9157Z" fill="white"/>
        <path d="M99.8431 23.9876H93.0301C93.2073 21.5312 93.2871 19.6554 93.3181 18.7309H99.914C100.492 18.7418 101.056 18.552 101.512 18.1934C101.967 17.8348 102.287 17.3292 102.417 16.7614C102.492 16.3998 102.486 16.0259 102.4 15.6668C102.313 15.3078 102.149 14.9726 101.918 14.6856C101.687 14.3986 101.396 14.1671 101.066 14.0078C100.735 13.8485 100.373 13.7654 100.007 13.7646H86.0577C85.4793 13.7536 84.9146 13.9432 84.4582 14.3017C84.0018 14.6603 83.6814 15.166 83.5505 15.7342C83.4746 16.0962 83.4799 16.4708 83.566 16.8306C83.6522 17.1903 83.817 17.5261 84.0484 17.8133C84.2798 18.1006 84.572 18.332 84.9036 18.4908C85.2351 18.6496 85.5977 18.7316 85.9647 18.7309H88.4055C88.2549 22.5316 87.3512 40.2041 83.143 49.6052C82.8856 50.1467 82.8249 50.762 82.9714 51.3439C83.1179 51.9258 83.4624 52.4375 83.9448 52.7896C84.3553 53.0753 84.8413 53.2309 85.3401 53.2362C85.8157 53.2331 86.2803 53.0916 86.678 52.8285C87.0757 52.5654 87.3895 52.1921 87.5816 51.7534C90.4299 45.4651 91.8828 36.1711 92.6226 28.936H97.4953C97.8851 39.5118 97.0878 46.3092 96.2816 48.2654C96.0158 48.3726 95.3159 48.5512 93.8939 48.2654C93.3394 48.1565 92.7647 48.2403 92.2635 48.5031C91.7623 48.7659 91.3642 49.1922 91.1342 49.7124C90.9877 50.0548 90.9194 50.4261 90.9343 50.7987C90.9493 51.1713 91.0472 51.5358 91.2207 51.8651C91.3942 52.1944 91.639 52.4802 91.9369 52.7013C92.2347 52.9224 92.5781 53.0732 92.9415 53.1424C93.6937 53.2862 94.4573 53.3609 95.2229 53.3657C98.7091 53.3657 100.065 51.5793 100.335 51.1326L100.388 51.0523C103.174 46.269 102.479 29.6149 102.315 26.301C102.271 25.6711 101.991 25.0816 101.532 24.652C101.073 24.2224 100.469 23.9849 99.8431 23.9876Z" fill="white"/>
        <path d="M127.737 11.1698H112.402C112.969 9.67368 113.314 8.65093 113.358 8.52142C113.567 7.89719 113.521 7.21501 113.231 6.62495C112.94 6.03489 112.429 5.58528 111.81 5.37503C111.191 5.16479 110.514 5.21113 109.929 5.50385C109.344 5.79658 108.898 6.31172 108.689 6.93594C108.658 7.02526 105.668 15.8682 102.488 20.1512C102.117 20.6248 101.925 21.2161 101.947 21.8191C101.969 22.4222 102.203 22.9977 102.607 23.4427C102.854 23.7017 103.153 23.9041 103.484 24.0358C103.815 24.1676 104.17 24.2257 104.526 24.2062C104.881 24.1867 105.228 24.09 105.543 23.9228C105.858 23.7556 106.134 23.5217 106.351 23.2373C107.919 21.0155 109.255 18.6357 110.337 16.1362H127.83C128.197 16.1354 128.558 16.0523 128.889 15.893C129.22 15.7337 129.511 15.5021 129.742 15.2152C129.972 14.9282 130.137 14.593 130.223 14.234C130.309 13.8749 130.315 13.501 130.24 13.1394C130.11 12.5715 129.791 12.0659 129.335 11.7074C128.879 11.3488 128.315 11.159 127.737 11.1698Z" fill="white"/>
        <path d="M125.723 29.4222C123.553 30.7888 121.258 32.017 119.699 32.8119C119.101 30.6347 118.642 28.4209 118.326 26.1842C118.326 26.1306 118.304 26.086 118.295 26.0324C122.693 24.7551 125.599 23.6787 125.79 23.6073C126.093 23.4938 126.371 23.3212 126.609 23.0993C126.846 22.8774 127.037 22.6105 127.172 22.314C127.307 22.0175 127.383 21.6971 127.395 21.3711C127.407 21.0451 127.355 20.7198 127.243 20.414C127.13 20.1081 126.959 19.8276 126.739 19.5885C126.519 19.3493 126.254 19.1562 125.96 19.0202C125.666 18.8842 125.348 18.8079 125.025 18.7957C124.701 18.7835 124.379 18.8356 124.076 18.9491C118.94 20.7721 113.695 22.2638 108.372 23.4152C107.819 23.5329 107.323 23.8383 106.967 24.2806C106.61 24.7228 106.415 25.275 106.414 25.8448V50.6675C106.407 51.0913 106.504 51.5103 106.698 51.8867C106.966 52.3948 107.402 52.7932 107.929 53.0139C108.457 53.2346 109.044 53.264 109.59 53.0971L115.624 51.3061C116.18 51.1478 116.666 50.8014 117 50.325C117.334 49.8486 117.496 49.271 117.458 48.689C117.426 48.3209 117.313 47.9646 117.127 47.6459C116.942 47.3273 116.688 47.0543 116.385 46.8469C116.081 46.6394 115.736 46.5027 115.374 46.4467C115.011 46.3907 114.641 46.4167 114.29 46.5229L111.336 47.4162V27.8545C112.075 27.6804 112.802 27.5062 113.502 27.3275C113.923 30.3109 116.23 43.8522 124.35 52.4495C124.601 52.7149 124.906 52.9212 125.245 53.0535C125.584 53.1859 125.947 53.241 126.31 53.215C126.672 53.1889 127.025 53.0824 127.341 52.9029C127.658 52.7235 127.932 52.4756 128.142 52.177C128.448 51.6828 128.586 51.1016 128.534 50.5214C128.483 49.9411 128.246 49.3935 127.859 48.9614C124.802 45.7012 122.68 41.503 121.214 37.5996C122.84 36.7868 125.688 35.2996 128.403 33.5801C128.714 33.3822 128.976 33.1168 129.172 32.8034C129.367 32.4899 129.491 32.1363 129.533 31.7685C129.576 31.4007 129.536 31.028 129.417 30.6777C129.298 30.3273 129.103 30.0082 128.846 29.7437C128.439 29.3412 127.908 29.0901 127.341 29.0317C126.773 28.9733 126.203 29.1109 125.723 29.4222Z" fill="white"/>
        <path d="M140.618 38.7288H172.853C173.724 38.7276 174.559 38.3787 175.175 37.7585C175.791 37.1382 176.138 36.2972 176.14 35.4194V23.0885C176.138 22.2103 175.791 21.3688 175.175 20.7478C174.559 20.1268 173.724 19.7769 172.853 19.7746H156.441V16.2464H173.487C174.065 16.2565 174.629 16.0666 175.086 15.7082C175.542 15.3498 175.863 14.8446 175.994 14.2768C176.069 13.9148 176.063 13.5405 175.977 13.1811C175.89 12.8218 175.725 12.4863 175.494 12.1993C175.263 11.9123 174.971 11.6808 174.64 11.5218C174.309 11.3628 173.947 11.2802 173.58 11.28H156.441V8.56909C156.452 7.98642 156.264 7.41773 155.908 6.95833C155.552 6.49893 155.051 6.17673 154.488 6.04574C154.128 5.96784 153.756 5.97199 153.398 6.05787C153.04 6.14375 152.706 6.30919 152.42 6.5421C152.134 6.775 151.903 7.06946 151.744 7.40395C151.585 7.73844 151.502 8.10449 151.502 8.47531V19.7746H140.605C139.735 19.7781 138.901 20.1285 138.286 20.7494C137.671 21.3702 137.325 22.2111 137.323 23.0885V35.4194C137.325 36.2987 137.673 37.1411 138.291 37.7616C138.909 38.3821 139.746 38.73 140.618 38.7288ZM142.39 25.7056C142.391 25.4868 142.478 25.2774 142.631 25.1227C142.785 24.968 142.993 24.8805 143.21 24.8794H170.231C170.449 24.8794 170.658 24.9663 170.812 25.1211C170.966 25.2759 171.054 25.4861 171.055 25.7056V32.8023C171.054 33.0218 170.966 33.2319 170.812 33.3868C170.658 33.5416 170.449 33.6285 170.231 33.6285H143.21C142.993 33.6273 142.785 33.5399 142.631 33.3852C142.478 33.2305 142.391 33.021 142.39 32.8023V25.7056Z" fill="white"/>
        <path d="M85.3854 60.0511V65.598C85.3933 65.6991 85.3667 65.8 85.3101 65.8839C85.2701 65.9199 85.223 65.9469 85.1718 65.9631C85.1206 65.9793 85.0666 65.9842 85.0133 65.9776C84.9604 65.9842 84.9067 65.9788 84.8562 65.9618C84.8056 65.9448 84.7594 65.9166 84.721 65.8794C84.6654 65.7967 84.6389 65.6977 84.6457 65.598V60.0511H83.1263C83.0302 60.058 82.9347 60.0312 82.8561 59.9752C82.7894 59.9039 82.7523 59.8096 82.7523 59.7117C82.7523 59.6137 82.7894 59.5194 82.8561 59.4482C82.9328 59.3912 83.0267 59.3628 83.1218 59.3678H86.9004C86.997 59.3624 87.0921 59.3944 87.1662 59.4571C87.2025 59.4901 87.231 59.5309 87.2494 59.5765C87.2678 59.6222 87.2757 59.6714 87.2725 59.7206C87.2783 59.7707 87.2702 59.8215 87.2491 59.8672C87.228 59.9129 87.1947 59.9519 87.1529 59.9796C87.0771 60.0269 86.9896 60.0517 86.9004 60.0511H85.3854Z" fill="white"/>
        <path d="M88.7012 59.8238C88.7012 59.6273 88.7366 59.5022 88.803 59.4486C88.9401 59.38 89.0938 59.3521 89.246 59.3682H90.7743C91.3208 59.3359 91.8618 59.4935 92.307 59.8148C92.4954 59.9878 92.6414 60.2024 92.7336 60.4419C92.8259 60.6813 92.8618 60.9391 92.8385 61.1949C92.8597 61.4548 92.8211 61.7161 92.7258 61.9585C92.6306 62.2009 92.4812 62.418 92.2892 62.5928C91.8518 62.9162 91.3156 63.0743 90.7743 63.0394H90.5218L92.5993 65.0715C92.6658 65.1429 92.7234 65.2099 92.781 65.2814C92.8345 65.3449 92.8792 65.4155 92.9138 65.4913C92.9423 65.5545 92.9574 65.6229 92.9581 65.6922C92.9533 65.7578 92.923 65.8187 92.874 65.862C92.8379 65.9018 92.7942 65.9339 92.7454 65.9561C92.6967 65.9784 92.644 65.9904 92.5905 65.9915C92.5366 65.9927 92.4831 65.9818 92.4341 65.9593C92.385 65.9369 92.3415 65.9036 92.307 65.862L89.5473 63.0394H89.4542V65.5985C89.4568 65.6976 89.4238 65.7944 89.3612 65.8709C89.3258 65.9089 89.2823 65.9383 89.2339 65.9569C89.1856 65.9755 89.1337 65.9827 89.0821 65.9781C89.0285 65.9835 88.9744 65.9766 88.9238 65.9581C88.8732 65.9395 88.8274 65.9097 88.7898 65.8709C88.7329 65.7918 88.7033 65.6961 88.7056 65.5985L88.7012 59.8238ZM89.4498 62.3695H90.7787C91.1287 62.3977 91.4773 62.2996 91.7621 62.0926C91.8808 61.9786 91.9723 61.8391 92.0299 61.6844C92.0874 61.5297 92.1094 61.3639 92.0943 61.1993C92.1113 61.0335 92.0887 60.866 92.0287 60.7106C91.9686 60.5553 91.8726 60.4166 91.7488 60.3061C91.4637 60.1112 91.1226 60.017 90.7787 60.0381H89.4498V62.3695Z" fill="white"/>
        <path d="M95.4527 65.6216C95.4527 65.8628 95.3286 65.9833 95.0761 65.9833C95.0281 65.9906 94.9791 65.9866 94.9329 65.9716C94.8867 65.9565 94.8446 65.931 94.8098 65.8968C94.7751 65.8626 94.7486 65.8208 94.7326 65.7746C94.7165 65.7284 94.7113 65.6791 94.7173 65.6305V59.6146C94.7113 59.5661 94.7165 59.5168 94.7326 59.4706C94.7486 59.4244 94.7751 59.3826 94.8098 59.3484C94.8446 59.3142 94.8867 59.2886 94.9329 59.2736C94.9791 59.2586 95.0281 59.2545 95.0761 59.2618C95.177 59.2552 95.277 59.2836 95.3596 59.3422C95.3935 59.3783 95.4194 59.4213 95.4354 59.4683C95.4514 59.5153 95.4573 59.5652 95.4527 59.6146V65.6216Z" fill="white"/>
        <path d="M97.5635 59.8238C97.5494 59.6937 97.5841 59.563 97.661 59.4576C97.7952 59.3805 97.9506 59.3492 98.1039 59.3682H99.5968C100.164 59.3185 100.729 59.4913 101.174 59.8506C101.36 60.0536 101.501 60.2936 101.59 60.5551C101.678 60.8166 101.712 61.0938 101.688 61.3691C101.688 62.7312 100.988 63.4101 99.5968 63.4101H98.3121V65.5985C98.3178 65.7001 98.2862 65.8002 98.2235 65.8799C98.1865 65.9164 98.1418 65.9442 98.0927 65.9611C98.0437 65.9781 97.9916 65.9839 97.94 65.9781C97.8864 65.9835 97.8323 65.9767 97.7817 65.9581C97.7311 65.9396 97.6853 65.9098 97.6477 65.8709C97.5908 65.7918 97.5613 65.6961 97.5635 65.5985V59.8238ZM98.3121 62.7625H99.5968C99.7838 62.7812 99.9726 62.7611 100.152 62.7035C100.331 62.6459 100.496 62.552 100.638 62.4275C100.869 62.13 100.98 61.7548 100.948 61.378C100.966 61.1915 100.944 61.0032 100.884 60.8259C100.824 60.6487 100.726 60.4866 100.598 60.3508C100.315 60.1227 99.958 60.0095 99.5968 60.0337H98.3121V62.7625Z" fill="white"/>
        <path d="M106.944 65.6216C106.944 65.8628 106.815 65.9833 106.563 65.9833C106.515 65.9906 106.466 65.9866 106.42 65.9716C106.374 65.9565 106.331 65.931 106.297 65.8968C106.262 65.8626 106.236 65.8208 106.219 65.7746C106.203 65.7284 106.198 65.6791 106.204 65.6305V59.6146C106.198 59.5661 106.203 59.5168 106.219 59.4706C106.236 59.4244 106.262 59.3826 106.297 59.3484C106.331 59.3142 106.374 59.2886 106.42 59.2736C106.466 59.2586 106.515 59.2545 106.563 59.2618C106.664 59.2552 106.764 59.2836 106.847 59.3422C106.881 59.3779 106.908 59.4207 106.925 59.4677C106.941 59.5147 106.948 59.5648 106.944 59.6146V65.6216Z" fill="white"/>
        <path d="M109.798 65.5987C109.801 65.6978 109.768 65.7946 109.705 65.8711C109.669 65.9085 109.624 65.9374 109.575 65.9559C109.526 65.9744 109.474 65.982 109.422 65.9783C109.37 65.9829 109.318 65.9757 109.27 65.9571C109.222 65.9385 109.178 65.9091 109.143 65.8711C109.082 65.7939 109.05 65.6972 109.054 65.5987V59.6319C109.05 59.5388 109.075 59.4466 109.125 59.3684C109.155 59.3298 109.195 59.2996 109.24 59.2809C109.285 59.2621 109.334 59.2553 109.382 59.2612C109.47 59.2575 109.555 59.2878 109.621 59.3461C109.679 59.4041 109.732 59.4711 109.79 59.5381L113.183 64.5447V59.6319C113.178 59.5366 113.208 59.4428 113.267 59.3684C113.303 59.3288 113.348 59.2984 113.398 59.2798C113.448 59.2612 113.502 59.2548 113.555 59.2612C113.608 59.2553 113.661 59.261 113.712 59.278C113.762 59.2949 113.808 59.3227 113.847 59.3595C113.909 59.436 113.939 59.5336 113.931 59.6319V65.5987C113.936 65.6933 113.912 65.7871 113.86 65.8666C113.828 65.9038 113.788 65.9326 113.742 65.9505C113.697 65.9684 113.648 65.9749 113.599 65.9693C113.515 65.9708 113.434 65.9424 113.369 65.889C113.297 65.8302 113.234 65.761 113.183 65.6835L109.798 60.7708V65.5987Z" fill="white"/>
        <path d="M118.354 60.0511V65.5981C118.362 65.6992 118.335 65.8 118.279 65.8839C118.24 65.9198 118.193 65.9468 118.143 65.963C118.092 65.9792 118.039 65.9842 117.986 65.9777C117.933 65.9852 117.879 65.9803 117.829 65.9632C117.778 65.9462 117.732 65.9175 117.694 65.8794C117.638 65.7968 117.612 65.6977 117.619 65.5981V60.0511H116.095C115.999 60.0581 115.903 60.0313 115.825 59.9752C115.761 59.9025 115.726 59.8088 115.726 59.7117C115.726 59.6146 115.761 59.5209 115.825 59.4482C115.902 59.3934 115.996 59.3652 116.09 59.3678H119.873C119.969 59.3622 120.062 59.3943 120.135 59.4571C120.171 59.4901 120.2 59.5309 120.218 59.5766C120.236 59.6222 120.244 59.6715 120.241 59.7206C120.247 59.7707 120.239 59.8215 120.218 59.8672C120.197 59.913 120.163 59.9519 120.121 59.9797C120.048 60.0278 119.961 60.0526 119.873 60.0511H118.354Z" fill="white"/>
        <path d="M122.422 65.2313H125.142C125.223 65.2318 125.303 65.2423 125.381 65.2626C125.444 65.2762 125.501 65.309 125.545 65.3564C125.568 65.3827 125.585 65.4132 125.595 65.4462C125.606 65.4791 125.61 65.5139 125.607 65.5484C125.614 65.5981 125.608 65.6486 125.59 65.6953C125.572 65.7421 125.543 65.7837 125.505 65.8164C125.4 65.869 125.282 65.8922 125.164 65.8834H122.112C121.997 65.8919 121.883 65.8638 121.784 65.803C121.743 65.7598 121.711 65.7077 121.692 65.6505C121.673 65.5933 121.666 65.5325 121.674 65.4725V59.7916C121.667 59.7341 121.672 59.6759 121.689 59.6206C121.706 59.5652 121.734 59.514 121.771 59.4701C121.87 59.3984 121.992 59.3666 122.112 59.3807H125.107C125.211 59.3725 125.315 59.3975 125.404 59.4522C125.441 59.4834 125.471 59.5231 125.49 59.5682C125.509 59.6133 125.518 59.6623 125.514 59.7112C125.519 59.7593 125.512 59.8078 125.494 59.8523C125.475 59.8968 125.446 59.9359 125.408 59.9658C125.317 60.0203 125.212 60.0452 125.107 60.0373H122.422V62.2033H125.014C125.123 62.1917 125.232 62.2186 125.324 62.2793C125.359 62.3129 125.386 62.354 125.403 62.3997C125.419 62.4453 125.426 62.4943 125.421 62.5427C125.426 62.5893 125.42 62.6363 125.403 62.6798C125.386 62.7234 125.359 62.7622 125.324 62.7929C125.229 62.8457 125.121 62.869 125.014 62.8598H122.422V65.2313Z" fill="white"/>
        <path d="M127.365 59.824C127.365 59.6275 127.4 59.5024 127.471 59.4488C127.608 59.3787 127.762 59.3508 127.914 59.3684H129.447C129.993 59.3368 130.534 59.4944 130.98 59.8151C131.166 59.9891 131.311 60.204 131.403 60.4432C131.494 60.6825 131.53 60.9397 131.507 61.1951C131.528 61.455 131.489 61.7163 131.394 61.9587C131.299 62.2012 131.149 62.4182 130.958 62.593C130.522 62.9164 129.987 63.0746 129.447 63.0396H129.19L131.272 65.0717L131.449 65.2816C131.503 65.3451 131.548 65.4158 131.582 65.4915C131.612 65.5541 131.627 65.6229 131.626 65.6925C131.621 65.757 131.593 65.8174 131.547 65.8622C131.473 65.9411 131.371 65.9876 131.263 65.9917C131.209 65.9936 131.156 65.9829 131.106 65.9605C131.057 65.938 131.014 65.9044 130.98 65.8622L128.216 63.0396H128.123V65.5987C128.123 65.6969 128.092 65.7926 128.034 65.8711C127.998 65.9086 127.955 65.9377 127.906 65.9562C127.858 65.9748 127.806 65.9823 127.755 65.9783C127.701 65.9844 127.646 65.9779 127.594 65.9593C127.543 65.9408 127.496 65.9106 127.458 65.8711C127.401 65.792 127.372 65.6963 127.374 65.5987L127.365 59.824ZM128.114 62.3697H129.443C129.792 62.3964 130.14 62.2984 130.426 62.0928C130.545 61.9788 130.636 61.8393 130.694 61.6846C130.751 61.5299 130.773 61.3641 130.758 61.1996C130.775 61.0337 130.753 60.8662 130.693 60.7108C130.632 60.5555 130.537 60.4168 130.413 60.3063C130.128 60.1114 129.786 60.0172 129.443 60.0384H128.114V62.3697Z" fill="white"/>
        <path d="M134.129 65.5985C134.13 65.6982 134.095 65.7948 134.032 65.8709C133.995 65.9088 133.951 65.9381 133.902 65.9566C133.853 65.9751 133.8 65.9825 133.748 65.9781C133.697 65.9821 133.645 65.9746 133.597 65.956C133.548 65.9375 133.505 65.9084 133.469 65.8709C133.411 65.7924 133.38 65.6967 133.38 65.5985V59.6318C133.376 59.5386 133.401 59.4465 133.451 59.3682C133.482 59.3296 133.523 59.2995 133.568 59.2808C133.614 59.262 133.664 59.2552 133.713 59.2611C133.799 59.258 133.883 59.2884 133.947 59.3459C134.007 59.4068 134.063 59.4709 134.116 59.538L137.513 64.5445V59.6318C137.509 59.5373 137.537 59.4442 137.593 59.3682C137.63 59.3289 137.675 59.2988 137.725 59.2802C137.775 59.2615 137.828 59.255 137.881 59.2611C137.934 59.2551 137.988 59.2608 138.038 59.2778C138.088 59.2948 138.135 59.3226 138.173 59.3593C138.235 59.4359 138.265 59.5334 138.258 59.6318V65.5985C138.263 65.6931 138.238 65.787 138.187 65.8665C138.156 65.9036 138.116 65.9324 138.071 65.9504C138.026 65.9683 137.978 65.9747 137.93 65.9692C137.845 65.9706 137.762 65.9422 137.695 65.8888C137.625 65.8299 137.563 65.7606 137.513 65.6834L134.129 60.7706V65.5985Z" fill="white"/>
        <path d="M141.316 64.173L140.926 65.2672L140.833 65.5262C140.804 65.6055 140.767 65.6818 140.723 65.754C140.688 65.8185 140.639 65.8748 140.581 65.9192C140.53 65.9614 140.465 65.9836 140.399 65.9817C140.345 65.9855 140.29 65.9765 140.239 65.9556C140.189 65.9347 140.143 65.9024 140.107 65.8612C140.036 65.7867 140.036 65.6378 140.107 65.4145L142.092 59.6086C142.118 59.5119 142.175 59.427 142.255 59.3674C142.345 59.3014 142.455 59.2683 142.566 59.2736C142.679 59.2677 142.792 59.3008 142.884 59.3674C142.968 59.4255 143.029 59.5106 143.057 59.6086L145.051 65.4503C145.097 65.5755 145.097 65.7136 145.051 65.8388C145.006 65.9416 144.904 65.9951 144.741 65.9951C144.693 66.0016 144.645 65.9969 144.599 65.9814C144.554 65.9659 144.513 65.94 144.479 65.9058C144.409 65.8318 144.359 65.7412 144.333 65.6423L143.815 64.1864L141.316 64.173ZM143.651 63.503L142.574 60.2383L141.494 63.5075L143.651 63.503Z" fill="white"/>
        <path d="M149.051 60.0511V65.5981C149.059 65.6992 149.032 65.8 148.976 65.8839C148.936 65.9196 148.89 65.9464 148.839 65.9626C148.789 65.9787 148.736 65.9839 148.683 65.9777C148.63 65.9852 148.576 65.9803 148.526 65.9632C148.475 65.9462 148.429 65.9175 148.391 65.8794C148.334 65.7973 148.306 65.6982 148.311 65.5981V60.0511H146.792C146.696 60.0581 146.6 60.0313 146.521 59.9752C146.458 59.9025 146.422 59.8088 146.422 59.7117C146.422 59.6146 146.458 59.5209 146.521 59.4482C146.599 59.3934 146.692 59.3652 146.787 59.3678H150.57C150.666 59.3622 150.759 59.3943 150.832 59.4571C150.868 59.4901 150.896 59.5309 150.915 59.5766C150.933 59.6222 150.941 59.6715 150.938 59.7206C150.944 59.7707 150.936 59.8215 150.914 59.8672C150.893 59.913 150.86 59.9519 150.818 59.9797C150.744 60.0278 150.658 60.0526 150.57 60.0511H149.051Z" fill="white"/>
        <path d="M153.106 65.6216C153.106 65.8628 152.978 65.9833 152.725 65.9833C152.677 65.9906 152.628 65.9866 152.582 65.9716C152.536 65.9565 152.494 65.931 152.459 65.8968C152.424 65.8626 152.398 65.8208 152.382 65.7746C152.366 65.7284 152.361 65.6791 152.367 65.6305V59.6146C152.361 59.5661 152.366 59.5168 152.382 59.4706C152.398 59.4244 152.424 59.3826 152.459 59.3484C152.494 59.3142 152.536 59.2886 152.582 59.2736C152.628 59.2586 152.677 59.2545 152.725 59.2618C152.826 59.2552 152.926 59.2836 153.009 59.3422C153.044 59.3779 153.07 59.4207 153.087 59.4677C153.104 59.5147 153.111 59.5648 153.106 59.6146V65.6216Z" fill="white"/>
        <path d="M157.85 59.1673C158.284 59.1577 158.714 59.2526 159.104 59.4442C159.451 59.6234 159.753 59.8782 159.99 60.1901C160.232 60.5221 160.412 60.8959 160.522 61.2932C160.761 62.161 160.761 63.0782 160.522 63.9461C160.416 64.3438 160.237 64.718 159.994 65.0492C159.76 65.3657 159.457 65.6239 159.109 65.804C158.714 65.9836 158.286 66.0766 157.853 66.0766C157.42 66.0766 156.992 65.9836 156.597 65.804C156.249 65.6241 155.947 65.3677 155.711 65.0537C155.465 64.7235 155.283 64.3491 155.175 63.9506C155.053 63.5147 154.993 63.0635 154.998 62.6107C154.993 62.1585 155.05 61.7076 155.166 61.2709C155.27 60.8734 155.448 60.4992 155.689 60.1677C155.925 59.8553 156.228 59.6003 156.575 59.4219C156.974 59.2366 157.411 59.1494 157.85 59.1673ZM157.85 65.3931C158.17 65.4009 158.488 65.332 158.776 65.1921C159.039 65.0607 159.267 64.8677 159.441 64.6294C159.627 64.3686 159.762 64.0746 159.839 63.763C160.005 63.0476 160.005 62.3034 159.839 61.588C159.762 61.2705 159.631 60.9685 159.454 60.6947C159.284 60.4397 159.058 60.2273 158.794 60.074C158.501 59.9187 158.175 59.8375 157.844 59.8375C157.513 59.8375 157.187 59.9187 156.894 60.074C156.628 60.2256 156.401 60.4364 156.229 60.6903C156.05 60.9625 155.921 61.2651 155.848 61.5835C155.764 61.9253 155.722 62.2764 155.724 62.6286C155.723 62.9749 155.764 63.32 155.848 63.6558C155.923 63.9728 156.05 64.2748 156.225 64.549C156.394 64.8064 156.62 65.0205 156.885 65.1743C157.182 65.3313 157.515 65.4068 157.85 65.3931Z" fill="white"/>
        <path d="M163.11 65.5985C163.112 65.6977 163.079 65.7944 163.017 65.8709C162.98 65.9083 162.935 65.9372 162.887 65.9557C162.838 65.9742 162.785 65.9819 162.733 65.9781C162.682 65.9828 162.63 65.9755 162.581 65.957C162.533 65.9384 162.489 65.909 162.454 65.8709C162.391 65.7944 162.358 65.6977 162.361 65.5985V59.6318C162.358 59.5388 162.383 59.447 162.432 59.3682C162.463 59.3299 162.504 59.3001 162.549 59.2813C162.595 59.2626 162.644 59.2557 162.693 59.2611C162.781 59.2573 162.867 59.2877 162.932 59.3459L163.101 59.538L166.494 64.5445V59.6318C166.49 59.5373 166.518 59.4442 166.574 59.3682C166.611 59.3289 166.657 59.2987 166.707 59.2801C166.758 59.2615 166.812 59.255 166.866 59.2611C166.919 59.2551 166.973 59.2608 167.023 59.2778C167.073 59.2948 167.12 59.3226 167.158 59.3593C167.22 59.4359 167.25 59.5334 167.243 59.6318V65.5985C167.248 65.6931 167.223 65.787 167.172 65.8665C167.14 65.9037 167.099 65.9325 167.054 65.9504C167.008 65.9683 166.959 65.9747 166.91 65.9692C166.827 65.9707 166.745 65.9422 166.68 65.8888C166.608 65.8301 166.545 65.7608 166.494 65.6834L163.11 60.7706V65.5985Z" fill="white"/>
        <path d="M170.295 64.1728L169.909 65.267C169.878 65.3563 169.847 65.4412 169.812 65.526C169.782 65.6044 169.746 65.6805 169.706 65.7538C169.67 65.8184 169.622 65.8747 169.564 65.9191C169.511 65.9619 169.445 65.9841 169.378 65.9816C169.323 65.9843 169.269 65.975 169.218 65.9541C169.168 65.9333 169.122 65.9015 169.085 65.861C169.02 65.7866 169.02 65.6377 169.085 65.4144L171.07 59.6084C171.099 59.5122 171.158 59.4278 171.238 59.3673C171.327 59.3019 171.434 59.2689 171.544 59.2735C171.659 59.2683 171.772 59.3012 171.867 59.3673C171.949 59.4261 172.008 59.5112 172.036 59.6084L174.033 65.4501C174.08 65.5754 174.08 65.7134 174.033 65.8387C173.989 65.9414 173.883 65.995 173.719 65.995C173.672 66.0008 173.625 65.9957 173.58 65.9802C173.536 65.9647 173.495 65.9393 173.462 65.9057C173.392 65.8308 173.341 65.7406 173.311 65.6422L172.793 64.1862L170.295 64.1728ZM172.634 63.5029L171.553 60.2382L170.476 63.5074L172.634 63.5029Z" fill="white"/>
        <path d="M178.45 65.2097C178.542 65.2053 178.633 65.2337 178.707 65.2901C178.742 65.3235 178.77 65.3645 178.788 65.4101C178.805 65.4557 178.812 65.5048 178.809 65.5536C178.813 65.6015 178.805 65.6497 178.786 65.694C178.768 65.7383 178.739 65.7774 178.702 65.8081C178.629 65.8625 178.541 65.8908 178.45 65.8885H176.084C176.019 65.8936 175.953 65.8851 175.89 65.8636C175.828 65.8421 175.77 65.808 175.721 65.7635C175.678 65.7197 175.644 65.6673 175.622 65.6096C175.6 65.5519 175.59 65.4903 175.593 65.4285V59.6226C175.59 59.5745 175.598 59.5264 175.615 59.4817C175.633 59.437 175.66 59.3966 175.695 59.3635C175.769 59.3 175.863 59.2665 175.96 59.2697C176.213 59.2697 176.337 59.3903 176.337 59.6226V65.2186L178.45 65.2097Z" fill="white"/>
        <path d="M35.3688 29.5959C36.6654 29.5959 37.7165 28.5361 37.7165 27.2289C37.7165 25.9216 36.6654 24.8618 35.3688 24.8618C34.0721 24.8618 33.021 25.9216 33.021 27.2289C33.021 28.5361 34.0721 29.5959 35.3688 29.5959Z" fill="white"/>
        <path d="M26.5856 38.3818C26.1372 38.3705 25.699 38.245 25.3118 38.017C24.9245 37.7889 24.6008 37.4658 24.3707 37.0777C23.3449 35.3786 22.6727 33.4868 22.395 31.5174C21.9079 28.1404 22.5875 24.6973 24.3198 21.7656C26.052 18.8339 28.7316 16.592 31.9089 15.4159C35.0863 14.2399 38.5681 14.2013 41.7703 15.3066C44.9726 16.4119 47.7004 18.5939 49.4962 21.4865C49.8596 22.0324 50.0202 22.6901 49.9497 23.3438C49.8792 23.9974 49.5821 24.605 49.1108 25.0594C48.8187 25.3286 48.4711 25.5292 48.0931 25.6468C47.715 25.7645 47.3157 25.7963 46.924 25.74C46.5322 25.6836 46.1577 25.5405 45.8274 25.3209C45.497 25.1013 45.219 24.8106 45.0133 24.4698C43.8853 22.6095 42.1551 21.1987 40.1148 20.4757C38.0745 19.7526 35.8492 19.7618 33.8149 20.5015C31.7805 21.2411 30.0616 22.6661 28.9487 24.5356C27.8358 26.4051 27.3969 28.6046 27.7063 30.7626C27.8804 32.008 28.3022 33.205 28.9466 34.2819C29.2098 34.696 29.3548 35.1751 29.3659 35.6668C29.3769 36.1585 29.2536 36.6438 29.0093 37.0695C28.765 37.4952 28.4092 37.8449 27.981 38.0803C27.5527 38.3157 27.0684 38.4277 26.5811 38.4041L26.5856 38.3818Z" fill="url(#paint0_linear_511_14029)"/>
        <path d="M28.0611 62.8564C27.368 62.8598 26.7006 62.5923 26.1989 62.1102C25.6973 61.6281 25.4004 60.9687 25.3706 60.2706C25.3408 59.5725 25.5804 58.8899 26.0391 58.3661C26.4978 57.8422 27.14 57.518 27.8307 57.4613C35.4676 56.8003 40.4511 54.4109 42.6482 50.3602C46.4401 43.3662 41.213 33.1835 41.1598 33.0807C40.8273 32.4476 40.7579 31.7073 40.9669 31.0226C41.1758 30.3379 41.6459 29.7649 42.2739 29.4297C42.9018 29.0945 43.6362 29.0245 44.3153 29.2351C44.9944 29.4458 45.5627 29.9198 45.8952 30.5529C46.1698 31.071 52.5398 43.3707 47.3659 52.9282C44.2651 58.6805 37.842 62.0167 28.2914 62.8474C28.2149 62.8549 28.138 62.8578 28.0611 62.8564Z" fill="url(#paint1_linear_511_14029)"/>
        <path d="M9.71488 76.0043C9.06123 76.009 8.42881 75.7706 7.9385 75.3348C7.44819 74.8989 7.13438 74.2962 7.05704 73.6418C6.40514 67.7807 6.77392 61.8498 8.14676 56.1167C7.82339 55.7371 7.50888 55.3396 7.20322 54.9332C4.79345 51.7131 3.01713 47.7249 1.92298 43.0846C1.76336 42.4623 1.82268 41.8035 2.09085 41.2204C2.35902 40.6373 2.81944 40.166 3.39365 39.8868C3.75463 39.721 4.14762 39.638 4.54426 39.6439C4.94091 39.6498 5.33131 39.7444 5.68729 39.9209C6.04327 40.0973 6.35596 40.3513 6.60279 40.6643C6.84963 40.9774 7.02444 41.3419 7.11463 41.7313C7.73652 44.5341 8.77443 47.2263 10.1933 49.7168C11.2537 47.1191 12.667 44.6826 14.3927 42.4772C18.4813 37.3188 22.8668 34.7017 27.425 34.7017H27.4693C31.899 34.7017 35.5402 37.3143 37.4494 39.7394C39.1368 41.957 40.1402 44.6258 40.3347 47.4139C40.5293 50.2019 39.9064 52.9861 38.5436 55.42C35.4428 60.9848 28.9134 63.9056 21.055 63.1866C18.1145 62.9095 15.2866 61.908 12.8201 60.2702C11.6152 67.6974 12.3771 72.8557 12.3771 72.9629C12.4243 73.3153 12.4014 73.6735 12.3098 74.0168C12.2182 74.3602 12.0598 74.6817 11.8438 74.9627C11.6278 75.2436 11.3584 75.4785 11.0515 75.6535C10.7446 75.8285 10.4061 75.9402 10.056 75.982C9.94279 75.996 9.82891 76.0034 9.71488 76.0043ZM14.1446 54.567C16.2012 56.4083 18.7829 57.5464 21.5201 57.8183C23.6508 58.0059 30.8226 58.2024 33.8614 52.7895C35.5624 49.7302 35.3055 45.7508 33.2279 43.1114C32.9887 42.8032 30.7871 40.128 27.4382 40.1191C24.5899 40.1191 21.6131 42.0529 18.5788 45.8625C16.5846 48.4615 15.0802 51.4073 14.1402 54.5536L14.1446 54.567Z" fill="url(#paint2_linear_511_14029)"/>
        <path d="M43.622 34.6889C43.1401 34.6892 42.667 34.5588 42.2524 34.3113C41.8377 34.0637 41.4968 33.7082 41.2654 33.2821C40.6728 32.1852 40.3468 30.9621 40.3144 29.7134C40.282 28.4648 40.5441 27.2262 41.079 26.0995C41.614 24.9729 42.4066 23.9904 43.3916 23.2327C44.3766 22.4751 45.5259 21.9641 46.745 21.7416C46.9986 21.6954 47.2544 21.6626 47.5113 21.6433C48.1766 21.5704 48.8455 21.7428 49.3944 22.1287C49.9433 22.5146 50.3349 23.0878 50.497 23.7424C50.5812 24.1263 50.5814 24.5242 50.4974 24.9082C50.4134 25.2922 50.2473 25.6531 50.0106 25.9656C49.774 26.2782 49.4726 26.535 49.1273 26.7179C48.7821 26.9009 48.4014 27.0057 48.0119 27.025H47.9632C47.5513 27.0527 47.1529 27.1846 46.8049 27.4084C46.4568 27.6323 46.1703 27.9408 45.9717 28.3057C45.7731 28.6706 45.6688 29.08 45.6685 29.4962C45.6681 29.9124 45.7717 30.322 45.9698 30.6872C46.2074 31.0807 46.3354 31.5315 46.34 31.9921C46.3447 32.4528 46.226 32.9061 45.9964 33.3044C45.7513 33.7209 45.4043 34.0669 44.9886 34.3093C44.5728 34.5517 44.1023 34.6824 43.622 34.6889Z" fill="url(#paint3_linear_511_14029)"/>
        <path d="M47.1491 68.121C46.4984 68.1201 45.8702 67.8809 45.3813 67.448C44.8924 67.0151 44.5761 66.4178 44.4913 65.7674C44.4198 65.1525 44.5557 64.5313 44.8771 64.0038C45.1986 63.4764 45.6868 63.0734 46.2632 62.8599C51.5951 60.8208 56.2249 57.2643 59.59 52.6225C62.9551 47.9807 64.9106 42.4534 65.2189 36.7124C65.5272 30.9713 64.1751 25.2635 61.3268 20.2825C58.4785 15.3015 54.2567 11.2617 49.1743 8.65409C44.0919 6.04643 38.3677 4.98312 32.6973 5.59335C27.0268 6.20358 21.6542 8.46108 17.2323 12.0916C12.8103 15.722 9.52933 20.5692 7.78801 26.0441C6.04669 31.519 5.91997 37.3859 7.42327 42.9321C7.61183 43.6232 7.52035 44.3616 7.16895 44.9847C6.81754 45.6079 6.23501 46.0648 5.54949 46.2549C4.86398 46.445 4.13163 46.3527 3.51356 45.9985C2.89549 45.6442 2.44233 45.0569 2.25377 44.3657C0.474387 37.8062 0.624076 30.8667 2.68463 24.3913C4.74517 17.916 8.62777 12.184 13.8601 7.89251C19.0924 3.60103 25.449 0.935099 32.1565 0.219011C38.864 -0.497078 45.6334 0.767543 51.6412 3.85903C57.6489 6.95052 62.6361 11.7356 65.996 17.6323C69.3559 23.5289 70.9438 30.2829 70.5665 37.0727C70.1891 43.8625 67.8628 50.3954 63.8705 55.8766C59.8782 61.3579 54.3921 65.5514 48.0794 67.9468C47.7818 68.0594 47.4669 68.1184 47.1491 68.121Z" fill="url(#paint4_linear_511_14029)"/>
    </g>
    <defs>
        <linearGradient id="paint0_linear_511_14029" x1="22.8179" y1="25.9592" x2="50.3181" y2="26.7775" gradientUnits="userSpaceOnUse">
            <stop stop-color="#FECC69"/>
            <stop offset="1" stop-color="#FEC214"/>
        </linearGradient>
        <linearGradient id="paint1_linear_511_14029" x1="26.3246" y1="49.1275" x2="53.7611" y2="41.2883" gradientUnits="userSpaceOnUse">
            <stop stop-color="#59CFD5"/>
            <stop offset="0.61" stop-color="#3DAEEE"/>
            <stop offset="1" stop-color="#8382FB"/>
        </linearGradient>
        <linearGradient id="paint2_linear_511_14029" x1="5.57853" y1="58.4177" x2="41.7677" y2="43.308" gradientUnits="userSpaceOnUse">
            <stop offset="0.12" stop-color="#4ECFD5"/>
            <stop offset="0.59" stop-color="#3DAEEE"/>
            <stop offset="1" stop-color="#8382FB"/>
        </linearGradient>
        <linearGradient id="paint3_linear_511_14029" x1="39.3916" y1="30.5756" x2="49.9938" y2="26.3481" gradientUnits="userSpaceOnUse">
            <stop stop-color="#FECF69"/>
            <stop offset="0.74" stop-color="#FE5D6D"/>
            <stop offset="0.95" stop-color="#FE5D6D"/>
        </linearGradient>
        <linearGradient id="paint4_linear_511_14029" x1="5.25633" y1="50.9048" x2="64.2872" y2="20.6727" gradientUnits="userSpaceOnUse">
            <stop stop-color="#59CFD5"/>
            <stop offset="0.47" stop-color="#3DAEEE"/>
            <stop offset="1" stop-color="#8382FB"/>
        </linearGradient>
        <clipPath id="clip0_511_14029">
            <rect width="178" height="76" fill="white" transform="translate(0.998413)"/>
        </clipPath>
    </defs>
</svg>
