<svg width="96" height="40" viewBox="0 0 96 40" fill="none" xmlns="http://www.w3.org/2000/svg">
    <g clip-path="url(#clip0_511_14639)">
        <path d="M95.3347 28.5757L93.7516 26.6487C93.435 26.2615 92.9397 26.0783 92.4558 26.1687L80.7861 28.309L79.5942 26.7693C79.1216 26.1571 78.2554 26.0551 77.6583 26.5397C77.0613 27.0244 76.9618 27.9125 77.4344 28.5246L79.1374 30.7275C79.402 31.0684 79.8 31.2631 80.2162 31.2631C80.2976 31.2631 80.379 31.2562 80.4582 31.24L92.155 29.0951L93.2247 30.3982C93.7155 30.9942 94.5839 31.0707 95.1674 30.5675C95.7509 30.0643 95.8255 29.1739 95.3347 28.5757Z" fill="#222A38"/>
        <path d="M73.296 30.338C74.3077 30.338 75.1279 29.4971 75.1279 28.4598C75.1279 27.4225 74.3077 26.5815 73.296 26.5815C72.2843 26.5815 71.4641 27.4225 71.4641 28.4598C71.4641 29.4971 72.2843 30.338 73.296 30.338Z" fill="#222A38"/>
        <path d="M47.7047 7.79455C48.7164 7.79455 49.5366 6.95364 49.5366 5.91632C49.5366 4.879 48.7164 4.03809 47.7047 4.03809C46.693 4.03809 45.8729 4.879 45.8729 5.91632C45.8729 6.95364 46.693 7.79455 47.7047 7.79455Z" fill="#222A38"/>
        <path d="M51.3341 14.6282H47.5324C47.6297 13.2299 47.6749 12.1633 47.693 11.6392H51.4336C52.1958 11.6392 52.8109 11.0062 52.8109 10.2271C52.8109 9.44566 52.1935 8.81494 51.4336 8.81494H43.5679C42.8057 8.81494 42.1906 9.44798 42.1906 10.2271C42.1906 11.0085 42.808 11.6392 43.5679 11.6392H44.9339C44.8502 13.8073 44.3413 23.9266 41.9667 29.2622C41.6501 29.9717 41.9554 30.8111 42.6474 31.1334C42.8329 31.2192 43.0274 31.261 43.2196 31.261C43.742 31.261 44.2418 30.9549 44.4748 30.4355C46.0669 26.8576 46.8833 21.5707 47.2949 17.4548H50.0179C50.235 23.4721 49.7895 27.3399 49.3394 28.4506C49.1879 28.5132 48.7898 28.6152 47.9779 28.4599C47.2294 28.3161 46.5102 28.8216 46.37 29.5891C46.2298 30.3566 46.7228 31.094 47.4714 31.2378C47.944 31.3282 48.3669 31.3676 48.7469 31.3676C50.6986 31.3676 51.4562 30.3404 51.6078 30.0993C51.6168 30.083 51.6281 30.0668 51.6372 30.0506C53.1976 27.3306 52.8087 17.8421 52.7137 15.9685C52.673 15.2172 52.0669 14.6282 51.3341 14.6282Z" fill="#222A38"/>
        <path d="M66.9887 7.33325H58.3585C58.6774 6.48224 58.8697 5.90022 58.8923 5.82834C59.1365 5.08864 58.7475 4.28866 58.0261 4.03822C57.3047 3.78779 56.5222 4.18663 56.2802 4.92401C56.2643 4.97502 54.5727 10.0718 52.777 12.4833C52.3156 13.1024 52.431 13.9905 53.0348 14.4636C53.2836 14.6584 53.5776 14.7534 53.8693 14.7534C54.2832 14.7534 54.6948 14.561 54.9662 14.1969C55.7871 13.0955 56.5606 11.5883 57.2006 10.1576H66.9887C67.7508 10.1576 68.366 9.52452 68.366 8.7454C68.3682 7.96628 67.7508 7.33325 66.9887 7.33325Z" fill="#222A38"/>
        <path d="M65.8508 17.6913C64.6273 18.4797 63.3224 19.1893 62.4404 19.6484C61.8705 17.5012 61.6782 15.9267 61.6737 15.8757C61.6714 15.8455 61.6646 15.8177 61.6601 15.7876C64.1184 15.0618 65.7445 14.4473 65.8485 14.4079C66.5632 14.1366 66.9273 13.325 66.6627 12.5923C66.3981 11.8595 65.6043 11.4885 64.8919 11.7575C64.8535 11.7714 60.9455 13.2462 56.1012 14.3082C55.4657 14.4473 55.0111 15.0224 55.0111 15.6902V29.8442C55.0111 30.2917 55.2169 30.7114 55.5675 30.9781C55.8072 31.1613 56.0967 31.2563 56.3907 31.2563C56.5241 31.2563 56.6575 31.2355 56.7887 31.196L60.215 30.1387C60.9432 29.9137 61.3571 29.1253 61.1377 28.3787C60.9183 27.632 60.1494 27.2077 59.4212 27.4326L57.7702 27.9428V16.8264C58.1841 16.729 58.5889 16.6293 58.9824 16.5273C59.2176 18.2246 60.509 25.93 65.0525 30.8204C65.3239 31.1126 65.6857 31.2586 66.0498 31.2586C66.3913 31.2586 66.7328 31.1288 66.9997 30.8691C67.5515 30.3311 67.5719 29.4361 67.0472 28.8703C65.3193 27.0106 64.1207 24.6037 63.302 22.3683C64.2112 21.9046 65.8033 21.0605 67.3231 20.082C67.9676 19.6669 68.1621 18.7951 67.7573 18.1342C67.3457 17.478 66.4954 17.2786 65.8508 17.6913Z" fill="#222A38"/>
        <path d="M74.1804 23.0152H92.2141C93.225 23.0152 94.0528 22.1665 94.0528 21.13V14.1156C94.0528 13.0791 93.225 12.2304 92.2141 12.2304H83.0322V10.2223H92.6189C93.3811 10.2223 93.9962 9.58927 93.9962 8.81015C93.9962 8.02872 93.3788 7.398 92.6189 7.398H83.0322V5.82817C83.0322 5.04673 82.4147 4.41602 81.6549 4.41602C80.8927 4.41602 80.2776 5.04905 80.2776 5.82817V12.2327H74.1804C73.1695 12.2327 72.3417 13.0814 72.3417 14.1179V21.1323C72.344 22.1688 73.1695 23.0152 74.1804 23.0152ZM75.1732 15.6043C75.1732 15.3445 75.379 15.1335 75.6323 15.1335H90.7599C91.0132 15.1335 91.219 15.3445 91.219 15.6043V19.6413C91.219 19.901 91.0132 20.112 90.7599 20.112H75.6323C75.379 20.112 75.1732 19.901 75.1732 19.6413V15.6043Z" fill="#222A38"/>
        <path d="M17.8412 15.6879C18.4957 15.6879 19.0262 15.1439 19.0262 14.4729C19.0262 13.8018 18.4957 13.2578 17.8412 13.2578C17.1867 13.2578 16.6561 13.8018 16.6561 14.4729C16.6561 15.1439 17.1867 15.6879 17.8412 15.6879Z" fill="#222A38"/>
        <path d="M13.407 20.1933C12.966 20.1794 12.5408 19.9429 12.2943 19.5255C11.7764 18.6513 11.4417 17.6913 11.2969 16.671C10.7067 12.5065 13.5313 8.62709 17.5931 8.02188C20.5467 7.58131 23.4642 8.9865 25.0201 11.6021C25.4091 12.256 25.2078 13.1093 24.5701 13.5082C23.9346 13.907 23.1 13.7006 22.7111 13.0467C21.7205 11.3818 19.8615 10.4868 17.9821 10.7673C15.3971 11.1523 13.5992 13.6241 13.9746 16.2745C14.0673 16.9238 14.2799 17.5359 14.6079 18.0901C14.9946 18.744 14.791 19.5974 14.151 19.9939C13.9181 20.14 13.6603 20.2026 13.407 20.1933Z" fill="url(#paint0_linear_511_14639)"/>
        <path d="M14.1532 32.7545C13.4589 32.7545 12.8686 32.2095 12.8076 31.4861C12.7443 30.7232 13.2938 30.0507 14.0379 29.9858C17.8916 29.6449 20.4064 28.4183 21.5146 26.3406C23.4279 22.7511 20.7886 17.5269 20.7615 17.4758C20.4155 16.7988 20.6665 15.9594 21.3269 15.6023C21.9873 15.2452 22.8037 15.5025 23.152 16.1773C23.2899 16.444 26.4968 22.7558 23.8938 27.6577C22.3265 30.6096 19.088 32.3232 14.2708 32.7475C14.2324 32.7545 14.1939 32.7545 14.1532 32.7545Z" fill="url(#paint1_linear_511_14639)"/>
        <path d="M4.89753 39.4997C4.22584 39.4997 3.64462 38.9895 3.55868 38.2893C3.5225 38.0087 2.99103 34.1525 4.10824 29.2946C3.94541 29.0998 3.7871 28.8958 3.63331 28.6871C2.40754 27.0199 1.50744 24.9538 0.955618 22.5469C0.786 21.8002 1.23605 21.0559 1.96202 20.8797C2.6925 20.7034 3.4162 21.1672 3.58808 21.9115C3.94541 23.4674 4.46331 24.8425 5.13726 26.0089C5.67099 24.7034 6.36303 23.4373 7.25634 22.2941C9.31889 19.6507 11.5307 18.3081 13.833 18.3081C13.8375 18.3081 13.842 18.3081 13.8466 18.3081C16.09 18.3127 17.9174 19.6461 18.8808 20.8936C20.6177 23.1428 20.8416 26.3776 19.4371 28.9398C17.8721 31.7943 14.5793 33.283 10.6125 32.9235C9.14476 32.7914 7.73354 32.2766 6.45801 31.4256C5.84965 35.2377 6.23412 37.8858 6.2409 37.9414C6.33363 38.702 5.80894 39.393 5.06715 39.4904C5.01061 39.4974 4.95407 39.4997 4.89753 39.4997ZM7.13196 28.4923C8.07277 29.3201 9.30759 30.0204 10.8522 30.1618C11.9265 30.2592 15.5563 30.3613 17.0806 27.581C17.94 26.0135 17.8088 23.9706 16.7617 22.6141C16.6396 22.4565 15.5314 21.0837 13.842 21.0791C13.8398 21.0791 13.8375 21.0791 13.8352 21.0791C12.3969 21.0791 10.8952 22.0715 9.37091 24.0263C8.33511 25.3526 7.62046 26.9039 7.13196 28.4923Z" fill="url(#paint2_linear_511_14639)"/>
        <path d="M22.0045 18.2991C21.5273 18.2991 21.0637 18.0394 20.8172 17.5779C20.6137 17.1953 20.4712 16.7826 20.3965 16.3513C20.0121 14.1554 21.4414 12.0499 23.5808 11.6557C23.7505 11.6256 23.9201 11.6047 24.0874 11.5954C24.8337 11.5583 25.467 12.1473 25.5054 12.9125C25.5416 13.6777 24.9672 14.327 24.2209 14.3664C24.1666 14.3687 24.1123 14.3757 24.058 14.3849C23.3863 14.5078 22.9363 15.171 23.0584 15.8597C23.0833 15.9965 23.1263 16.1264 23.1896 16.2446C23.5492 16.9171 23.3072 17.7588 22.6536 18.1275C22.4478 18.2434 22.2262 18.2991 22.0045 18.2991Z" fill="url(#paint3_linear_511_14639)"/>
        <path d="M23.7831 35.453C23.2358 35.453 22.7201 35.1098 22.5166 34.5556C22.2542 33.8391 22.607 33.0391 23.3059 32.7701C30.9726 29.8113 34.8625 21.0114 31.9767 13.1507C30.5791 9.34321 27.82 6.32181 24.206 4.64299C20.592 2.96418 16.5573 2.82737 12.8416 4.26039C5.61362 7.04759 1.7011 14.9014 3.7433 22.5279C3.94005 23.2676 3.51714 24.0305 2.79796 24.2323C2.07878 24.434 1.33473 24.0004 1.13571 23.263C-1.27965 14.2475 3.343 4.96067 11.8895 1.66333C16.2792 -0.0317194 21.0488 0.128278 25.3209 2.11549C29.593 4.10039 32.8565 7.67135 34.5074 12.1722C37.9179 21.4636 33.3201 31.8681 24.258 35.3649C24.1042 35.4251 23.9414 35.453 23.7831 35.453Z" fill="url(#paint4_linear_511_14639)"/>
    </g>
    <defs>
        <linearGradient id="paint0_linear_511_14639" x1="11.2701" y1="13.9032" x2="25.1532" y2="14.353" gradientUnits="userSpaceOnUse">
            <stop offset="0.000637755" stop-color="#FECC69"/>
            <stop offset="1" stop-color="#FEC214"/>
        </linearGradient>
        <linearGradient id="paint1_linear_511_14639" x1="13.2779" y1="25.71" x2="27.1588" y2="21.8092" gradientUnits="userSpaceOnUse">
            <stop stop-color="#59CFD5"/>
            <stop offset="0.6089" stop-color="#3DAEEE"/>
            <stop offset="1" stop-color="#8382FB"/>
        </linearGradient>
        <linearGradient id="paint2_linear_511_14639" x1="2.63704" y1="30.5808" x2="21.0081" y2="23.0884" gradientUnits="userSpaceOnUse">
            <stop offset="0.1197" stop-color="#4ECFD5"/>
            <stop offset="0.5881" stop-color="#3DAEEE"/>
            <stop offset="1" stop-color="#8382FB"/>
        </linearGradient>
        <linearGradient id="paint3_linear_511_14639" x1="19.8715" y1="16.1903" x2="25.245" y2="14.0832" gradientUnits="userSpaceOnUse">
            <stop offset="0.000976562" stop-color="#FECF69"/>
            <stop offset="0.7416" stop-color="#FE5D6D"/>
            <stop offset="0.9529" stop-color="#FE5D6D"/>
        </linearGradient>
        <linearGradient id="paint4_linear_511_14639" x1="2.48055" y1="26.7224" x2="32.5119" y2="11.6848" gradientUnits="userSpaceOnUse">
            <stop stop-color="#59CFD5"/>
            <stop offset="0.4682" stop-color="#3DAEEE"/>
            <stop offset="1" stop-color="#8382FB"/>
        </linearGradient>
        <clipPath id="clip0_511_14639">
            <rect width="95.16" height="39" fill="white" transform="translate(0.5 0.5)"/>
        </clipPath>
    </defs>
</svg>
