<svg width="22" height="22" viewBox="0 0 22 22" fill="none" xmlns="http://www.w3.org/2000/svg">
    <path d="M18.25 2.50195H3.25C2.00736 2.50195 1 3.50931 1 4.75195V18.2519C1 19.4946 2.00736 20.5019 3.25 20.5019H18.25C19.4926 20.5019 20.5 19.4946 20.5 18.2519V4.75195C20.5 3.50931 19.4926 2.50195 18.25 2.50195Z" stroke="#4A4A4A" stroke-width="1.5" stroke-linejoin="round"/>
    <path d="M17.3978 2.50195H4.10219C2.39172 2.50195 1 3.91523 1 5.65195V8.50195H1.75C1.75 7.75195 2.5 7.00195 3.25 7.00195H18.25C19 7.00195 19.75 7.75195 19.75 8.50195H20.5V5.65195C20.5 3.91523 19.1083 2.50195 17.3978 2.50195Z" stroke="#4A4A4A" stroke-width="1.5" stroke-linejoin="round"/>
    <path d="M13.7266 9.625C13.7266 10.2334 13.2334 10.7266 12.625 10.7266C12.0166 10.7266 11.5234 10.2334 11.5234 9.625C11.5234 9.01662 12.0166 8.52344 12.625 8.52344C13.2334 8.52344 13.7266 9.01662 13.7266 9.625Z" fill="#4A4A4A" stroke="#4A4A4A" stroke-width="0.046875"/>
    <path d="M17.4766 9.625C17.4766 10.2334 16.9834 10.7266 16.375 10.7266C15.7666 10.7266 15.2734 10.2334 15.2734 9.625C15.2734 9.01662 15.7666 8.52344 16.375 8.52344C16.9834 8.52344 17.4766 9.01662 17.4766 9.625Z" fill="#4A4A4A" stroke="#4A4A4A" stroke-width="0.046875"/>
    <path d="M13.7266 13.375C13.7266 13.9834 13.2334 14.4766 12.625 14.4766C12.0166 14.4766 11.5234 13.9834 11.5234 13.375C11.5234 12.7666 12.0166 12.2734 12.625 12.2734C13.2334 12.2734 13.7266 12.7666 13.7266 13.375Z" fill="#4A4A4A" stroke="#4A4A4A" stroke-width="0.046875"/>
    <path d="M17.4766 13.375C17.4766 13.9834 16.9834 14.4766 16.375 14.4766C15.7666 14.4766 15.2734 13.9834 15.2734 13.375C15.2734 12.7666 15.7666 12.2734 16.375 12.2734C16.9834 12.2734 17.4766 12.7666 17.4766 13.375Z" fill="#4A4A4A" stroke="#4A4A4A" stroke-width="0.046875"/>
    <path d="M6.22656 13.375C6.22656 13.9834 5.73338 14.4766 5.125 14.4766C4.51662 14.4766 4.02344 13.9834 4.02344 13.375C4.02344 12.7666 4.51662 12.2734 5.125 12.2734C5.73338 12.2734 6.22656 12.7666 6.22656 13.375Z" fill="#4A4A4A" stroke="#4A4A4A" stroke-width="0.046875"/>
    <path d="M9.97656 13.375C9.97656 13.9834 9.48338 14.4766 8.875 14.4766C8.26662 14.4766 7.77344 13.9834 7.77344 13.375C7.77344 12.7666 8.26662 12.2734 8.875 12.2734C9.48338 12.2734 9.97656 12.7666 9.97656 13.375Z" fill="#4A4A4A" stroke="#4A4A4A" stroke-width="0.046875"/>
    <path d="M6.22656 17.127C6.22656 17.7353 5.73338 18.2285 5.125 18.2285C4.51662 18.2285 4.02344 17.7353 4.02344 17.127C4.02344 16.5186 4.51662 16.0254 5.125 16.0254C5.73338 16.0254 6.22656 16.5186 6.22656 17.127Z" fill="#4A4A4A" stroke="#4A4A4A" stroke-width="0.046875"/>
    <path d="M9.97656 17.127C9.97656 17.7353 9.48338 18.2285 8.875 18.2285C8.26662 18.2285 7.77344 17.7353 7.77344 17.127C7.77344 16.5186 8.26662 16.0254 8.875 16.0254C9.48338 16.0254 9.97656 16.5186 9.97656 17.127Z" fill="#4A4A4A" stroke="#4A4A4A" stroke-width="0.046875"/>
    <path d="M13.7266 17.127C13.7266 17.7353 13.2334 18.2285 12.625 18.2285C12.0166 18.2285 11.5234 17.7353 11.5234 17.127C11.5234 16.5186 12.0166 16.0254 12.625 16.0254C13.2334 16.0254 13.7266 16.5186 13.7266 17.127Z" fill="#4A4A4A" stroke="#4A4A4A" stroke-width="0.046875"/>
    <path d="M4.75 1V2.5" stroke="#4A4A4A" stroke-width="1.5" stroke-linecap="round" stroke-linejoin="round"/>
    <path d="M16.75 1V2.5" stroke="#4A4A4A" stroke-width="1.5" stroke-linecap="round" stroke-linejoin="round"/>
</svg>
