<svg width="44" height="44" viewBox="0 0 44 44" fill="none" xmlns="http://www.w3.org/2000/svg">
    <rect width="44" height="44" fill="white"/>
    <path fill-rule="evenodd" clip-rule="evenodd" d="M5.50008 3.6665C4.48756 3.6665 3.66675 4.48732 3.66675 5.49984C3.66675 6.51236 4.48756 7.33317 5.50008 7.33317V5.49984L5.50011 7.33317H5.50018H5.50047H5.50164H5.50626H5.5139H5.52447H5.55421H5.59497H5.85815H6.7605H7.56163L9.18283 19.4921L9.18807 19.5286L10.0208 24.9412L7.50216 30.3982C7.24016 30.9659 7.28551 31.6279 7.62247 32.1546C7.95943 32.6812 8.54154 32.9998 9.16675 32.9998H16.5001C14.475 32.9998 12.8334 34.6415 12.8334 36.6665C12.8334 38.6916 14.475 40.3332 16.5001 40.3332C18.5251 40.3332 20.1667 38.6916 20.1667 36.6665C20.1667 34.6415 18.5251 32.9998 16.5001 32.9998H29.3334C27.3084 32.9998 25.6667 34.6415 25.6667 36.6665C25.6667 38.6916 27.3084 40.3332 29.3334 40.3332C31.3585 40.3332 33.0001 38.6916 33.0001 36.6665C33.0001 34.6415 31.3585 32.9998 29.3334 32.9998H33.9167C34.9293 32.9998 35.7501 32.179 35.7501 31.1665C35.7501 30.154 34.9293 29.3332 33.9167 29.3332H12.0321L12.8782 27.4998H33.0001C33.7892 27.4998 34.4898 26.9949 34.7393 26.2463L40.2393 9.74625C40.4257 9.18718 40.3319 8.57261 39.9874 8.09453C39.6428 7.61646 39.0894 7.33317 38.5001 7.33317H11.2607L10.984 5.25754C10.8626 4.34673 10.0856 3.6665 9.16675 3.6665H6.7605H5.85815H5.59497H5.52447H5.50626H5.50357H5.50251H5.50205H5.50164H5.50096H5.50069H5.50047H5.50018H5.50011L5.50008 5.49984V3.6665ZM11.7496 10.9998L12.8149 18.9893L13.5601 23.8332H31.6787L35.9565 10.9998H11.7496Z" fill="#002C5E"/>
</svg>
