<svg width="48" height="48" viewBox="0 0 48 48" fill="none" xmlns="http://www.w3.org/2000/svg">
    <path fill-rule="evenodd" clip-rule="evenodd" d="M4 24C4 35.0457 12.9543 44 24 44C35.0457 44 44 35.0457 44 24C44 12.9543 35.0457 4 24 4C12.9543 4 4 12.9543 4 24ZM33.4743 19.3514C34.2207 18.5372 34.1657 17.2721 33.3514 16.5257C32.5372 15.7793 31.2721 15.8343 30.5257 16.6486L21.0717 26.962L17.5364 22.7196C16.8293 21.8711 15.5682 21.7564 14.7196 22.4636C13.8711 23.1707 13.7564 24.4318 14.4636 25.2804L19.4636 31.2804C19.833 31.7237 20.3759 31.9858 20.9528 31.9994C21.5297 32.0131 22.0844 31.7768 22.4743 31.3514L33.4743 19.3514Z" fill="#002C5E"/>
</svg>
