<svg width="24" height="24" viewBox="0 0 24 24" fill="none" xmlns="http://www.w3.org/2000/svg">
    <path d="M19.5029 12.7505C19.5029 11.2671 19.0631 9.81708 18.2389 8.58371C17.4148 7.35035 16.2435 6.38905 14.8731 5.82139C13.5026 5.25374 11.9946 5.10521 10.5398 5.3946C9.0849 5.68399 7.74852 6.3983 6.69963 7.44719C5.65074 8.49608 4.93643 9.83246 4.64704 11.2873C4.35765 12.7422 4.50618 14.2502 5.07384 15.6206C5.64149 16.9911 6.60279 18.1624 7.83615 18.9865C9.06952 19.8106 10.5196 20.2505 12.0029 20.2505C13.9921 20.2505 15.8997 19.4603 17.3062 18.0538C18.7128 16.6473 19.5029 14.7396 19.5029 12.7505Z" stroke="#002C5E" stroke-width="1.5" stroke-miterlimit="10"/>
    <path d="M6.66153 4.27596C6.26796 3.93917 5.76765 3.75297 5.24966 3.75049L5.11887 3.75424C3.92122 3.82643 2.99966 4.87549 3.00294 6.14111C3.00294 6.76033 3.22138 7.04908 3.51294 7.41752C3.53105 7.44119 3.55392 7.46081 3.58008 7.4751C3.60624 7.48939 3.63511 7.49804 3.66481 7.50049H3.70606C3.72929 7.50007 3.75211 7.49432 3.77276 7.48367C3.7934 7.47302 3.81132 7.45776 3.82513 7.43908L6.67372 4.64111C6.69804 4.61651 6.71704 4.58717 6.72954 4.55492C6.74204 4.52266 6.74777 4.48818 6.74637 4.45361C6.74519 4.41976 6.73705 4.38651 6.72245 4.35595C6.70786 4.32538 6.68712 4.29815 6.66153 4.27596V4.27596Z" stroke="#002C5E" stroke-width="1.5" stroke-miterlimit="10"/>
    <path d="M17.338 4.27596C17.7316 3.93917 18.2319 3.75297 18.7499 3.75049L18.8806 3.75424C20.0783 3.82643 20.9999 4.87549 20.9966 6.14111C20.9966 6.76033 20.7781 7.04908 20.4866 7.41752C20.4684 7.44111 20.4455 7.46063 20.4194 7.47484C20.3932 7.48905 20.3644 7.49763 20.3347 7.50002H20.2934C20.2702 7.4996 20.2474 7.49385 20.2268 7.4832C20.2061 7.47255 20.1882 7.45729 20.1744 7.43861L17.3258 4.64111C17.3015 4.61651 17.2825 4.58717 17.27 4.55492C17.2575 4.52266 17.2517 4.48818 17.2531 4.45361C17.2543 4.41976 17.2625 4.38652 17.2771 4.35595C17.2917 4.32538 17.3124 4.29815 17.338 4.27596V4.27596Z" stroke="#002C5E" stroke-width="1.5" stroke-miterlimit="10"/>
    <path d="M12.0029 7.50049V12.7505H8.25293" stroke="#002C5E" stroke-width="1.5" stroke-linecap="round" stroke-linejoin="round"/>
    <path d="M19.5029 20.2505L17.6279 18.3755" stroke="#002C5E" stroke-width="1.5" stroke-linecap="round" stroke-linejoin="round"/>
    <path d="M4.50293 20.2505L6.37793 18.3755" stroke="#002C5E" stroke-width="1.5" stroke-linecap="round" stroke-linejoin="round"/>
</svg>
