<svg width="40" height="40" viewBox="0 0 40 40" fill="none" xmlns="http://www.w3.org/2000/svg">
    <path fill-rule="evenodd" clip-rule="evenodd" d="M3.33333 20C3.33333 10.7953 10.7953 3.33333 20 3.33333C29.2047 3.33333 36.6667 10.7953 36.6667 20C36.6667 29.2047 29.2047 36.6667 20 36.6667C10.7953 36.6667 3.33333 29.2047 3.33333 20ZM20 0C8.95431 0 0 8.95431 0 20C0 31.0457 8.95431 40 20 40C31.0457 40 40 31.0457 40 20C40 8.95431 31.0457 0 20 0ZM21.6667 13.3333C21.6667 12.4129 20.9205 11.6667 20 11.6667C19.0795 11.6667 18.3333 12.4129 18.3333 13.3333V20.7409C18.3333 21.2983 18.6119 21.8187 19.0757 22.1278L24.6328 25.8316C25.3987 26.3421 26.4335 26.135 26.944 25.3691C27.4545 24.6031 27.2474 23.5684 26.4814 23.0579L21.6667 19.8488V13.3333Z" fill="#002C5E"/>
</svg>
