<svg width="24" height="25" viewBox="0 0 24 25" fill="none" xmlns="http://www.w3.org/2000/svg">
    <path fill-rule="evenodd" clip-rule="evenodd" d="M4.35702 12.0815C4.26075 12.24 4.18081 12.3813 4.11667 12.5C4.18081 12.6187 4.26075 12.76 4.35702 12.9185C4.6697 13.4335 5.14858 14.1208 5.80913 14.8059C7.12574 16.1712 9.13149 17.5 12 17.5C14.8685 17.5 16.8743 16.1712 18.1909 14.8059C18.8514 14.1208 19.3303 13.4335 19.643 12.9185C19.7392 12.76 19.8192 12.6187 19.8833 12.5C19.8192 12.3813 19.7392 12.24 19.643 12.0815C19.3303 11.5665 18.8514 10.8792 18.1909 10.1941C16.8743 8.82877 14.8685 7.5 12 7.5C9.13149 7.5 7.12574 8.82877 5.80913 10.1941C5.14858 10.8792 4.6697 11.5665 4.35702 12.0815ZM21.9188 12.8948C21.919 12.8943 21.9191 12.8939 21 12.5L21.9191 12.8939C22.027 12.6424 22.027 12.3576 21.9191 12.1061L21 12.5C21.9191 12.1061 21.919 12.1057 21.9188 12.1052L21.9183 12.1042L21.9173 12.1017L21.9144 12.0952L21.9058 12.0756C21.8987 12.0597 21.889 12.0382 21.8766 12.0115C21.8518 11.9581 21.8162 11.8837 21.7696 11.7913C21.6763 11.6067 21.5383 11.3494 21.3526 11.0435C20.9822 10.4335 20.4164 9.62085 19.6306 8.80586C18.0543 7.17123 15.5601 5.5 12 5.5C8.43994 5.5 5.94569 7.17123 4.36944 8.80586C3.58356 9.62085 3.0178 10.4335 2.64744 11.0435C2.46175 11.3494 2.3237 11.6067 2.23045 11.7913C2.18379 11.8837 2.14823 11.9581 2.12344 12.0115C2.11104 12.0382 2.10132 12.0597 2.09424 12.0756L2.08559 12.0952L2.08273 12.1017L2.08167 12.1042L2.08123 12.1052C2.08104 12.1057 2.08085 12.1061 2.99997 12.5L2.08085 12.1061C1.97305 12.3576 1.97305 12.6424 2.08085 12.8939L2.99997 12.5C2.08085 12.8939 2.08104 12.8943 2.08123 12.8948L2.08167 12.8958L2.08273 12.8983L2.08559 12.9048L2.09424 12.9244C2.10132 12.9403 2.11104 12.9618 2.12344 12.9885C2.14823 13.0419 2.18379 13.1163 2.23045 13.2087C2.3237 13.3933 2.46175 13.6506 2.64744 13.9565C3.0178 14.5665 3.58356 15.3792 4.36944 16.1941C5.94569 17.8288 8.43994 19.5 12 19.5C15.5601 19.5 18.0543 17.8288 19.6306 16.1941C20.4164 15.3792 20.9822 14.5665 21.3526 13.9565C21.5383 13.6506 21.6763 13.3933 21.7696 13.2087C21.8162 13.1163 21.8518 13.0419 21.8766 12.9885C21.889 12.9618 21.8987 12.9403 21.9058 12.9244L21.9144 12.9048L21.9173 12.8983L21.9183 12.8958L21.9188 12.8948ZM12 14.5C10.8954 14.5 10 13.6046 10 12.5C10 11.3954 10.8954 10.5 12 10.5C13.1046 10.5 14 11.3954 14 12.5C14 13.6046 13.1046 14.5 12 14.5ZM8 12.5C8 10.2909 9.79086 8.5 12 8.5C14.2091 8.5 16 10.2909 16 12.5C16 14.7091 14.2091 16.5 12 16.5C9.79086 16.5 8 14.7091 8 12.5Z" fill="#4A4A4A"/>
</svg>
