<svg width="24" height="25" viewBox="0 0 24 25" fill="none" xmlns="http://www.w3.org/2000/svg">
    <path fill-rule="evenodd" clip-rule="evenodd"
          d="M20.2929 2.79289C20.6834 2.40237 21.3166 2.40237 21.7071 2.79289C22.0976 3.18342 22.0976 3.81658 21.7071 4.20711L18.297 7.61721C18.7987 7.99865 19.2424 8.40337 19.6306 8.80586C20.4164 9.62085 20.9822 10.4335 21.3526 11.0435C21.5383 11.3494 21.6763 11.6067 21.7696 11.7913C21.8162 11.8837 21.8518 11.9581 21.8766 12.0115C21.889 12.0382 21.8987 12.0597 21.9058 12.0756L21.9144 12.0952L21.9173 12.1017L21.9183 12.1042L21.9188 12.1052C21.919 12.1057 21.9191 12.1061 21 12.5C21.9191 12.8939 21.919 12.8943 21.9188 12.8948L21.9183 12.8958L21.9173 12.8983L21.9144 12.9048L21.9058 12.9244C21.8987 12.9403 21.889 12.9618 21.8766 12.9885C21.8518 13.0419 21.8162 13.1163 21.7696 13.2087C21.6763 13.3933 21.5383 13.6506 21.3526 13.9565C20.9822 14.5665 20.4164 15.3792 19.6306 16.1941C18.0543 17.8288 15.5601 19.5 12 19.5C10.2242 19.5 8.71354 19.0842 7.44976 18.4645L3.70711 22.2071C3.31658 22.5976 2.68342 22.5976 2.29289 22.2071C1.90237 21.8166 1.90237 21.1834 2.29289 20.7929L20.2929 2.79289ZM8.96694 16.9473C9.84792 17.2884 10.8553 17.5 12 17.5C14.8685 17.5 16.8743 16.1712 18.1909 14.8059C18.8514 14.1208 19.3303 13.4335 19.643 12.9185C19.7392 12.76 19.8192 12.6187 19.8833 12.5C19.8192 12.3813 19.7392 12.24 19.643 12.0815C19.3303 11.5665 18.8514 10.8792 18.1909 10.1941C17.809 9.79816 17.3692 9.40526 16.8672 9.04697L15.4462 10.468C15.7981 11.0635 16 11.7582 16 12.5C16 14.7091 14.2091 16.5 12 16.5C11.2582 16.5 10.5635 16.2981 9.96803 15.9462L8.96694 16.9473ZM11.482 14.4323C11.6472 14.4764 11.8208 14.5 12 14.5C13.1046 14.5 14 13.6046 14 12.5C14 12.3208 13.9764 12.1472 13.9323 11.982L11.482 14.4323ZM21 12.5L21.9191 12.8939C22.027 12.6424 22.027 12.3576 21.9191 12.1061L21 12.5ZM12 5.5C12.8982 5.5 13.7285 5.60637 14.4933 5.79169L12.7537 7.53135C12.5093 7.51076 12.2582 7.5 12 7.5C9.13149 7.5 7.12574 8.82877 5.80913 10.1941C5.14858 10.8792 4.6697 11.5665 4.35702 12.0815C4.26075 12.24 4.18081 12.3813 4.11667 12.5C4.18081 12.6187 4.26075 12.76 4.35702 12.9185C4.64385 13.3909 5.07053 14.0084 5.649 14.636L4.23381 16.0512C3.51805 15.2848 2.99614 14.5308 2.64744 13.9565C2.46175 13.6506 2.3237 13.3933 2.23045 13.2087C2.18379 13.1163 2.14823 13.0419 2.12344 12.9885C2.11104 12.9618 2.10132 12.9403 2.09424 12.9244L2.08559 12.9048L2.08273 12.8983L2.08167 12.8958L2.08123 12.8948C2.08104 12.8943 2.08085 12.8939 2.99979 12.5001L2.08085 12.8939C1.97305 12.6424 1.97305 12.3576 2.08085 12.1061L2.99979 12.4999C2.08085 12.1061 2.08104 12.1057 2.08123 12.1052L2.08167 12.1042L2.08273 12.1017L2.08559 12.0952L2.09424 12.0756C2.10132 12.0597 2.11104 12.0382 2.12344 12.0115C2.14823 11.9581 2.18379 11.8837 2.23045 11.7913C2.3237 11.6067 2.46175 11.3494 2.64744 11.0435C3.0178 10.4335 3.58356 9.62085 4.36944 8.80586C5.94569 7.17123 8.43994 5.5 12 5.5ZM8.006 12.279C8.11671 10.2458 9.74581 8.61671 11.779 8.506L8.006 12.279Z"
          fill="#4A4A4A"/>
</svg>
