<svg width="24" height="24" viewBox="0 0 24 24" fill="none" xmlns="http://www.w3.org/2000/svg">
    <path d="M3 6.7855C3.03875 6.61351 3.11905 6.45361 3.23389 6.31975C3.34872 6.1859 3.4946 6.08217 3.6588 6.01761C3.86251 5.92933 4.08932 5.90916 4.30543 5.96009C4.52155 6.01103 4.7154 6.13036 4.85814 6.30029C5.06929 6.10199 5.28046 5.90369 5.47895 5.72648C6.24676 5.09263 7.1863 4.70188 8.1775 4.60417C9.17603 4.5176 10.1808 4.53457 11.1759 4.6548C12.1472 4.73074 13.1143 4.82357 14.0856 4.83623C15.0902 4.88842 16.0842 4.60975 16.9151 4.04301C17.2492 3.78515 17.564 3.50311 17.8568 3.19917C17.9207 3.11885 18.0067 3.05891 18.1042 3.02668C18.2017 2.99445 18.3065 2.99135 18.4058 3.01775C18.5001 3.05555 18.5789 3.12399 18.6294 3.21202C18.68 3.30006 18.6994 3.40255 18.6845 3.50296C18.6212 4.06411 18.5663 4.62948 18.4565 5.19064C18.2073 6.4564 17.9286 7.72216 17.6541 8.98792C17.6407 9.02524 17.6396 9.06584 17.651 9.1038C17.6624 9.14176 17.6857 9.17508 17.7174 9.19888C18.5646 9.95746 19.5039 10.6067 20.5131 11.1313C20.6328 11.1747 20.7392 11.2482 20.822 11.3448C20.9049 11.4413 20.9614 11.5576 20.986 11.6824C21.0107 11.8072 21.0026 11.9362 20.9627 12.057C20.9227 12.1778 20.8522 12.2862 20.758 12.3717C20.384 12.8315 19.9288 13.219 19.4151 13.5151C18.5583 13.9985 17.5862 14.2405 16.6025 14.2155C15.7579 14.2155 14.9133 14.1438 14.0433 14.0805C13.0139 13.9534 11.9756 13.9124 10.9394 13.9581C10.3112 13.9924 9.69702 14.1568 9.13579 14.4408C8.57455 14.7248 8.07853 15.1222 7.67918 15.6079C7.64511 15.6455 7.62199 15.6917 7.61232 15.7416C7.60264 15.7914 7.60678 15.8429 7.62428 15.8905C7.97902 17.1563 8.32953 18.4221 8.68005 19.6583C8.73784 19.7863 8.76494 19.9261 8.7592 20.0664C8.75346 20.2067 8.71504 20.3438 8.64698 20.4667C8.57892 20.5896 8.48309 20.6949 8.36713 20.7743C8.25117 20.8537 8.11827 20.905 7.979 20.9241C7.89876 20.9452 7.82275 20.9747 7.74674 21H7.36245C7.19139 20.9488 7.03704 20.8531 6.91532 20.7226C6.79359 20.5921 6.70887 20.4315 6.66986 20.2574C5.5803 16.342 4.48652 12.428 3.38852 8.51537C3.26182 8.07236 3.13092 7.63356 3 7.19054V6.7855ZM18.0342 3.95441H17.9919L17.937 4.00083C17.0236 4.87399 15.8218 5.38279 14.5586 5.43114C13.4101 5.4734 12.2601 5.41835 11.121 5.26659C10.1559 5.14215 9.18005 5.12516 8.21127 5.21595C7.03764 5.33542 5.95936 5.91504 5.21289 6.82769C5.17761 6.86549 5.15373 6.91247 5.14402 6.96323C5.1343 7.01399 5.13915 7.06646 5.15799 7.11459C5.88154 9.68831 6.60228 12.2648 7.3202 14.8442C7.33554 14.9019 7.35531 14.9583 7.37933 15.0129L7.45534 14.937C8.14444 14.2012 9.04408 13.6958 10.0314 13.4898C11.1239 13.3015 12.2384 13.2774 13.3381 13.4181C14.2629 13.494 15.1836 13.5826 16.1084 13.629C16.8767 13.6776 17.647 13.5759 18.3762 13.3295C19.1108 13.0759 19.7611 12.6248 20.2555 12.0257C20.4202 11.8317 20.4075 11.7684 20.2006 11.6587C19.133 11.095 18.14 10.4005 17.2444 9.59127C17.1471 9.51464 17.0756 9.41013 17.0393 9.29175C17.0031 9.17337 17.004 9.04675 17.0417 8.92885C17.388 7.60121 17.6696 6.25669 17.8864 4.8953C17.9455 4.57464 17.9877 4.26241 18.0342 3.94597V3.95441ZM4.06 6.53657C3.70948 6.53657 3.54056 6.81503 3.63769 7.19476C4.64841 10.798 5.65631 14.3998 6.6614 18.0001C6.85566 18.7033 7.05275 19.4065 7.25264 20.1097C7.32021 20.3545 7.43846 20.4178 7.67495 20.3545L7.81009 20.3165C8.11838 20.2321 8.17327 20.1351 8.08881 19.8355C7.10905 16.3223 6.12367 12.8063 5.13265 9.28749C4.9046 8.48584 4.68079 7.67997 4.45274 6.8741C4.4341 6.78225 4.38536 6.69922 4.31425 6.6381C4.24313 6.57698 4.15369 6.54126 4.06 6.53657Z" fill="#002C5E" stroke="#002C5E" stroke-width="0.5"/>
</svg>
