<svg width="24" height="24" viewBox="0 0 24 24" fill="none" xmlns="http://www.w3.org/2000/svg">
    <path d="M0 21.6956C0.0852361 20.9395 0.563859 20.4289 1.07528 19.9215C3.44222 17.5713 5.80369 15.2167 8.1597 12.8578C8.21543 12.8021 8.28102 12.7563 8.3597 12.6909C8.27446 12.6025 8.21216 12.5337 8.1466 12.4715C6.41893 10.7433 4.70438 9.00188 2.95376 7.29323C1.64244 6.01993 1.2228 4.4684 1.38344 2.71065C1.47616 1.84174 1.69711 0.99131 2.0391 0.186962C2.05619 0.134089 2.09009 0.0882217 2.13564 0.0563225C2.1812 0.0244233 2.23593 0.00823053 2.29154 0.0102022C2.50844 -0.0173785 2.7288 0.0111879 2.93145 0.0931578C3.13411 0.175128 3.31225 0.30775 3.44877 0.478282C6.21239 3.26711 8.99896 6.04284 11.779 8.81203C11.8404 8.88257 11.8974 8.95691 11.9495 9.03461C12.2546 8.81494 12.5089 8.53229 12.695 8.20585C12.8811 7.8794 12.9946 7.5168 13.028 7.14266C13.0899 6.32434 13.4517 5.55751 14.0443 4.98885C15.6638 3.36312 17.2887 1.74067 18.9191 0.121497C18.9326 0.106441 18.9481 0.0932297 18.965 0.0822146L19.9485 1.0642L16.208 4.799L17.2079 5.78098L20.9484 2.04291L21.9319 3.02489L18.1913 6.75641L19.2142 7.78095L22.9711 4.01996L23.9546 5.00194C23.9087 5.04777 23.8563 5.10996 23.7973 5.16888C22.3155 6.64839 20.8173 8.11482 19.3584 9.6107C18.6571 10.399 17.6848 10.8955 16.6342 11.0018C16.2956 11.0441 15.9707 11.1613 15.6832 11.3447C15.3956 11.5282 15.1527 11.7733 14.972 12.0624C15.0497 12.107 15.1232 12.1585 15.1917 12.2162L23.2858 20.2914C23.5949 20.5626 23.8174 20.9183 23.9258 21.3146C24.0341 21.7108 24.0237 22.1301 23.8956 22.5205C23.7891 22.8946 23.5759 23.2297 23.2819 23.4849C22.988 23.7401 22.6259 23.9043 22.2401 23.9574C22.204 23.9574 22.1712 23.9869 22.1351 24H21.5713C20.873 23.8658 20.4009 23.3977 19.9321 22.9165C17.3619 20.3416 14.7885 17.7688 12.2117 15.1982C12.1407 15.1085 12.0771 15.0133 12.0216 14.9134C11.95 15.0143 11.8734 15.1115 11.7921 15.2047L3.74055 23.2275C3.43147 23.5614 3.03158 23.798 2.58985 23.9083C2.44889 23.9411 2.30136 23.964 2.15711 23.9902H2.11123C2.0596 23.974 2.00704 23.9609 1.95386 23.9509C1.66597 23.9336 1.38505 23.8555 1.12962 23.7218C0.874191 23.588 0.650075 23.4017 0.472078 23.1751C0.219847 22.8382 0.0574132 22.4429 0 22.0262V21.6956ZM2.87835 1.97744C2.83901 2.55681 2.76362 3.09035 2.77018 3.61407C2.76947 4.09847 2.86664 4.57803 3.05591 5.02404C3.24518 5.47005 3.52265 5.87334 3.87169 6.20978C6.29326 8.61018 8.70718 11.0193 11.1135 13.4372C11.1646 13.4962 11.2086 13.561 11.2446 13.6303L12.9034 11.9773L2.87835 1.97744ZM13.0051 14.01L13.1067 14.1147L21.3025 22.2979C21.3459 22.343 21.3919 22.3856 21.4401 22.4256C21.5358 22.504 21.6506 22.5556 21.7728 22.5752C21.895 22.5948 22.0202 22.5816 22.1356 22.537C22.251 22.4924 22.3524 22.4179 22.4296 22.3213C22.5067 22.2246 22.5567 22.1092 22.5744 21.9869C22.5889 21.8548 22.5694 21.7211 22.5178 21.5985C22.4662 21.476 22.3841 21.3686 22.2794 21.2865C19.5715 18.5827 16.8625 15.8757 14.1525 13.1655C14.0967 13.1131 14.041 13.0673 13.9918 13.0247L13.0051 14.01ZM9.31696 13.6827C9.28417 13.7121 9.235 13.7514 9.19238 13.7939L1.70473 21.2832C1.63752 21.349 1.5771 21.4214 1.5244 21.4992C1.44754 21.6091 1.40633 21.74 1.40633 21.874C1.40633 22.0081 1.44754 22.1389 1.5244 22.2488C1.5965 22.3659 1.7037 22.4574 1.8308 22.5103C1.9579 22.5632 2.09847 22.5747 2.23253 22.5434C2.40257 22.4911 2.55768 22.3991 2.68494 22.275C5.19394 19.7873 7.69528 17.2953 10.189 14.7988C10.2286 14.7606 10.2648 14.719 10.2972 14.6745L9.31696 13.6827ZM15.172 5.84644C14.767 6.17037 14.5066 6.64098 14.4475 7.15575C14.4169 7.67451 14.2835 8.18206 14.055 8.64897C13.8265 9.11589 13.5076 9.5329 13.1165 9.87584C13.0883 9.90014 13.063 9.9276 13.0411 9.95767L14.0246 10.9626C14.3817 10.5328 14.8248 10.1823 15.3256 9.9337C15.8264 9.6851 16.3737 9.54386 16.9325 9.51905C17.4111 9.45038 17.8439 9.19787 18.1389 8.8153C17.1587 7.83659 16.1752 6.85788 15.1753 5.85626L15.172 5.84644Z" fill="#8B8B8B"/>
</svg>
