<svg width="23" height="24" viewBox="0 0 23 24" fill="none" xmlns="http://www.w3.org/2000/svg">
    <path d="M4.43213 18.5598C4.48143 18.0872 4.75824 17.768 5.05402 17.4509C6.42296 15.9821 7.78874 14.5105 9.15136 13.0361C9.18359 13.0013 9.22152 12.9727 9.26703 12.9318C9.21773 12.8765 9.1817 12.8336 9.14378 12.7947C8.14457 11.7145 7.15295 10.6262 6.14046 9.55827C5.38205 8.76245 5.13935 7.79275 5.23225 6.69416C5.28588 6.15109 5.41367 5.61957 5.61146 5.11685C5.62134 5.08381 5.64095 5.05514 5.6673 5.0352C5.69364 5.01526 5.7253 5.00514 5.75746 5.00638C5.88291 4.98914 6.01035 5.00699 6.12756 5.05822C6.24477 5.10945 6.34779 5.19234 6.42675 5.29893C8.02511 7.04194 9.63675 8.77678 11.2446 10.5075C11.2801 10.5516 11.3131 10.5981 11.3432 10.6466C11.5197 10.5093 11.6667 10.3327 11.7744 10.1287C11.882 9.92463 11.9477 9.698 11.967 9.46416C12.0028 8.95271 12.212 8.47344 12.5548 8.11803C13.4914 7.10195 14.4312 6.08792 15.3742 5.07594C15.382 5.06653 15.3909 5.05827 15.4007 5.05138L15.9695 5.66512L13.8061 7.99937L14.3844 8.61311L16.5478 6.27682L17.1166 6.89055L14.9532 9.22276L15.5448 9.86309L17.7177 7.51248L18.2865 8.12621C18.2599 8.15485 18.2296 8.19372 18.1955 8.23055C17.3385 9.15525 16.472 10.0718 15.6282 11.0067C15.2226 11.4993 14.6603 11.8097 14.0526 11.8762C13.8568 11.9026 13.6689 11.9758 13.5026 12.0904C13.3363 12.2051 13.1958 12.3583 13.0913 12.539C13.1363 12.5669 13.1788 12.599 13.2184 12.6351L17.8997 17.6821C18.0784 17.8516 18.2071 18.0739 18.2698 18.3216C18.3325 18.5693 18.3264 18.8313 18.2523 19.0753C18.1908 19.3091 18.0675 19.5186 17.8974 19.6781C17.7274 19.8375 17.518 19.9402 17.2948 19.9734C17.274 19.9734 17.255 19.9918 17.2342 20H16.9081C16.5042 19.9161 16.2312 19.6236 15.96 19.3228C14.4735 17.7135 12.9852 16.1055 11.4949 14.4989C11.4538 14.4428 11.417 14.3833 11.3849 14.3209C11.3435 14.3839 11.2992 14.4447 11.2522 14.503L6.5955 19.5172C6.41675 19.7259 6.18547 19.8737 5.92999 19.9427C5.84846 19.9632 5.76314 19.9775 5.67971 19.9939H5.65318C5.62331 19.9838 5.59292 19.9756 5.56216 19.9693C5.39566 19.9585 5.23318 19.9097 5.08545 19.8261C4.93772 19.7425 4.80811 19.6261 4.70516 19.4845C4.55928 19.2739 4.46533 19.0268 4.43213 18.7664V18.5598ZM6.09684 6.2359C6.07409 6.598 6.03049 6.93147 6.03428 7.2588C6.03387 7.56154 6.09007 7.86127 6.19954 8.14002C6.309 8.41878 6.46948 8.67084 6.67135 8.88111C8.07189 10.3814 9.468 11.8871 10.8597 13.3982C10.8892 13.4351 10.9147 13.4756 10.9355 13.5189L11.8949 12.4858L6.09684 6.2359ZM11.9537 13.7562L12.0125 13.8217L16.7526 18.9362C16.7777 18.9644 16.8043 18.991 16.8322 19.016C16.8875 19.065 16.9539 19.0973 17.0246 19.1095C17.0953 19.1218 17.1677 19.1135 17.2344 19.0856C17.3012 19.0577 17.3599 19.0112 17.4045 18.9508C17.4491 18.8904 17.478 18.8183 17.4882 18.7418C17.4966 18.6592 17.4854 18.5757 17.4555 18.4991C17.4256 18.4225 17.3782 18.3554 17.3176 18.304C15.7515 16.6142 14.1847 14.9223 12.6173 13.2284C12.5851 13.1957 12.5529 13.167 12.5244 13.1405L11.9537 13.7562ZM9.82067 13.5517C9.80171 13.5701 9.77327 13.5946 9.74862 13.6212L5.41807 18.302C5.3792 18.3431 5.34426 18.3883 5.31378 18.437C5.26932 18.5057 5.24549 18.5875 5.24549 18.6713C5.24549 18.755 5.26932 18.8368 5.31378 18.9055C5.35548 18.9787 5.41748 19.0359 5.49099 19.0689C5.5645 19.102 5.64579 19.1092 5.72333 19.0896C5.82168 19.057 5.91138 18.9995 5.98499 18.9219C7.43609 17.3671 8.88276 15.8095 10.325 14.2493C10.3479 14.2254 10.3689 14.1994 10.3876 14.1715L9.82067 13.5517ZM13.207 8.65403C12.9727 8.85648 12.8221 9.15061 12.788 9.47234C12.7703 9.79657 12.6931 10.1138 12.561 10.4056C12.4288 10.6974 12.2443 10.9581 12.0182 11.1724C12.0019 11.1876 11.9872 11.2047 11.9746 11.2235L12.5434 11.8516C12.7499 11.583 13.0062 11.3639 13.2958 11.2086C13.5855 11.0532 13.902 10.9649 14.2252 10.9494C14.502 10.9065 14.7523 10.7487 14.9229 10.5096C14.356 9.89787 13.7872 9.28618 13.2089 8.66016L13.207 8.65403Z" fill="white"/>
</svg>
