<svg width="24" height="24" viewBox="0 0 24 24" fill="none" xmlns="http://www.w3.org/2000/svg">
    <path d="M4.34863 18.5598C4.40025 18.0872 4.69012 17.768 4.99984 17.4509C6.43331 15.9821 7.86346 14.5105 9.29031 13.0361C9.32407 13.0013 9.36378 12.9727 9.41143 12.9318C9.35981 12.8765 9.32208 12.8336 9.28238 12.7947C8.23606 11.7145 7.1977 10.6262 6.13749 9.55827C5.34333 8.76245 5.08919 7.79275 5.18647 6.69416C5.24263 6.15109 5.37644 5.61957 5.58355 5.11685C5.5939 5.08381 5.61443 5.05514 5.64202 5.0352C5.66961 5.01526 5.70276 5.00514 5.73643 5.00638C5.86779 4.98914 6.00125 5.00699 6.12398 5.05822C6.24671 5.10945 6.3546 5.19234 6.43728 5.29893C8.11098 7.04194 9.79859 8.77678 11.4822 10.5075C11.5194 10.5516 11.5539 10.5981 11.5855 10.6466C11.7703 10.5093 11.9243 10.3327 12.037 10.1287C12.1497 9.92463 12.2185 9.698 12.2387 9.46416C12.2761 8.95271 12.4952 8.47344 12.8541 8.11803C13.8349 7.10195 14.819 6.08792 15.8064 5.07594C15.8146 5.06653 15.824 5.05827 15.8342 5.05138L16.4299 5.66512L14.1645 7.99937L14.7701 8.61311L17.0354 6.27682L17.631 6.89055L15.3657 9.22276L15.9851 9.86309L18.2604 7.51248L18.856 8.12621C18.8282 8.15485 18.7965 8.19372 18.7607 8.23055C17.8633 9.15525 16.956 10.0718 16.0725 11.0067C15.6477 11.4993 15.0589 11.8097 14.4226 11.8762C14.2176 11.9026 14.0208 11.9758 13.8467 12.0904C13.6725 12.2051 13.5254 12.3583 13.416 12.539C13.4631 12.5669 13.5076 12.599 13.549 12.6351L18.451 17.6821C18.6382 17.8516 18.7729 18.0739 18.8386 18.3216C18.9042 18.5693 18.8978 18.8313 18.8203 19.0753C18.7558 19.3091 18.6267 19.5186 18.4486 19.6781C18.2706 19.8375 18.0514 19.9402 17.8177 19.9734C17.7958 19.9734 17.776 19.9918 17.7541 20H17.4126C16.9897 19.9161 16.7038 19.6236 16.4199 19.3228C14.8634 17.7135 13.3048 16.1055 11.7443 14.4989C11.7013 14.4428 11.6628 14.3833 11.6291 14.3209C11.5858 14.3839 11.5394 14.4447 11.4902 14.503L6.61398 19.5172C6.4268 19.7259 6.18462 19.8737 5.9171 19.9427C5.83173 19.9632 5.74238 19.9775 5.65503 19.9939H5.62724C5.59597 19.9838 5.56414 19.9756 5.53193 19.9693C5.35758 19.9585 5.18745 19.9097 5.03275 19.8261C4.87806 19.7425 4.74233 19.6261 4.63453 19.4845C4.48178 19.2739 4.3834 19.0268 4.34863 18.7664V18.5598ZM6.09182 6.2359C6.06799 6.598 6.02234 6.93147 6.02631 7.2588C6.02588 7.56154 6.08473 7.86127 6.19935 8.14002C6.31398 8.41878 6.48202 8.67084 6.6934 8.88111C8.15996 10.3814 9.62188 11.8871 11.0792 13.3982C11.1101 13.4351 11.1368 13.4756 11.1586 13.5189L12.1632 12.4858L6.09182 6.2359ZM12.2248 13.7562L12.2863 13.8217L17.2498 18.9362C17.2762 18.9644 17.304 18.991 17.3332 19.016C17.3911 19.065 17.4607 19.0973 17.5347 19.1095C17.6087 19.1218 17.6845 19.1135 17.7544 19.0856C17.8243 19.0577 17.8857 19.0112 17.9324 18.9508C17.9791 18.8904 18.0094 18.8183 18.0202 18.7418C18.029 18.6592 18.0171 18.5757 17.9859 18.4991C17.9546 18.4225 17.9049 18.3554 17.8415 18.304C16.2015 16.6142 14.5609 14.9223 12.9197 13.2284C12.8859 13.1957 12.8522 13.167 12.8224 13.1405L12.2248 13.7562ZM9.99117 13.5517C9.97132 13.5701 9.94153 13.5946 9.91572 13.6212L5.38105 18.302C5.34035 18.3431 5.30375 18.3883 5.27184 18.437C5.22529 18.5057 5.20033 18.5875 5.20033 18.6713C5.20033 18.755 5.22529 18.8368 5.27184 18.9055C5.31551 18.9787 5.38043 19.0359 5.4574 19.0689C5.53438 19.102 5.61951 19.1092 5.7007 19.0896C5.80368 19.057 5.89761 18.9995 5.97469 18.9219C7.49419 17.3671 9.00905 15.8095 10.5193 14.2493C10.5433 14.2254 10.5652 14.1994 10.5848 14.1715L9.99117 13.5517ZM13.5371 8.65403C13.2918 8.85648 13.1341 9.15061 13.0983 9.47234C13.0798 9.79657 12.999 10.1138 12.8606 10.4056C12.7223 10.6974 12.5291 10.9581 12.2923 11.1724C12.2752 11.1876 12.2599 11.2047 12.2466 11.2235L12.8422 11.8516C13.0585 11.583 13.3269 11.3639 13.6301 11.2086C13.9334 11.0532 14.2649 10.9649 14.6033 10.9494C14.8931 10.9065 15.1553 10.7487 15.3339 10.5096C14.7403 9.89787 14.1447 9.28618 13.5391 8.66016L13.5371 8.65403Z" fill="#002C5E"/>
</svg>
