<svg width="24" height="24" viewBox="0 0 24 24" fill="none" xmlns="http://www.w3.org/2000/svg">
    <path fill-rule="evenodd" clip-rule="evenodd" d="M8 9V8C8 5.79086 9.79086 4 12 4C14.2091 4 16 5.5 16 7L18 7C18 4.5 15.3137 2 12 2C8.68629 2 6 4.68629 6 8V9.34505C5.39842 9.7323 5 10.4079 5 11.1765V15C5 18.866 8.13401 22 12 22C15.866 22 19 18.866 19 15V11.1765C19 9.97443 18.0256 9 16.8235 9L8 9ZM7.17647 11C7.07901 11 7 11.079 7 11.1765L7 15C7 17.7614 9.23858 20 12 20C14.7614 20 17 17.7614 17 15V11.1765C17 11.079 16.921 11 16.8235 11H8H7.17647ZM12 13C13.1046 13 14 13.8954 14 15C14 16.1046 13.1046 17 12 17C10.8954 17 10 16.1046 10 15C10 13.8954 10.8954 13 12 13Z" fill="#FF6770"/>
</svg>
