<svg width="24" height="24" viewBox="0 0 24 24" fill="none" xmlns="http://www.w3.org/2000/svg">
    <path d="M2.31181 22.0005C2.2249 21.9733 2.14862 21.9197 2.09347 21.8473C2.03831 21.7748 2.00701 21.687 2.00391 21.596C2.00391 21.3674 2.18864 21.2223 2.44376 21.2179H4.79257V20.9585C4.77694 20.3419 4.80339 19.725 4.87174 19.112C4.97542 18.445 5.25976 17.8191 5.69396 17.3022C6.12816 16.7853 6.69565 16.397 7.33489 16.1795C8.17061 15.8541 9.01951 15.5596 9.85963 15.2474C10.1367 15.1463 10.1587 15.1155 10.1587 14.8077C10.1587 14.5 10.1587 14.2098 10.1587 13.9284C10.1654 13.8845 10.1573 13.8395 10.1359 13.8006C10.1144 13.7616 10.0807 13.7309 10.04 13.713C9.72769 13.5415 9.4198 13.3613 9.1075 13.181C8.80014 13.0073 8.54322 12.7567 8.36201 12.4538C8.18079 12.1508 8.08149 11.806 8.07384 11.4532C8.10463 11.1601 8.09426 10.8641 8.04304 10.5738C7.94188 10.3232 7.65599 10.1342 7.45806 9.93194C6.89248 9.3269 6.56207 8.53958 6.52657 7.71228C6.49108 6.88499 6.75284 6.07229 7.26453 5.42106C7.32102 5.34911 7.3812 5.28013 7.44485 5.21443C8.27177 4.38347 9.08111 3.53933 9.93002 2.73037C10.3528 2.30107 10.9181 2.04126 11.5193 1.99995C12.1206 1.95864 12.7161 2.13869 13.1937 2.50614C13.5497 2.78541 13.8184 3.16071 13.9678 3.5877C14.0084 3.70121 14.0729 3.80468 14.157 3.89106C14.9531 4.70003 15.758 5.49581 16.5542 6.29598C16.7965 6.51553 16.9867 6.78632 17.1111 7.08864C17.2354 7.39096 17.2908 7.7172 17.2731 8.0436C17.2554 8.37001 17.1651 8.68835 17.0088 8.97547C16.8524 9.26258 16.634 9.51124 16.3694 9.70333C16.2812 9.78066 16.1799 9.84169 16.0703 9.88358C15.8988 9.93634 15.8768 10.0419 15.8768 10.2001C15.8937 10.6943 15.882 11.189 15.8416 11.6818C15.8081 11.9941 15.6988 12.2934 15.5232 12.5539C15.3477 12.8144 15.1112 13.0282 14.8343 13.1766C14.522 13.3525 14.2098 13.5283 13.9063 13.713C13.8751 13.7358 13.8489 13.7648 13.8293 13.798C13.8096 13.8313 13.7969 13.8682 13.7919 13.9064C13.7919 14.2186 13.7919 14.5308 13.7919 14.8429C13.7809 14.9303 13.8027 15.0187 13.853 15.0909C13.9034 15.1632 13.9788 15.2142 14.0646 15.2342C14.8915 15.5273 15.7155 15.8277 16.5366 16.1355C17.2039 16.3516 17.7975 16.7496 18.2506 17.2849C18.7037 17.8201 18.9982 18.4712 19.1009 19.1647C19.1583 19.6623 19.1803 20.1633 19.1669 20.664C19.1669 20.8398 19.1669 21.0113 19.1669 21.2092H19.3912C20.0729 21.2092 20.7591 21.2092 21.4409 21.2092C21.5542 21.1929 21.6696 21.2159 21.768 21.2743C21.8664 21.3326 21.9419 21.4229 21.9819 21.5301V21.684L21.6696 21.9961L2.31181 22.0005ZM16.7609 21.2048H18.3971C18.3971 20.6991 18.3971 20.2111 18.3971 19.7231C18.3799 19.3938 18.3177 19.0684 18.2124 18.7559C18.0596 18.3175 17.808 17.9202 17.477 17.5946C17.146 17.2691 16.7444 17.0241 16.3034 16.8785C15.4677 16.5752 14.632 16.2718 13.7963 15.9596C13.5651 15.8936 13.3637 15.7501 13.2259 15.5531C13.0882 15.3561 13.0224 15.1178 13.0398 14.8781C13.0398 14.6758 13.0398 14.478 13.0398 14.2274C12.7426 14.4552 12.3784 14.5787 12.0039 14.5787C11.6294 14.5787 11.2653 14.4552 10.9681 14.2274V14.9484C10.972 15.1656 10.9075 15.3785 10.7835 15.5568C10.6595 15.7352 10.4825 15.87 10.2775 15.9421C10.2027 15.9772 10.1192 15.9992 10.04 16.03C9.13389 16.3685 8.20579 16.6631 7.32609 17.0632C6.8539 17.2681 6.44707 17.5987 6.15 18.0189C5.85293 18.4391 5.67704 18.9328 5.64148 19.4461C5.5799 20.0133 5.61068 20.5892 5.60188 21.1652C5.60188 21.1652 5.60188 21.196 5.60188 21.2135H7.22053V21.0157C7.22053 20.5145 7.22053 20.0133 7.22053 19.5121C7.20934 19.3145 7.23959 19.1168 7.30933 18.9316C7.37907 18.7464 7.48677 18.5778 7.6255 18.4367C7.76424 18.2955 7.93096 18.1849 8.11497 18.1119C8.29897 18.0389 8.49622 18.0052 8.69404 18.0128C9.23066 18.0128 9.76286 18.0128 10.2951 18.0128C10.6514 18.0128 10.8361 18.1535 10.8317 18.4085C10.8273 18.6635 10.6426 18.7954 10.2863 18.7954H8.70282C8.6078 18.7865 8.51198 18.7987 8.42225 18.8312C8.33251 18.8637 8.25108 18.9157 8.1838 18.9833C8.11652 19.051 8.06508 19.1327 8.03314 19.2226C8.0012 19.3125 7.98956 19.4084 7.99907 19.5033V21.2135H15.9955V19.6176C15.9955 19.0153 15.7756 18.7954 15.1686 18.7954C14.6452 18.7954 14.1174 18.7954 13.5896 18.7954C13.5342 18.8009 13.4782 18.7948 13.4253 18.7775C13.3723 18.7601 13.3236 18.7319 13.2822 18.6947C13.2408 18.6574 13.2076 18.612 13.1848 18.5612C13.162 18.5104 13.1501 18.4554 13.1497 18.3997C13.1518 18.3454 13.1651 18.292 13.1887 18.243C13.2124 18.1939 13.2459 18.1503 13.2872 18.1148C13.3285 18.0794 13.3766 18.0528 13.4286 18.0367C13.4807 18.0207 13.5355 18.0156 13.5896 18.0216H15.4853C15.5509 18.0236 15.6159 18.034 15.6789 18.0524C16.0024 18.1271 16.2895 18.3127 16.4904 18.5769C16.6912 18.8411 16.7932 19.1673 16.7785 19.4989C16.7653 20.0573 16.7609 20.6244 16.7609 21.2048ZM12.1469 7.3028L11.9885 7.45228C11.1308 8.33159 10.2775 9.16695 9.41978 10.0199C9.23504 10.2045 8.97993 10.3672 8.89635 10.587C8.83588 10.8482 8.82841 11.1188 8.87437 11.3828C8.87588 11.6146 8.93848 11.8419 9.05585 12.0418C9.17322 12.2417 9.34123 12.4072 9.54295 12.5215C10.1895 12.882 10.8361 13.247 11.4739 13.6251C11.6281 13.7283 11.8095 13.7834 11.9951 13.7834C12.1807 13.7834 12.3621 13.7283 12.5163 13.6251C13.1673 13.2426 13.8359 12.8733 14.4781 12.4951C14.6448 12.4121 14.7874 12.2877 14.8922 12.1337C14.9969 11.9797 15.0603 11.8014 15.0762 11.6158C15.1158 11.0707 15.0762 10.5255 15.0762 9.98031C14.9248 9.904 14.7779 9.81886 14.6364 9.7253C14.4936 9.61272 14.3598 9.48925 14.2361 9.35599L12.314 7.43909C12.2612 7.40392 12.2084 7.35995 12.1469 7.3028ZM12.9826 3.40743C12.9686 3.45046 12.9583 3.49458 12.9518 3.53933C12.8744 4.09188 12.6069 4.60023 12.1952 4.97701L11.3947 5.77719C11.3419 5.83523 11.2812 5.88555 11.2144 5.92667C11.1585 5.96048 11.0948 5.97909 11.0295 5.98065C10.9643 5.9822 10.8997 5.96664 10.8423 5.93551C10.785 5.90438 10.7367 5.85878 10.7024 5.80324C10.6682 5.74769 10.6491 5.68414 10.647 5.61891C10.6656 5.47956 10.7289 5.35 10.8273 5.2496C11.1484 4.90667 11.4915 4.58572 11.8126 4.24279C11.9593 4.08058 12.0691 3.88848 12.1345 3.67975C12.1998 3.47102 12.219 3.25061 12.1908 3.03373C12.1908 2.90183 12.1381 2.82709 11.9841 2.8095C11.7026 2.76925 11.4156 2.79694 11.147 2.89026C10.8784 2.98357 10.6361 3.1398 10.4402 3.34588C9.6705 4.11528 8.90516 4.88468 8.13102 5.64969C7.84792 5.93246 7.63022 6.27378 7.49323 6.64965C7.35624 7.02553 7.30329 7.42683 7.33809 7.82535C7.37288 8.22388 7.4946 8.60995 7.69466 8.95642C7.89472 9.30289 8.16828 9.60135 8.4961 9.83082L8.63246 9.70333L12.789 5.54417C12.8595 5.47815 12.9256 5.40766 12.987 5.33313C13.2118 5.06236 13.3345 4.72135 13.3337 4.36949C13.3328 4.01762 13.2086 3.67718 12.9826 3.40743ZM14.047 4.89348C13.8711 5.73762 13.2157 6.18607 12.7011 6.74883L14.4165 8.4547C14.6144 8.65254 14.808 8.85479 15.0103 9.04824C15.1241 9.16452 15.2768 9.23467 15.4392 9.24522C15.6016 9.25577 15.7621 9.20597 15.89 9.10539C16.0695 8.98463 16.2188 8.82424 16.3265 8.63662C16.4341 8.449 16.4971 8.23917 16.5107 8.02332C16.5243 7.80747 16.4881 7.59138 16.4049 7.39174C16.3217 7.1921 16.1937 7.01426 16.0307 6.87193C15.4237 6.26521 14.8123 5.65848 14.2054 5.04735L14.047 4.89348Z" fill="white" stroke="white" stroke-width="0.4"/>
    <path d="M22 12.9436C21.8944 13.181 21.8064 13.4228 21.6788 13.647C21.6548 13.6934 21.6213 13.7342 21.5804 13.7669C21.5396 13.7995 21.4924 13.8232 21.4418 13.8365C21.3912 13.8497 21.3384 13.8523 21.2868 13.8439C21.2352 13.8355 21.186 13.8163 21.1422 13.7877C21.0967 13.7614 21.0572 13.7259 21.0263 13.6833C20.9955 13.6407 20.9739 13.5921 20.9631 13.5407C20.9523 13.4892 20.9525 13.4361 20.9637 13.3847C20.9748 13.3333 20.9967 13.2849 21.0279 13.2425C21.1672 13.0658 21.2335 12.8424 21.2131 12.6183C21.1926 12.3942 21.087 12.1865 20.9179 12.0379C20.6205 11.7415 20.4341 11.3518 20.3901 10.9343C20.356 10.5692 20.4509 10.2036 20.6584 9.90115C20.7771 9.73848 20.8959 9.5758 21.0279 9.42192C21.059 9.3802 21.0982 9.34511 21.1431 9.31871C21.188 9.29231 21.2377 9.27512 21.2893 9.26816C21.3409 9.2612 21.3934 9.2646 21.4436 9.27817C21.4939 9.29174 21.541 9.31521 21.5821 9.34718C21.6234 9.37959 21.6576 9.42004 21.6827 9.46609C21.7079 9.51214 21.7234 9.56281 21.7284 9.61504C21.7333 9.66727 21.7275 9.71995 21.7115 9.76989C21.6954 9.81983 21.6693 9.86598 21.6349 9.90554C21.5513 10.0286 21.4501 10.1386 21.3622 10.2573C21.2303 10.4092 21.1578 10.6035 21.1578 10.8046C21.1578 11.0057 21.2303 11.2001 21.3622 11.352C21.5026 11.5135 21.6305 11.6855 21.7448 11.8664C21.8445 12.0631 21.9284 12.2675 21.9956 12.4775L22 12.9436Z" fill="white" stroke="white" stroke-width="0.4"/>
    <path d="M3.3941 11.1582C3.32812 11.2945 3.29294 11.3913 3.24016 11.4748C3.18738 11.5583 3.09501 11.6594 3.02024 11.7518C2.8673 11.9107 2.78187 12.1226 2.78187 12.3431C2.78187 12.5636 2.8673 12.7755 3.02024 12.9345C3.19059 13.1501 3.338 13.3829 3.46009 13.6291C3.58007 13.8869 3.62513 14.1733 3.59013 14.4555C3.55513 14.7377 3.44148 15.0043 3.26215 15.2251C3.20736 15.3078 3.12224 15.3657 3.02515 15.3862C2.92806 15.4068 2.82677 15.3884 2.74313 15.335C2.69892 15.3098 2.6604 15.2757 2.62997 15.235C2.59954 15.1942 2.57788 15.1476 2.56632 15.0981C2.55476 15.0485 2.55354 14.9971 2.56277 14.9471C2.57201 14.8971 2.5915 14.8495 2.61998 14.8074C2.76246 14.6177 2.82761 14.3811 2.8023 14.1452C2.77699 13.9094 2.66312 13.6919 2.48363 13.5368C2.26684 13.3282 2.11124 13.0643 2.03371 12.7737C1.95618 12.4831 1.95968 12.1768 2.04378 11.8881C2.17903 11.5068 2.40729 11.1653 2.70793 10.8944C2.75758 10.8405 2.82534 10.8066 2.89833 10.7993C2.97131 10.792 3.04445 10.8118 3.10381 10.8549C3.21457 10.9416 3.31232 11.0438 3.3941 11.1582Z" fill="white" stroke="white" stroke-width="0.4"/>
    <path d="M18.5867 15.3917C18.5172 15.3996 18.4468 15.3891 18.3826 15.3613C18.3184 15.3335 18.2626 15.2894 18.2208 15.2334C18.179 15.1773 18.1526 15.1113 18.1442 15.0419C18.1359 14.9725 18.1459 14.9021 18.1732 14.8377C18.2445 14.7136 18.3063 14.5843 18.358 14.4508C18.3933 14.3221 18.3965 14.1866 18.3673 14.0563C18.3382 13.9261 18.2776 13.8049 18.1908 13.7034C18.0029 13.4802 17.8378 13.2386 17.6982 12.9824C17.5809 12.7445 17.5296 12.4794 17.5497 12.2149C17.5698 11.9504 17.6606 11.6962 17.8126 11.4787C17.9254 11.3125 18.0473 11.1525 18.1776 10.9995C18.2064 10.9517 18.2449 10.9105 18.2907 10.8786C18.3364 10.8468 18.3885 10.8249 18.4433 10.8145C18.4981 10.8041 18.5545 10.8055 18.6088 10.8184C18.6631 10.8314 18.714 10.8556 18.7582 10.8896C18.8023 10.9241 18.8384 10.9676 18.8642 11.0172C18.8899 11.0668 18.9048 11.1214 18.9077 11.1772C18.9106 11.233 18.9015 11.2888 18.8811 11.3408C18.8606 11.3928 18.8292 11.4399 18.789 11.4787C18.7054 11.5931 18.6087 11.703 18.5251 11.8173C18.4001 11.9655 18.3316 12.1532 18.3316 12.3471C18.3316 12.541 18.4001 12.7286 18.5251 12.8769C18.716 13.1061 18.884 13.3535 19.0265 13.6155C19.1515 13.8714 19.2005 14.1576 19.1677 14.4405C19.135 14.7233 19.0219 14.9908 18.8418 15.2114C18.7682 15.2863 18.6818 15.3473 18.5867 15.3917Z" fill="white" stroke="white" stroke-width="0.4"/>
    <path d="M5.77838 9.22852C5.84671 9.23181 5.91313 9.252 5.97173 9.28728C6.03033 9.32255 6.07925 9.3718 6.11412 9.43062C6.149 9.48944 6.16873 9.55599 6.17155 9.6243C6.17436 9.69262 6.16017 9.76056 6.13026 9.82205C6.04281 9.95914 5.94579 10.0899 5.83994 10.2133C5.68916 10.3698 5.60493 10.5786 5.60493 10.7959C5.60493 11.0132 5.68916 11.222 5.83994 11.3784C6.07572 11.6328 6.25819 11.9318 6.37657 12.2578C6.44549 12.489 6.4603 12.7329 6.41988 12.9708C6.37946 13.2086 6.28487 13.434 6.14344 13.6295C6.11811 13.6769 6.0836 13.7188 6.04188 13.7527C6.00017 13.7867 5.95211 13.8119 5.90051 13.8271C5.84891 13.8422 5.79481 13.8469 5.74136 13.8409C5.68792 13.8349 5.63621 13.8184 5.58925 13.7922C5.54243 13.763 5.50219 13.7244 5.47115 13.6789C5.44012 13.6333 5.41897 13.5817 5.40903 13.5275C5.39909 13.4733 5.40058 13.4176 5.41343 13.364C5.42629 13.3104 5.45021 13.26 5.48366 13.2162C5.61332 13.0534 5.67715 12.8478 5.66249 12.6402C5.64783 12.4326 5.55575 12.2381 5.40449 12.0951L5.19778 11.8357C4.99443 11.5835 4.86772 11.2783 4.83269 10.9564C4.79604 10.597 4.8863 10.2362 5.08782 9.93636C5.20117 9.76283 5.32762 9.59821 5.46608 9.44394C5.56137 9.36014 5.6662 9.28784 5.77838 9.22852Z" fill="white" stroke="white" stroke-width="0.4"/>
    <path d="M12.0683 18.012C12.1185 18.0125 12.1681 18.023 12.2143 18.0427C12.2606 18.0625 12.3024 18.0912 12.3375 18.1271C12.3727 18.163 12.4004 18.2055 12.4191 18.2521C12.4378 18.2988 12.4471 18.3486 12.4465 18.3989C12.4421 18.4996 12.3998 18.5951 12.328 18.666C12.2563 18.7369 12.1603 18.7781 12.0594 18.7814C11.9579 18.7779 11.8617 18.7352 11.7911 18.6622C11.7206 18.5892 11.6811 18.4916 11.6812 18.3901C11.6806 18.3395 11.6902 18.2893 11.7096 18.2426C11.7289 18.1958 11.7575 18.1535 11.7937 18.1182C11.8299 18.0828 11.8729 18.0552 11.9201 18.0369C11.9673 18.0187 12.0177 18.0102 12.0683 18.012Z" fill="white" stroke="white" stroke-width="0.4"/>
    <path d="M11.9891 12.5027C11.7721 12.4311 11.5605 12.3445 11.3557 12.2433C11.3111 12.2185 11.2722 12.1847 11.2413 12.1441C11.2105 12.1035 11.1883 12.057 11.1764 12.0074C11.1644 11.9578 11.1628 11.9063 11.1717 11.8561C11.1806 11.8059 11.1998 11.7581 11.2281 11.7157C11.2785 11.6308 11.3605 11.5693 11.456 11.5446C11.5516 11.5199 11.6531 11.534 11.7384 11.5838C11.8158 11.6312 11.9049 11.6563 11.9957 11.6563C12.0865 11.6563 12.1755 11.6312 12.253 11.5838C12.2955 11.5567 12.3431 11.5386 12.3929 11.5308C12.4427 11.523 12.4936 11.5255 12.5424 11.5383C12.5911 11.5511 12.6367 11.5739 12.6762 11.6052C12.7157 11.6365 12.7484 11.6756 12.772 11.7201C12.7984 11.7634 12.8158 11.8115 12.823 11.8617C12.8302 11.9118 12.8271 11.9629 12.814 12.0119C12.8008 12.0608 12.7778 12.1066 12.7464 12.1464C12.715 12.1861 12.6758 12.2191 12.6312 12.2433C12.4229 12.3433 12.2085 12.43 11.9891 12.5027Z" fill="white" stroke="white" stroke-width="0.4"/>
    <path d="M10.445 6.55486C10.4451 6.65714 10.405 6.75535 10.3335 6.82849C10.262 6.90162 10.1647 6.94386 10.0624 6.94616C9.96081 6.94504 9.86365 6.90452 9.79143 6.83315C9.71921 6.76178 9.67757 6.66515 9.67529 6.56366C9.67529 6.4618 9.71547 6.36406 9.78711 6.29162C9.85875 6.21919 9.95607 6.17792 10.058 6.17676C10.1591 6.17673 10.2563 6.21629 10.3286 6.28695C10.4009 6.35762 10.4427 6.45378 10.445 6.55486Z" fill="white" stroke="white" stroke-width="0.4"/>
</svg>
