<svg width="24" height="25" viewBox="0 0 24 25" fill="none" xmlns="http://www.w3.org/2000/svg">
    <path fill-rule="evenodd" clip-rule="evenodd" d="M6.30377 4.49792C6.30379 4.49791 6.30404 4.49817 6.30444 4.49878L6.30377 4.49792ZM6.34683 4.56621L8.3541 7.76003C8.11154 7.98999 7.84697 8.21777 7.56223 8.46291C7.3175 8.67359 7.05788 8.89711 6.78454 9.14585C6.10705 9.76238 5.97619 10.7539 6.41466 11.5256C8.73326 15.6062 11.8957 17.463 13.3107 18.1296C14.1632 18.5312 15.0894 18.2143 15.605 17.558L16.994 15.7899C16.9949 15.7888 16.9948 15.7891 16.9943 15.7894C16.9942 15.7895 16.9952 15.7889 16.9973 15.7885C16.9994 15.7882 17.0015 15.7882 17.0032 15.7885C17.0045 15.7888 17.0062 15.7892 17.0091 15.791C17.8185 16.2906 18.9477 16.9694 19.985 17.5442C19.7987 18.6688 19.3708 19.324 18.8989 19.7246C18.4035 20.1451 17.7628 20.3665 17.0482 20.4464C15.6213 20.606 14.1728 20.1731 13.8516 20.0677C13.4971 19.8864 11.5536 18.8634 9.47717 17.2056C7.33609 15.4961 5.18918 13.2178 4.36809 10.6049C3.768 8.69529 3.99428 7.35151 4.46593 6.42459C4.92188 5.52852 5.65972 4.92034 6.34683 4.56621ZM5.62071 2.67596C6.56664 2.22731 7.54477 2.69509 8.00037 3.42002L10.1003 6.76123C10.5248 7.4367 10.5539 8.42415 9.86374 9.10058C9.56796 9.39048 9.15645 9.74679 8.77351 10.0784C8.56331 10.2604 8.36173 10.4349 8.19262 10.5869C10.1881 14.0617 12.856 15.6693 14.0694 16.2572L15.4201 14.5378C16.0579 13.726 17.1934 13.5363 18.0581 14.07C18.858 14.5636 19.9638 15.2281 20.966 15.7829C21.6343 16.153 22.1124 16.9244 21.977 17.7954C21.7337 19.3596 21.0982 20.499 20.1926 21.2678C19.3022 22.0237 18.2415 22.3444 17.2698 22.453C15.3585 22.6668 13.5305 22.088 13.1967 21.9763C13.1122 21.9479 13.042 21.9181 12.9666 21.8798C12.6083 21.6977 10.4963 20.5965 8.23016 18.7872C5.98759 16.9967 3.45851 14.4066 2.45514 11.2137C1.71811 8.86823 1.93614 6.96651 2.68011 5.5044C3.41105 4.06791 4.59475 3.16257 5.62071 2.67596Z" fill="#4A4A4A"/>
</svg>
