<svg width="23" height="24" viewBox="0 0 23 24" fill="none" xmlns="http://www.w3.org/2000/svg">
    <path d="M11.5 3.75C9.93629 3.75 8.4077 4.23385 7.10753 5.14038C5.80735 6.0469 4.79399 7.33537 4.19558 8.84286C3.59718 10.3504 3.44061 12.0092 3.74567 13.6095C4.05073 15.2098 4.80373 16.6798 5.90944 17.8336C7.01515 18.9874 8.42391 19.7731 9.95757 20.0915C11.4912 20.4098 13.0809 20.2464 14.5256 19.622C15.9703 18.9976 17.2051 17.9402 18.0738 16.5835C18.9426 15.2267 19.4063 13.6317 19.4063 12C19.4063 9.81196 18.5733 7.71354 17.0906 6.16637C15.6079 4.61919 13.5969 3.75 11.5 3.75Z" stroke="#9A9A9A" stroke-width="1.5" stroke-miterlimit="10"/>
    <path d="M8.98438 9.48367C8.98438 9.48367 9.02211 8.66336 9.8635 7.95696C10.3626 7.53743 10.9609 7.41602 11.5 7.40758C11.991 7.40102 12.4294 7.48586 12.6918 7.61618C13.141 7.8393 14.0156 8.38399 14.0156 9.54227C14.0156 10.761 13.252 11.3146 12.3818 11.9235C11.5117 12.5324 11.2754 13.1934 11.2754 13.8763" stroke="#9A9A9A" stroke-width="1.3125" stroke-miterlimit="10" stroke-linecap="round"/>
    <path d="M11.2305 17.2505C11.7267 17.2505 12.1289 16.8308 12.1289 16.313C12.1289 15.7952 11.7267 15.3755 11.2305 15.3755C10.7343 15.3755 10.332 15.7952 10.332 16.313C10.332 16.8308 10.7343 17.2505 11.2305 17.2505Z" fill="#9A9A9A"/>
</svg>
