<svg width="48" height="44" viewBox="0 0 48 44" fill="none" xmlns="http://www.w3.org/2000/svg">
    <g filter="url(#filter0_d_590_17060)">
        <path d="M4.50195 20.0015C4.50195 30.7705 13.2329 39.5015 24.0019 39.5015C34.771 39.5015 43.5019 30.7705 43.5019 20.0015C43.5019 9.2324 34.771 0.501465 24.0019 0.501465C13.2329 0.501465 4.50195 9.2324 4.50195 20.0015ZM28.6304 20.0015L20.6916 12.0618C20.4222 11.7782 20.2742 11.4006 20.2792 11.0094C20.2842 10.6183 20.4418 10.2446 20.7184 9.96796C20.995 9.69136 21.3688 9.53375 21.7599 9.52874C22.151 9.52374 22.5287 9.67172 22.8123 9.94115L31.8123 18.9412C32.0934 19.2224 32.2513 19.6038 32.2513 20.0015C32.2513 20.3991 32.0934 20.7805 31.8123 21.0618L22.8123 30.0618C22.5287 30.3312 22.151 30.4792 21.7599 30.4742C21.3688 30.4692 20.995 30.3116 20.7184 30.035C20.4418 29.7584 20.2842 29.3847 20.2792 28.9935C20.2742 28.6024 20.4222 28.2247 20.6916 27.9412L28.6304 20.0015Z"
              fill="white"/>
    </g>
    <defs>
        <filter id="filter0_d_590_17060" x="0.501953" y="0.501465" width="47" height="47" filterUnits="userSpaceOnUse"
                color-interpolation-filters="sRGB">
            <feFlood flood-opacity="0" result="BackgroundImageFix"/>
            <feColorMatrix in="SourceAlpha" type="matrix" values="0 0 0 0 0 0 0 0 0 0 0 0 0 0 0 0 0 0 127 0"
                           result="hardAlpha"/>
            <feOffset dy="4"/>
            <feGaussianBlur stdDeviation="2"/>
            <feComposite in2="hardAlpha" operator="out"/>
            <feColorMatrix type="matrix" values="0 0 0 0 0 0 0 0 0 0 0 0 0 0 0 0 0 0 0.25 0"/>
            <feBlend mode="normal" in2="BackgroundImageFix" result="effect1_dropShadow_590_17060"/>
            <feBlend mode="normal" in="SourceGraphic" in2="effect1_dropShadow_590_17060" result="shape"/>
        </filter>
    </defs>
</svg>
