<svg width="16" height="16" viewBox="0 0 16 16" fill="none" xmlns="http://www.w3.org/2000/svg">
    <mask id="path-1-outside-1_511_16374" maskUnits="userSpaceOnUse" x="0.333496" y="0.333496" width="15" height="15"
          fill="black">
        <rect fill="white" x="0.333496" y="0.333496" width="15" height="15"/>
        <path d="M5.76999 14.6742C5.61805 14.6691 5.46866 14.6337 5.3306 14.57C5.19254 14.5063 5.06861 14.4157 4.96607 14.3035L4.70942 14.0454C4.53831 13.8729 4.36042 13.695 4.18252 13.5225C4.12362 13.4773 4.08269 13.4126 4.06703 13.3399C4.05136 13.2673 4.06197 13.1915 4.09697 13.126C4.15342 12.9845 4.17507 12.8316 4.16008 12.68C4.1451 12.5285 4.09393 12.3827 4.01088 12.2551C3.92782 12.1274 3.81532 12.0216 3.68284 11.9465C3.55036 11.8714 3.40177 11.8292 3.2496 11.8235C3.11736 11.825 2.98673 11.8527 2.86529 11.905C2.81656 11.9254 2.7646 11.9369 2.71184 11.939C2.66893 11.9381 2.62675 11.9277 2.58827 11.9087C2.54979 11.8897 2.51594 11.8625 2.48913 11.829C2.29358 11.6266 2.07223 11.3971 1.84409 11.1852C1.59351 10.9777 1.41482 10.6963 1.3335 10.3812V10.0648C1.40411 9.73613 1.62274 9.49846 1.87669 9.24313C4.3061 6.81483 6.78576 4.33492 9.24233 1.87674C9.49627 1.62142 9.73527 1.40412 10.0571 1.3335H10.3749C10.6958 1.41602 10.9815 1.59987 11.1897 1.85773C11.3635 2.04515 11.5482 2.22577 11.7329 2.40097L11.8374 2.50419C11.888 2.54592 11.9227 2.60375 11.9358 2.66801C11.9489 2.73228 11.9396 2.79909 11.9094 2.8573C11.8278 3.02855 11.8027 3.22126 11.8376 3.40772C11.8725 3.59417 11.9656 3.76474 12.1036 3.89489C12.1858 3.98409 12.2855 4.05544 12.3965 4.1045C12.5074 4.15356 12.6273 4.17929 12.7486 4.1801C12.8888 4.17902 13.0273 4.14993 13.156 4.09454C13.1989 4.07577 13.245 4.06562 13.2918 4.06466C13.3332 4.06622 13.3738 4.07646 13.411 4.09471C13.4482 4.11295 13.4811 4.13881 13.5077 4.17059C13.6761 4.34171 13.8486 4.51419 14.0156 4.67988L14.3171 4.98138C14.7992 5.46487 14.7992 6.0896 14.3171 6.57444L10.0137 10.8647L7.79066 13.0879L6.57663 14.3021C6.47365 14.4146 6.34928 14.5055 6.21078 14.5694C6.07228 14.6333 5.92243 14.6689 5.76999 14.6742ZM3.23466 11.3129C3.44851 11.3126 3.65977 11.3597 3.85325 11.4508C4.04672 11.5419 4.21761 11.6748 4.35363 11.8398C4.49245 12.008 4.59222 12.2048 4.64577 12.4162C4.69931 12.6276 4.70528 12.8482 4.66325 13.0621C4.65386 13.1085 4.65497 13.1563 4.66648 13.2021C4.678 13.2479 4.69963 13.2906 4.72979 13.327C4.98373 13.5986 5.201 13.8077 5.40877 14.006C5.50857 14.1029 5.64176 14.1579 5.78086 14.1595C5.90517 14.1591 6.02446 14.1104 6.11356 14.0237C6.3254 13.8227 6.52095 13.6162 6.73959 13.3976C6.8265 13.3066 6.91612 13.2156 7.01118 13.126L7.11574 13.0214L7.00575 12.9209L6.9202 12.8448C6.85637 12.7892 6.79662 12.7362 6.7423 12.6792C6.71586 12.6563 6.69434 12.6283 6.67906 12.5968C6.66378 12.5654 6.65505 12.5311 6.65339 12.4962C6.65174 12.4613 6.65721 12.4264 6.66946 12.3936C6.68171 12.3609 6.70048 12.3309 6.72465 12.3057C6.74731 12.2816 6.77467 12.2624 6.80503 12.2493C6.8354 12.2363 6.86812 12.2295 6.90118 12.2296C6.97869 12.2312 7.05242 12.2634 7.10624 12.3193C7.16599 12.3763 7.22302 12.4374 7.27734 12.4958L7.34796 12.5705L7.44845 12.6764L12.6576 7.46537L8.54297 3.3598L3.33243 8.56951L3.43835 8.67001L3.50761 8.73656C3.56465 8.78952 3.62304 8.84385 3.67872 8.90089C3.72951 8.94934 3.75958 9.01557 3.76262 9.0857C3.76566 9.15584 3.74143 9.22443 3.69501 9.27708C3.67271 9.30125 3.64561 9.3205 3.61545 9.3336C3.58528 9.34669 3.55272 9.35335 3.51983 9.35314C3.44222 9.35074 3.36863 9.31808 3.31478 9.26215C3.2591 9.20918 3.20478 9.15078 3.14775 9.08831L3.05812 8.99324L2.96306 8.88595L2.60048 9.24856L2.04372 9.80811C1.98197 9.85907 1.93225 9.92307 1.89811 9.9955C1.86398 10.0679 1.84628 10.147 1.84628 10.2271C1.84628 10.3072 1.86398 10.3862 1.89811 10.4587C1.93225 10.5311 1.98197 10.5951 2.04372 10.6461C2.11569 10.7208 2.19038 10.7941 2.26371 10.8674C2.38049 10.9829 2.49999 11.101 2.61406 11.2205C2.64707 11.2612 2.68837 11.2943 2.7352 11.3178C2.78204 11.3412 2.83333 11.3543 2.88566 11.3564C2.9269 11.3562 2.9678 11.3488 3.00652 11.3346C3.06462 11.3199 3.12451 11.3135 3.18441 11.3156H3.23466V11.3129ZM10.2228 1.836C10.095 1.8353 9.97196 1.88395 9.87922 1.97181C9.66873 2.17417 9.46368 2.37924 9.26542 2.58839C9.18394 2.67123 9.10246 2.75544 9.01962 2.83828L8.92049 2.93878L13.0664 7.08645L13.4032 6.74964C13.5906 6.56222 13.7847 6.36937 13.9749 6.17516C14.0327 6.12418 14.079 6.06149 14.1107 5.99124C14.1424 5.92099 14.1588 5.8448 14.1588 5.76773C14.1588 5.69065 14.1424 5.61446 14.1107 5.54422C14.079 5.47397 14.0327 5.41127 13.9749 5.36029C13.778 5.15794 13.5675 4.94471 13.3488 4.73692C13.2844 4.67975 13.2014 4.6479 13.1153 4.64729C13.0986 4.64528 13.0817 4.64528 13.065 4.64729C12.9683 4.66513 12.8701 4.67422 12.7717 4.67445C12.5591 4.67574 12.3488 4.63031 12.1557 4.54136C11.9625 4.45242 11.7913 4.32214 11.6541 4.15972C11.5154 3.98938 11.416 3.79055 11.363 3.5774C11.3099 3.36426 11.3045 3.14203 11.3472 2.92656C11.356 2.88205 11.3548 2.83612 11.3435 2.79216C11.3322 2.7482 11.3112 2.70734 11.282 2.67259C11.0661 2.44986 10.8339 2.21355 10.5894 1.98267C10.4912 1.8876 10.3595 1.83493 10.2228 1.836Z"/>
    </mask>
    <path d="M5.76999 14.6742C5.61805 14.6691 5.46866 14.6337 5.3306 14.57C5.19254 14.5063 5.06861 14.4157 4.96607 14.3035L4.70942 14.0454C4.53831 13.8729 4.36042 13.695 4.18252 13.5225C4.12362 13.4773 4.08269 13.4126 4.06703 13.3399C4.05136 13.2673 4.06197 13.1915 4.09697 13.126C4.15342 12.9845 4.17507 12.8316 4.16008 12.68C4.1451 12.5285 4.09393 12.3827 4.01088 12.2551C3.92782 12.1274 3.81532 12.0216 3.68284 11.9465C3.55036 11.8714 3.40177 11.8292 3.2496 11.8235C3.11736 11.825 2.98673 11.8527 2.86529 11.905C2.81656 11.9254 2.7646 11.9369 2.71184 11.939C2.66893 11.9381 2.62675 11.9277 2.58827 11.9087C2.54979 11.8897 2.51594 11.8625 2.48913 11.829C2.29358 11.6266 2.07223 11.3971 1.84409 11.1852C1.59351 10.9777 1.41482 10.6963 1.3335 10.3812V10.0648C1.40411 9.73613 1.62274 9.49846 1.87669 9.24313C4.3061 6.81483 6.78576 4.33492 9.24233 1.87674C9.49627 1.62142 9.73527 1.40412 10.0571 1.3335H10.3749C10.6958 1.41602 10.9815 1.59987 11.1897 1.85773C11.3635 2.04515 11.5482 2.22577 11.7329 2.40097L11.8374 2.50419C11.888 2.54592 11.9227 2.60375 11.9358 2.66801C11.9489 2.73228 11.9396 2.79909 11.9094 2.8573C11.8278 3.02855 11.8027 3.22126 11.8376 3.40772C11.8725 3.59417 11.9656 3.76474 12.1036 3.89489C12.1858 3.98409 12.2855 4.05544 12.3965 4.1045C12.5074 4.15356 12.6273 4.17929 12.7486 4.1801C12.8888 4.17902 13.0273 4.14993 13.156 4.09454C13.1989 4.07577 13.245 4.06562 13.2918 4.06466C13.3332 4.06622 13.3738 4.07646 13.411 4.09471C13.4482 4.11295 13.4811 4.13881 13.5077 4.17059C13.6761 4.34171 13.8486 4.51419 14.0156 4.67988L14.3171 4.98138C14.7992 5.46487 14.7992 6.0896 14.3171 6.57444L10.0137 10.8647L7.79066 13.0879L6.57663 14.3021C6.47365 14.4146 6.34928 14.5055 6.21078 14.5694C6.07228 14.6333 5.92243 14.6689 5.76999 14.6742ZM3.23466 11.3129C3.44851 11.3126 3.65977 11.3597 3.85325 11.4508C4.04672 11.5419 4.21761 11.6748 4.35363 11.8398C4.49245 12.008 4.59222 12.2048 4.64577 12.4162C4.69931 12.6276 4.70528 12.8482 4.66325 13.0621C4.65386 13.1085 4.65497 13.1563 4.66648 13.2021C4.678 13.2479 4.69963 13.2906 4.72979 13.327C4.98373 13.5986 5.201 13.8077 5.40877 14.006C5.50857 14.1029 5.64176 14.1579 5.78086 14.1595C5.90517 14.1591 6.02446 14.1104 6.11356 14.0237C6.3254 13.8227 6.52095 13.6162 6.73959 13.3976C6.8265 13.3066 6.91612 13.2156 7.01118 13.126L7.11574 13.0214L7.00575 12.9209L6.9202 12.8448C6.85637 12.7892 6.79662 12.7362 6.7423 12.6792C6.71586 12.6563 6.69434 12.6283 6.67906 12.5968C6.66378 12.5654 6.65505 12.5311 6.65339 12.4962C6.65174 12.4613 6.65721 12.4264 6.66946 12.3936C6.68171 12.3609 6.70048 12.3309 6.72465 12.3057C6.74731 12.2816 6.77467 12.2624 6.80503 12.2493C6.8354 12.2363 6.86812 12.2295 6.90118 12.2296C6.97869 12.2312 7.05242 12.2634 7.10624 12.3193C7.16599 12.3763 7.22302 12.4374 7.27734 12.4958L7.34796 12.5705L7.44845 12.6764L12.6576 7.46537L8.54297 3.3598L3.33243 8.56951L3.43835 8.67001L3.50761 8.73656C3.56465 8.78952 3.62304 8.84385 3.67872 8.90089C3.72951 8.94934 3.75958 9.01557 3.76262 9.0857C3.76566 9.15584 3.74143 9.22443 3.69501 9.27708C3.67271 9.30125 3.64561 9.3205 3.61545 9.3336C3.58528 9.34669 3.55272 9.35335 3.51983 9.35314C3.44222 9.35074 3.36863 9.31808 3.31478 9.26215C3.2591 9.20918 3.20478 9.15078 3.14775 9.08831L3.05812 8.99324L2.96306 8.88595L2.60048 9.24856L2.04372 9.80811C1.98197 9.85907 1.93225 9.92307 1.89811 9.9955C1.86398 10.0679 1.84628 10.147 1.84628 10.2271C1.84628 10.3072 1.86398 10.3862 1.89811 10.4587C1.93225 10.5311 1.98197 10.5951 2.04372 10.6461C2.11569 10.7208 2.19038 10.7941 2.26371 10.8674C2.38049 10.9829 2.49999 11.101 2.61406 11.2205C2.64707 11.2612 2.68837 11.2943 2.7352 11.3178C2.78204 11.3412 2.83333 11.3543 2.88566 11.3564C2.9269 11.3562 2.9678 11.3488 3.00652 11.3346C3.06462 11.3199 3.12451 11.3135 3.18441 11.3156H3.23466V11.3129ZM10.2228 1.836C10.095 1.8353 9.97196 1.88395 9.87922 1.97181C9.66873 2.17417 9.46368 2.37924 9.26542 2.58839C9.18394 2.67123 9.10246 2.75544 9.01962 2.83828L8.92049 2.93878L13.0664 7.08645L13.4032 6.74964C13.5906 6.56222 13.7847 6.36937 13.9749 6.17516C14.0327 6.12418 14.079 6.06149 14.1107 5.99124C14.1424 5.92099 14.1588 5.8448 14.1588 5.76773C14.1588 5.69065 14.1424 5.61446 14.1107 5.54422C14.079 5.47397 14.0327 5.41127 13.9749 5.36029C13.778 5.15794 13.5675 4.94471 13.3488 4.73692C13.2844 4.67975 13.2014 4.6479 13.1153 4.64729C13.0986 4.64528 13.0817 4.64528 13.065 4.64729C12.9683 4.66513 12.8701 4.67422 12.7717 4.67445C12.5591 4.67574 12.3488 4.63031 12.1557 4.54136C11.9625 4.45242 11.7913 4.32214 11.6541 4.15972C11.5154 3.98938 11.416 3.79055 11.363 3.5774C11.3099 3.36426 11.3045 3.14203 11.3472 2.92656C11.356 2.88205 11.3548 2.83612 11.3435 2.79216C11.3322 2.7482 11.3112 2.70734 11.282 2.67259C11.0661 2.44986 10.8339 2.21355 10.5894 1.98267C10.4912 1.8876 10.3595 1.83493 10.2228 1.836Z"
          fill="#8B8B8B"/>
    <path d="M5.76999 14.6742C5.61805 14.6691 5.46866 14.6337 5.3306 14.57C5.19254 14.5063 5.06861 14.4157 4.96607 14.3035L4.70942 14.0454C4.53831 13.8729 4.36042 13.695 4.18252 13.5225C4.12362 13.4773 4.08269 13.4126 4.06703 13.3399C4.05136 13.2673 4.06197 13.1915 4.09697 13.126C4.15342 12.9845 4.17507 12.8316 4.16008 12.68C4.1451 12.5285 4.09393 12.3827 4.01088 12.2551C3.92782 12.1274 3.81532 12.0216 3.68284 11.9465C3.55036 11.8714 3.40177 11.8292 3.2496 11.8235C3.11736 11.825 2.98673 11.8527 2.86529 11.905C2.81656 11.9254 2.7646 11.9369 2.71184 11.939C2.66893 11.9381 2.62675 11.9277 2.58827 11.9087C2.54979 11.8897 2.51594 11.8625 2.48913 11.829C2.29358 11.6266 2.07223 11.3971 1.84409 11.1852C1.59351 10.9777 1.41482 10.6963 1.3335 10.3812V10.0648C1.40411 9.73613 1.62274 9.49846 1.87669 9.24313C4.3061 6.81483 6.78576 4.33492 9.24233 1.87674C9.49627 1.62142 9.73527 1.40412 10.0571 1.3335H10.3749C10.6958 1.41602 10.9815 1.59987 11.1897 1.85773C11.3635 2.04515 11.5482 2.22577 11.7329 2.40097L11.8374 2.50419C11.888 2.54592 11.9227 2.60375 11.9358 2.66801C11.9489 2.73228 11.9396 2.79909 11.9094 2.8573C11.8278 3.02855 11.8027 3.22126 11.8376 3.40772C11.8725 3.59417 11.9656 3.76474 12.1036 3.89489C12.1858 3.98409 12.2855 4.05544 12.3965 4.1045C12.5074 4.15356 12.6273 4.17929 12.7486 4.1801C12.8888 4.17902 13.0273 4.14993 13.156 4.09454C13.1989 4.07577 13.245 4.06562 13.2918 4.06466C13.3332 4.06622 13.3738 4.07646 13.411 4.09471C13.4482 4.11295 13.4811 4.13881 13.5077 4.17059C13.6761 4.34171 13.8486 4.51419 14.0156 4.67988L14.3171 4.98138C14.7992 5.46487 14.7992 6.0896 14.3171 6.57444L10.0137 10.8647L7.79066 13.0879L6.57663 14.3021C6.47365 14.4146 6.34928 14.5055 6.21078 14.5694C6.07228 14.6333 5.92243 14.6689 5.76999 14.6742ZM3.23466 11.3129C3.44851 11.3126 3.65977 11.3597 3.85325 11.4508C4.04672 11.5419 4.21761 11.6748 4.35363 11.8398C4.49245 12.008 4.59222 12.2048 4.64577 12.4162C4.69931 12.6276 4.70528 12.8482 4.66325 13.0621C4.65386 13.1085 4.65497 13.1563 4.66648 13.2021C4.678 13.2479 4.69963 13.2906 4.72979 13.327C4.98373 13.5986 5.201 13.8077 5.40877 14.006C5.50857 14.1029 5.64176 14.1579 5.78086 14.1595C5.90517 14.1591 6.02446 14.1104 6.11356 14.0237C6.3254 13.8227 6.52095 13.6162 6.73959 13.3976C6.8265 13.3066 6.91612 13.2156 7.01118 13.126L7.11574 13.0214L7.00575 12.9209L6.9202 12.8448C6.85637 12.7892 6.79662 12.7362 6.7423 12.6792C6.71586 12.6563 6.69434 12.6283 6.67906 12.5968C6.66378 12.5654 6.65505 12.5311 6.65339 12.4962C6.65174 12.4613 6.65721 12.4264 6.66946 12.3936C6.68171 12.3609 6.70048 12.3309 6.72465 12.3057C6.74731 12.2816 6.77467 12.2624 6.80503 12.2493C6.8354 12.2363 6.86812 12.2295 6.90118 12.2296C6.97869 12.2312 7.05242 12.2634 7.10624 12.3193C7.16599 12.3763 7.22302 12.4374 7.27734 12.4958L7.34796 12.5705L7.44845 12.6764L12.6576 7.46537L8.54297 3.3598L3.33243 8.56951L3.43835 8.67001L3.50761 8.73656C3.56465 8.78952 3.62304 8.84385 3.67872 8.90089C3.72951 8.94934 3.75958 9.01557 3.76262 9.0857C3.76566 9.15584 3.74143 9.22443 3.69501 9.27708C3.67271 9.30125 3.64561 9.3205 3.61545 9.3336C3.58528 9.34669 3.55272 9.35335 3.51983 9.35314C3.44222 9.35074 3.36863 9.31808 3.31478 9.26215C3.2591 9.20918 3.20478 9.15078 3.14775 9.08831L3.05812 8.99324L2.96306 8.88595L2.60048 9.24856L2.04372 9.80811C1.98197 9.85907 1.93225 9.92307 1.89811 9.9955C1.86398 10.0679 1.84628 10.147 1.84628 10.2271C1.84628 10.3072 1.86398 10.3862 1.89811 10.4587C1.93225 10.5311 1.98197 10.5951 2.04372 10.6461C2.11569 10.7208 2.19038 10.7941 2.26371 10.8674C2.38049 10.9829 2.49999 11.101 2.61406 11.2205C2.64707 11.2612 2.68837 11.2943 2.7352 11.3178C2.78204 11.3412 2.83333 11.3543 2.88566 11.3564C2.9269 11.3562 2.9678 11.3488 3.00652 11.3346C3.06462 11.3199 3.12451 11.3135 3.18441 11.3156H3.23466V11.3129ZM10.2228 1.836C10.095 1.8353 9.97196 1.88395 9.87922 1.97181C9.66873 2.17417 9.46368 2.37924 9.26542 2.58839C9.18394 2.67123 9.10246 2.75544 9.01962 2.83828L8.92049 2.93878L13.0664 7.08645L13.4032 6.74964C13.5906 6.56222 13.7847 6.36937 13.9749 6.17516C14.0327 6.12418 14.079 6.06149 14.1107 5.99124C14.1424 5.92099 14.1588 5.8448 14.1588 5.76773C14.1588 5.69065 14.1424 5.61446 14.1107 5.54422C14.079 5.47397 14.0327 5.41127 13.9749 5.36029C13.778 5.15794 13.5675 4.94471 13.3488 4.73692C13.2844 4.67975 13.2014 4.6479 13.1153 4.64729C13.0986 4.64528 13.0817 4.64528 13.065 4.64729C12.9683 4.66513 12.8701 4.67422 12.7717 4.67445C12.5591 4.67574 12.3488 4.63031 12.1557 4.54136C11.9625 4.45242 11.7913 4.32214 11.6541 4.15972C11.5154 3.98938 11.416 3.79055 11.363 3.5774C11.3099 3.36426 11.3045 3.14203 11.3472 2.92656C11.356 2.88205 11.3548 2.83612 11.3435 2.79216C11.3322 2.7482 11.3112 2.70734 11.282 2.67259C11.0661 2.44986 10.8339 2.21355 10.5894 1.98267C10.4912 1.8876 10.3595 1.83493 10.2228 1.836Z"
          stroke="#8B8B8B" stroke-width="0.4" stroke-linejoin="round" mask="url(#path-1-outside-1_511_16374)"/>
    <path d="M7.57339 8.6451C7.58139 8.64307 7.58966 8.64202 7.59801 8.64202C7.73045 8.64202 7.85005 8.68062 7.95706 8.76079C8.0621 8.83948 8.15069 8.9549 8.22942 9.10236L8.22988 9.10323L8.22988 9.10323L8.28967 9.21793L8.29524 9.08944L8.29536 9.08675L8.29539 9.08675C8.30939 8.88783 8.36743 8.72598 8.4891 8.60492C8.60893 8.48569 8.77823 8.41843 8.98893 8.38141L8.99083 8.38108L8.99084 8.3811L9.13188 8.35912L9.00006 8.30124L7.57339 8.6451ZM7.57339 8.6451C7.49393 8.64741 7.41509 8.66007 7.33885 8.68278C7.33876 8.68281 7.33867 8.68283 7.33858 8.68286L7.25218 8.70811M7.57339 8.6451L7.25218 8.70811M7.25218 8.70811L7.29841 8.62997L7.29845 8.62999L7.29986 8.62745C7.33299 8.56756 7.36762 8.51221 7.40335 8.45659C7.47271 8.36239 7.52365 8.25592 7.55348 8.14279C7.55532 8.1358 7.5564 8.12863 7.5567 8.12141C7.5614 8.00744 7.54367 7.89367 7.50455 7.78655C7.50265 7.77966 7.50077 7.77287 7.4989 7.76614C7.48588 7.71917 7.47385 7.6758 7.46539 7.63139L7.4654 7.63139L7.46512 7.62999L7.45063 7.5594L7.52137 7.56716C7.56166 7.57436 7.60265 7.58473 7.64708 7.59597C7.65543 7.59808 7.6639 7.60022 7.67251 7.60238C7.7628 7.631 7.85632 7.64818 7.95089 7.65352L7.95088 7.65367H7.95652H8.00676C8.01582 7.65367 8.02484 7.65244 8.03357 7.65001C8.14307 7.61955 8.24575 7.56849 8.33612 7.49959C8.34814 7.49176 8.35995 7.48399 8.37166 7.4763C8.41395 7.44849 8.45486 7.42159 8.49949 7.3958C8.49949 7.3958 8.49949 7.3958 8.4995 7.3958L8.57894 7.3499L8.55717 7.44252L8.55705 7.44305C8.51242 7.63769 8.51861 7.81165 8.59609 7.96139C8.67331 8.11064 8.81275 8.21918 8.99998 8.3012L7.25218 8.70811ZM8.39232 10.3359L8.39232 10.336L8.39729 10.3359C8.42065 10.3354 8.44394 10.3332 8.46696 10.3292C8.51697 10.3215 8.57829 10.3044 8.63506 10.2551C8.69136 10.2062 8.73338 10.1341 8.76266 10.0347L8.76268 10.0347L8.76308 10.0332L8.84306 9.74581C8.8572 9.69695 8.87193 9.64712 8.88679 9.59679C8.91829 9.49019 8.95045 9.38134 8.97921 9.27462L8.97931 9.27465L8.9803 9.27019C8.99088 9.22234 9.01491 9.17852 9.04955 9.14387C9.08419 9.10922 9.12801 9.08519 9.17585 9.07461L9.17589 9.07482L9.18206 9.07303C9.33681 9.02823 9.49265 8.97813 9.64294 8.92982L9.64792 8.92822L9.64795 8.92831L9.65206 8.92679L9.94294 8.81904C10.0439 8.78729 10.1148 8.73963 10.1615 8.67891C10.2083 8.6181 10.2232 8.55403 10.2297 8.50556L10.2297 8.50554C10.24 8.4296 10.2259 8.35235 10.1895 8.28492C10.1544 8.21996 10.1004 8.16733 10.0347 8.134C9.80379 7.97559 9.57938 7.82053 9.35656 7.65645C9.32926 7.63425 9.30662 7.60685 9.28994 7.57584C9.27364 7.54551 9.26337 7.51232 9.25968 7.47811V7.47777V7.47711V7.47645V7.47579V7.47512V7.47446V7.4738V7.47314V7.47248V7.47182V7.47116V7.4705V7.46984V7.46918V7.46851V7.46785V7.46719V7.46653V7.46587V7.46521V7.46455V7.46389V7.46323V7.46256V7.4619V7.46124V7.46058V7.45992V7.45926V7.4586V7.45793V7.45727V7.45661V7.45595V7.45529V7.45463V7.45397V7.4533V7.45264V7.45198V7.45132V7.45066V7.45V7.44933V7.44867V7.44801V7.44735V7.44669V7.44603V7.44536V7.4447V7.44404V7.44338V7.44272V7.44205V7.44139V7.44073V7.44007V7.43941V7.43875V7.43808V7.43742V7.43676V7.4361V7.43544V7.43477V7.43411V7.43345V7.43279V7.43213V7.43146V7.4308V7.43014V7.42948V7.42882V7.42815V7.42749V7.42683V7.42617V7.42551V7.42484V7.42418V7.42352V7.42286V7.4222V7.42153V7.42087V7.42021V7.41955V7.41888V7.41822V7.41756V7.4169V7.41624V7.41557V7.41491V7.41425V7.41359V7.41293V7.41226V7.4116V7.41094V7.41028V7.40962V7.40895V7.40829V7.40763V7.40697V7.40631V7.40564V7.40498V7.40432V7.40366V7.403V7.40233V7.40167V7.40101V7.40035V7.39969V7.39902V7.39836V7.3977V7.39704V7.39638V7.39571V7.39505V7.39439V7.39373V7.39307V7.3924V7.39174V7.39108V7.39042V7.38976V7.38909V7.38843V7.38777V7.38711V7.38645V7.38579V7.38512V7.38446V7.3838V7.38314V7.38248V7.38182V7.38115V7.38049V7.37983V7.37917V7.37851V7.37785V7.37718V7.37652V7.37586V7.3752V7.37454V7.37388V7.37321V7.37255V7.37189V7.37123V7.37057V7.36991V7.36925V7.36858V7.36792V7.36726V7.3666V7.36594V7.36528V7.36462V7.36396V7.36329V7.36263V7.36197V7.36131V7.36065V7.35999V7.35933V7.35867V7.35801V7.35735V7.35668V7.35602V7.35536V7.3547V7.35404V7.35338V7.35272V7.35206V7.3514V7.35074V7.35008V7.34942V7.34876V7.3481V7.34743V7.34677V7.34611V7.34545V7.34479V7.34413V7.34347V7.34281V7.34215V7.34149V7.34083V7.34017V7.33951V7.33885V7.33819V7.33753V7.33687V7.33621V7.33555V7.33489V7.33423V7.33357V7.33291V7.33225V7.33159V7.33093V7.33027V7.32961V7.32895V7.3283V7.32764V7.32698V7.32632V7.32566V7.325V7.32434V7.32368V7.32302V7.32236V7.3217V7.32104V7.32038V7.31973V7.31907V7.31841V7.31775V7.31709V7.31643V7.31577V7.31511V7.31446V7.3138V7.31314V7.31248V7.31182V7.31116V7.31051V7.30985V7.30919V7.30853V7.30787V7.30722V7.30656V7.3059V7.30524V7.30458V7.30393V7.30327V7.30261V7.30195V7.30129V7.30064V7.29998V7.29932V7.29867V7.29801V7.29735V7.29669V7.29604V7.29538V7.29472V7.29407V7.29341V7.29275V7.29209V7.29144V7.29078V7.29012V7.28947V7.28881V7.28815V7.2875V7.28684V7.28619V7.28553V7.28487V7.28422V7.28356V7.2829V7.28225V7.28159V7.28094V7.28028V7.27963V7.27897V7.27831V7.27766V7.277V7.27635V7.27569V7.27504V7.27438V7.27373V7.27307V7.27242V7.27176V7.27111V7.27045V7.2698V7.26914V7.26849V7.26783V7.26718V7.26653V7.26587V7.26522V7.26456V7.26391V7.26325V7.2626V7.26195V7.26129V7.26064V7.25999V7.25933V7.25868V7.25802V7.25737V7.25672V7.25606V7.25541V7.25476V7.25411V7.25345V7.2528V7.25215V7.25149V7.25084V7.25019V7.24954V7.24888V7.24823V7.24758V7.24693V7.24627V7.24562V7.24497V7.24432V7.24367V7.24302V7.24236V7.24171V7.24106V7.24041V7.23976V7.23911V7.23846V7.2378V7.23715V7.2365V7.23585V7.2352V7.23455V7.2339V7.23325V7.2326V7.23195V7.2313V7.23065V7.23V7.22935V7.2287V7.22805V7.2274V7.22675V7.2261V7.22545V7.2248V7.22415V7.2235V7.22285V7.2222V7.22155V7.22091V7.22026V7.21961V7.21896V7.21831V7.21766V7.21701V7.21637V7.21572V7.21507V7.21442V7.21377V7.21313V7.21248V7.21183V7.21118V7.21054V7.20989V7.20924V7.20859V7.20795V7.2073V7.20665V7.20601V7.20536V7.20471V7.20407V7.20342V7.20278V7.20213V7.20148V7.20084V7.20019V7.19955V7.1989V7.19825V7.19761V7.19696V7.19632V7.19567V7.19503V7.19438V7.19374V7.19309V7.19245V7.1918V7.19116V7.19052V7.18987V7.18923V7.18858V7.18794V7.1873V7.18665V7.18601V7.18537V7.18472V7.18408V7.18344V7.18279V7.18215V7.18151V7.18086V7.18022V7.17958V7.17894V7.17829V7.17765V7.17701V7.17637V7.17573V7.17508V7.17444V7.1738V7.17316V7.17252V7.17188V7.17124V7.1706V7.16995V7.16931V7.16867V7.16803V7.16739V7.16675V7.16611V7.16547V7.16483V7.16419V7.16355V7.16291V7.16227V7.16163V7.16099V7.16036V7.15972V7.15908V7.15844V7.1578V7.15716V7.15652V7.15589V7.15525V7.15461V7.15397V7.15333V7.1527V7.15206V7.15142V7.15078V7.15015V7.14951V7.14887V7.14824V7.1476V7.14735V7.14711V7.14686V7.14661V7.14637V7.14612V7.14587V7.14563V7.14538V7.14513V7.14489V7.14464V7.14439V7.14415V7.1439V7.14365V7.14341V7.14316V7.14291V7.14267V7.14242V7.14217V7.14192V7.14168V7.14143V7.14118V7.14094V7.14069V7.14044V7.1402V7.13995V7.1397V7.13946V7.13921V7.13896V7.13872V7.13847V7.13822V7.13798V7.13773V7.13748V7.13724V7.13699V7.13674V7.1365V7.13625V7.136V7.13576V7.13551V7.13526V7.13502V7.13477V7.13452V7.13428V7.13403V7.13378V7.13354V7.13329V7.13304V7.1328V7.13255V7.1323V7.13206V7.13181V7.13156V7.13132V7.13107V7.13082V7.13058V7.13033V7.13008V7.12984V7.12959V7.12934V7.1291V7.12885V7.1286V7.12836V7.12811V7.12786V7.12762V7.12737V7.12712V7.12688V7.12663V7.12638V7.12614V7.12589V7.12564V7.1254V7.12515V7.1249V7.12466V7.12441V7.12416V7.12392V7.12367V7.12342V7.12318V7.12293V7.12268V7.12244V7.12219V7.12194V7.1217V7.12145V7.1212V7.12096V7.12071V7.12046V7.12022V7.11997V7.11972V7.11948V7.11923V7.11898V7.11874V7.11849V7.11824V7.118V7.11775V7.1175V7.11726V7.11701V7.11676V7.11652V7.11627V7.11602V7.11578V7.11553V7.11528V7.11504V7.11479V7.11454V7.1143V7.11405V7.1138V7.11356V7.11331V7.11306V7.11282V7.11257V7.11232V7.11208V7.11183V7.11158V7.11134V7.11109V7.11084V7.1106V7.11035V7.1101V7.10986V7.10961V7.10936V7.10912V7.10887V7.10862V7.10838V7.10813V7.10788V7.10764V7.10739V7.10714V7.1069V7.10665V7.1064V7.10616V7.10591V7.10566V7.10542V7.10517V7.10492V7.10468V7.10443V7.10418V7.10394V7.10369V7.10344V7.1032V7.10295V7.1027V7.10246V7.10221V7.10196V7.10171V7.10147V7.10122V7.10097V7.10073V7.10048V7.10023V7.09999V7.09974V7.09949V7.09925V7.099V7.09875V7.09851V7.09826V7.09801V7.09777V7.09752V7.09727V7.09703V7.09678V7.09653V7.09629V7.09604V7.09579V7.09555V7.0953V7.09505V7.09481V7.09456V7.09431V7.09407V7.09382V7.09357V7.09333V7.09308V7.09283V7.09259V7.09234V7.09209V7.09185V7.0916V7.09135V7.09111V7.09086V7.09061V7.09037V7.09012V7.08987V7.08963V7.08938V7.08913V7.08889V7.08864V7.08839V7.08815V7.0879V7.08765V7.08741V7.08716V7.08691V7.08667V7.08642V7.08617V7.08593V7.08568V7.08543V7.08519V7.08494V7.08469V7.08445V7.0842V7.08395V7.08371V7.08346V7.08321V7.08297V7.08272V7.08247V7.08223V7.08198V7.08173V7.08149V7.08124V7.08099V7.08075V7.0805V7.08025V7.08001V7.07976V7.07951V7.07927V7.07902V7.07877V7.07853V7.07828V7.07803V7.07779V7.07754V7.07729V7.07705V7.0768V7.07655V7.07631V7.07606V7.07581V7.07557V7.07532V7.07507V7.07483V7.07458V7.07433V7.07409V7.07384V7.07359V7.07335V7.0731V7.07285V7.07261V7.07236V7.07211V7.07187V7.07162V7.07137V7.07113V7.07088V7.07063V7.07039V7.07014V7.06989V7.06965V7.0694V7.06915V7.06891V7.06866V7.06841V7.06817V7.06792V7.06767V7.06743V7.06718V7.06693V7.06669V7.06644V7.06619V7.06595V7.0657V7.06545V7.06521V7.06496V7.06471V7.06447V7.06422V7.06397V7.06373V7.06348V7.06323V7.06299V7.06274V7.06249V7.06225V7.062V7.06175V7.06151V7.06126V7.06101V7.06076V7.06052V7.06027V7.06002V7.05978V7.05953V7.05928V7.05904V7.05879V7.05854V7.0583V7.05805V7.0578V7.05756V7.05731V7.05706V7.05682V7.05657V7.05632V7.05608V7.05583V7.05558V7.05534V7.05509V7.05484V7.0546V7.05435V7.0541V7.05386V7.05361V7.05336V7.05312V7.05287V7.05262V7.05238V7.05213V7.05188V7.05164V7.05139V7.05114V7.0509V7.05065V7.0504V7.05016V7.04991V7.04966V7.04942V7.04917V7.04892V7.04868V7.04843V7.04818V7.04794V7.04769V7.04744V7.0472V7.04695V7.0467V7.04646V7.04621V7.04596V7.04572V7.04547V7.04522V7.04498V7.04473V7.04448V7.04424V7.04399V7.04374V7.0435V7.04325V7.043V7.04276V7.04251V7.04226V7.04202V7.04177V7.04152V7.04128V7.04103V7.04078V7.04054V7.04029V7.04004V7.0398V7.03955V7.0393V7.03906V7.03881V7.03856V7.03832V7.03807V7.03782V7.03758V7.03733V7.03708V7.03684V7.03659V7.03634V7.0361V7.03585V7.0356V7.03536V7.03511V7.03486V7.03462V7.03437V7.03412V7.03388V7.03363V7.03338V7.03314V7.03289V7.03264V7.0324V7.03215V7.0319V7.03166V7.03141V7.03116V7.03092V7.03067V7.03042V7.03018V7.02993V7.02968V7.02944V7.02919V7.02894V7.0287V7.02845V7.0282V7.02796V7.02771V7.02746V7.02722V7.02697V7.02672V7.02648V7.02623V7.02598V7.02574V7.02549V7.02524V7.025V7.02475V7.0245V7.02426V7.02401V7.02376V7.02352V7.02327V7.02302V7.02278V7.02253V7.02228V7.02204V7.02179V7.02154V7.02129V6.88548V6.88501V6.88453V6.88405V6.88357V6.8831V6.88262V6.88214V6.88166V6.88118V6.88071V6.88023V6.87975V6.87927V6.87879V6.87832V6.87784V6.87736V6.87688V6.8764V6.87592V6.87544V6.87497V6.87449V6.87401V6.87353V6.87305V6.87257V6.87209V6.87161V6.87113V6.87065V6.87017V6.86969V6.86922V6.86874V6.86826V6.86778V6.8673V6.86682V6.86634V6.86586V6.86538V6.8649V6.86442V6.86394V6.86346V6.86298V6.8625V6.86202V6.86154V6.86106V6.86058V6.8601V6.85962V6.85913V6.85865V6.85817V6.85769V6.85721V6.85673V6.85625V6.85577V6.85529V6.85481V6.85433V6.85384V6.85336V6.85288V6.8524V6.85192V6.85144V6.85096V6.85048V6.84999V6.84951V6.84903V6.84855V6.84807V6.84759V6.8471V6.84662V6.84614V6.84566V6.84518V6.84469V6.84421V6.84373V6.84325V6.84277V6.84228V6.8418V6.84132V6.84084V6.84035V6.83987V6.83939V6.83891V6.83842V6.83794V6.83746V6.83697V6.83649V6.83601V6.83553V6.83504V6.83456V6.83408V6.83359V6.83311V6.83263V6.83214V6.83166V6.83118V6.83069V6.83021V6.82973V6.82924V6.82876V6.82828V6.82779V6.82731V6.82683V6.82634V6.82586V6.82537V6.82489V6.82441V6.82392V6.82344V6.82296V6.82247V6.82199V6.8215V6.82102V6.82053V6.82005V6.81957V6.81908V6.8186V6.81811V6.81763V6.81714V6.81666V6.81618V6.81569V6.81521V6.81472V6.81424V6.81375V6.81327V6.81278V6.8123V6.81181V6.81133V6.81084V6.81036V6.80987V6.80939V6.8089V6.80842V6.80793V6.80745V6.80696V6.80648V6.80599V6.80551V6.80502V6.80454V6.80405V6.80357V6.80308V6.8026V6.80211V6.80162V6.80114V6.80065V6.80017V6.79968V6.7992V6.79871V6.79823V6.79774V6.79725V6.79677V6.79628V6.7958V6.79531V6.79482V6.79434V6.79385V6.79337V6.79288V6.79239V6.79191V6.79142V6.79094V6.79045V6.78996V6.78948V6.78899V6.7885V6.78802V6.78753V6.78705V6.78656V6.78607V6.78559V6.7851V6.78461V6.78413V6.78364V6.78315V6.78267V6.78218V6.78169V6.78121V6.78072V6.78023V6.77975V6.77926V6.77877V6.77829V6.7778V6.77731V6.77683V6.77634V6.77585V6.77537V6.77488V6.77439V6.77391V6.77342V6.77293V6.77244V6.77196V6.77147V6.77098V6.7705V6.77001V6.76952V6.76904V6.76855V6.76806V6.76757V6.76709V6.7666V6.76611V6.76562V6.76514V6.76465V6.76416V6.76368V6.76319V6.7627V6.76221V6.76173V6.76124V6.76075V6.76026V6.75978V6.75929V6.7588V6.75831V6.75783V6.75734V6.75685V6.75636V6.75588V6.75539V6.7549V6.75441V6.75393V6.75344V6.75295V6.75246V6.75197V6.75149V6.751V6.75051V6.75002V6.74954V6.74905V6.74856V6.74807V6.74759V6.7471V6.74661V6.74612V6.74563V6.74515V6.74466V6.74417V6.74368V6.74319V6.74271V6.74222V6.74173V6.74124V6.74076V6.74027V6.73978V6.73929V6.7388V6.73832V6.73783V6.73734V6.73685V6.73636V6.73588V6.73539V6.7349V6.73441V6.73392V6.73344V6.73295V6.73246V6.73197V6.73148V6.731V6.73051V6.73002V6.72953V6.72904V6.72856V6.72807V6.72758V6.72709V6.7266V6.72612V6.72563V6.72514V6.72465V6.72416V6.72368V6.72319V6.7227V6.72221V6.72172V6.72123V6.72075V6.72026V6.71977V6.71928V6.71879V6.71831V6.71782V6.71733V6.71684V6.71635V6.71587V6.71538V6.71489V6.7144V6.71391V6.71343V6.71294V6.71245V6.71196V6.71147V6.71099V6.7105V6.71001V6.70952V6.70903V6.70855V6.70806V6.70757V6.70708V6.70659V6.70611V6.70562V6.70513V6.70464V6.70415V6.70367V6.70318V6.70269V6.7022V6.70171V6.70123V6.70074V6.70025V6.69976V6.69927V6.69879V6.6983V6.69781V6.69732V6.69683V6.69635V6.69586V6.69537V6.69488V6.6944V6.69391V6.69342V6.69293V6.69244V6.69196V6.69147V6.69098V6.69049V6.69001V6.68952V6.68903V6.68854V6.68805V6.68757V6.68708V6.68659V6.6861V6.68562V6.68513V6.68464V6.68415V6.68367V6.68318V6.68269V6.6822V6.68172V6.68123V6.68074V6.68025V6.67977V6.67928V6.67879V6.6783V6.67782V6.67733V6.67684V6.67635V6.67587V6.67538V6.67489V6.6744V6.67392V6.67343V6.67294V6.67246V6.67197V6.67148V6.67099V6.67051V6.67002V6.66953V6.66905V6.66856V6.66807V6.66758V6.6671V6.66661V6.66612V6.66564V6.66515V6.66466V6.66418V6.66369V6.6632V6.66272V6.66223V6.66174V6.66126V6.66077V6.66028V6.6598V6.65931V6.65882V6.65834V6.65785V6.65736V6.65688V6.65639V6.6559V6.65542V6.65493V6.65444V6.65396V6.65347V6.65298V6.6525V6.65201V6.65153V6.65104V6.65055V6.65007V6.64958V6.64909V6.64861V6.64812V6.64764V6.64715V6.64666V6.64618V6.64569V6.64546C9.27109 6.57323 9.25968 6.49914 9.22691 6.43358L9.13819 6.47793L9.22691 6.43358C9.19292 6.3656 9.1378 6.31049 9.06985 6.2765C9.02048 6.25008 8.96544 6.23599 8.90942 6.23545L8.90943 6.23525L8.90308 6.23559C8.81035 6.24059 8.72197 6.27634 8.65186 6.33714C8.60331 6.37516 8.55818 6.4091 8.51023 6.44515L8.50972 6.44553C8.46135 6.48189 8.41028 6.52029 8.35134 6.56622C8.30229 6.60443 8.25135 6.64347 8.20009 6.68277C8.1325 6.73457 8.06434 6.78682 7.99918 6.83819L7.99912 6.83812L7.9959 6.84088C7.95683 6.87446 7.90725 6.89329 7.85577 6.89413C7.82571 6.8938 7.79591 6.88845 7.76761 6.87829L7.76766 6.87815L7.76238 6.87657C7.62231 6.83481 7.47414 6.78766 7.3396 6.74192L7.3396 6.74191L7.33914 6.74176L6.98734 6.62403C6.93395 6.60464 6.87777 6.59405 6.82098 6.59266L6.82098 6.59265L6.81949 6.59264C6.77368 6.5922 6.72829 6.60136 6.68624 6.61953C6.64426 6.63767 6.60653 6.66438 6.57548 6.69796C6.52362 6.75366 6.49012 6.82395 6.47949 6.89931C6.46915 6.97273 6.481 7.04751 6.51345 7.11406C6.6244 7.4124 6.70867 7.65726 6.78086 7.88575C6.79033 7.92218 6.79219 7.96018 6.7863 7.99737C6.78037 8.03482 6.76672 8.07062 6.74623 8.1025C6.66758 8.21657 6.58707 8.32517 6.50653 8.43381C6.44393 8.51825 6.38132 8.60271 6.31955 8.68978L6.25818 8.77121C6.20701 8.82321 6.17326 8.88993 6.16173 8.96211C6.14987 9.03631 6.16212 9.11233 6.19664 9.17902C6.2283 9.24548 6.27961 9.30063 6.34365 9.33699L6.39302 9.25003L6.34365 9.33699C6.40679 9.37284 6.47927 9.3887 6.55154 9.38255H6.56052H6.74928V9.38271L6.75491 9.38239C6.94444 9.37171 7.13986 9.37168 7.33728 9.37168H7.40039C7.43789 9.37337 7.47462 9.38292 7.5082 9.39971C7.54179 9.41651 7.57147 9.44018 7.59533 9.46918C7.77669 9.71065 7.94633 9.95229 8.07427 10.1381C8.10441 10.1951 8.14891 10.2434 8.20342 10.278C8.26001 10.314 8.32529 10.334 8.39232 10.3359Z"
          fill="#8B8B8B" stroke="#8B8B8B" stroke-width="0.2" stroke-linejoin="round"/>
    <path d="M5.76023 11.7141L5.76022 11.7144L5.76799 11.714C5.81836 11.7118 5.86787 11.7002 5.91399 11.6798L5.91403 11.6799L5.91823 11.6778C5.97701 11.6484 6.0279 11.6054 6.06662 11.5523C6.10534 11.4992 6.13076 11.4376 6.14077 11.3727C6.14392 11.3522 6.14064 11.3312 6.13138 11.3127L6.10708 11.2641C6.0811 11.2025 6.04613 11.1451 6.00329 11.0937L6.00351 11.0936L5.99831 11.0882C5.65256 10.7315 5.29474 10.3764 4.94709 10.0328L4.91033 9.99602C4.83807 9.92043 4.73914 9.876 4.6346 9.87223L4.6346 9.87215L4.63062 9.87217C4.58467 9.87234 4.53922 9.88178 4.49699 9.89993C4.45493 9.918 4.41693 9.94434 4.38525 9.97739C4.34999 10.0136 4.32279 10.0569 4.30547 10.1044C4.28808 10.1521 4.28102 10.2029 4.28476 10.2535C4.28851 10.3041 4.30296 10.3534 4.32717 10.3979C4.35021 10.4404 4.38158 10.4777 4.41939 10.5077L4.68657 10.7749L4.82215 10.9105L4.82237 10.9107L5.03391 11.1236C5.03392 11.1236 5.03392 11.1236 5.03393 11.1236C5.18792 11.279 5.34781 11.4403 5.50647 11.5963C5.53826 11.6315 5.57674 11.66 5.61966 11.6802C5.66373 11.7009 5.71156 11.7125 5.76023 11.7141Z"
          fill="#8B8B8B" stroke="#8B8B8B" stroke-width="0.2" stroke-linejoin="round"/>
</svg>
