<svg width="26" height="26" viewBox="0 0 26 26" fill="none" xmlns="http://www.w3.org/2000/svg">
    <mask id="path-1-outside-1_407_50947" maskUnits="userSpaceOnUse" x="1.1665" y="1.16699" width="23" height="23" fill="black">
        <rect fill="white" x="1.1665" y="1.16699" width="23" height="23"/>
        <path d="M9.37581 23.8457C9.1289 23.8374 8.88614 23.7798 8.6618 23.6763C8.43746 23.5729 8.23606 23.4256 8.06944 23.2432L7.65237 22.8239C7.37433 22.5436 7.08525 22.2545 6.79617 21.9742C6.70046 21.9006 6.63395 21.7955 6.60849 21.6775C6.58303 21.5595 6.60028 21.4363 6.65715 21.3298C6.74888 21.0999 6.78406 20.8514 6.75971 20.6051C6.73536 20.3588 6.65221 20.122 6.51725 19.9146C6.38229 19.7071 6.19947 19.5351 5.98418 19.4131C5.7689 19.2911 5.52745 19.2226 5.28017 19.2133C5.06528 19.2156 4.85301 19.2607 4.65567 19.3457C4.57649 19.3788 4.49205 19.3975 4.40631 19.4009C4.33658 19.3994 4.26804 19.3826 4.20551 19.3517C4.14298 19.3208 4.08798 19.2766 4.04441 19.2221C3.72664 18.8933 3.36695 18.5203 2.99623 18.1761C2.58902 17.8388 2.29866 17.3816 2.1665 16.8696V16.3553C2.28125 15.8213 2.63653 15.4351 3.04919 15.0202C6.99698 11.0742 11.0264 7.04431 15.0184 3.04976C15.431 2.63486 15.8194 2.28175 16.3424 2.16699H16.8588C17.3802 2.30109 17.8446 2.59984 18.1828 3.01887C18.4652 3.32342 18.7653 3.61695 19.0655 3.90164L19.2354 4.06937C19.3176 4.13718 19.374 4.23115 19.3953 4.33558C19.4166 4.44001 19.4014 4.54858 19.3523 4.64317C19.2198 4.92145 19.1789 5.23461 19.2356 5.5376C19.2923 5.84058 19.4437 6.11777 19.6679 6.32926C19.8015 6.47421 19.9635 6.59015 20.1438 6.66987C20.3242 6.7496 20.5189 6.79141 20.7161 6.79272C20.9438 6.79097 21.1689 6.7437 21.3781 6.65368C21.4478 6.62319 21.5227 6.6067 21.5988 6.60513C21.666 6.60767 21.732 6.62431 21.7925 6.65396C21.8529 6.68361 21.9064 6.72562 21.9496 6.77727C22.2233 7.05534 22.5035 7.33562 22.7749 7.60487L23.2648 8.09481C24.0482 8.88047 24.0482 9.89566 23.2648 10.6835L16.2718 17.6552L12.6594 21.268L10.6866 23.241C10.5193 23.4238 10.3172 23.5715 10.0921 23.6753C9.86702 23.7791 9.62352 23.8371 9.37581 23.8457ZM5.25589 18.3835C5.6034 18.3831 5.9467 18.4596 6.2611 18.6077C6.5755 18.7557 6.85319 18.9716 7.07422 19.2398C7.2998 19.513 7.46194 19.8329 7.54894 20.1764C7.63595 20.5199 7.64565 20.8784 7.57735 21.226C7.5621 21.3013 7.5639 21.379 7.58261 21.4535C7.60132 21.5279 7.63647 21.5973 7.68547 21.6564C8.09813 22.0978 8.4512 22.4376 8.78883 22.7599C8.95101 22.9173 9.16742 23.0066 9.39347 23.0092C9.59548 23.0086 9.78932 22.9294 9.93411 22.7885C10.2784 22.4619 10.5961 22.1265 10.9514 21.7712C11.0926 21.6233 11.2383 21.4754 11.3927 21.3298L11.5627 21.1598L11.3839 20.9965L11.2449 20.8729C11.1412 20.7824 11.0441 20.6964 10.9558 20.6037C10.9128 20.5665 10.8779 20.521 10.853 20.4699C10.8282 20.4188 10.814 20.3631 10.8113 20.3064C10.8087 20.2496 10.8175 20.1929 10.8374 20.1397C10.8573 20.0865 10.8879 20.0378 10.9271 19.9968C10.9639 19.9577 11.0084 19.9265 11.0577 19.9052C11.1071 19.884 11.1603 19.8731 11.214 19.8732C11.34 19.8758 11.4598 19.9282 11.5472 20.0188C11.6443 20.1115 11.737 20.2109 11.8253 20.3057L11.94 20.4271L12.1033 20.5993L20.5682 12.1313L13.8819 5.45973L5.41477 13.9255L5.5869 14.0888L5.69944 14.197C5.79212 14.283 5.88701 14.3713 5.97748 14.464C6.06003 14.5427 6.1089 14.6504 6.11383 14.7643C6.11877 14.8783 6.0794 14.9898 6.00396 15.0753C5.96773 15.1146 5.92369 15.1459 5.87467 15.1672C5.82566 15.1884 5.77274 15.1993 5.7193 15.1989C5.59319 15.195 5.4736 15.1419 5.38609 15.051C5.29561 14.965 5.20734 14.8701 5.11466 14.7686L4.96902 14.6141L4.81455 14.4397L4.22536 15.029L3.32061 15.9382C3.22027 16.0211 3.13947 16.125 3.08401 16.2427C3.02855 16.3604 2.99978 16.489 2.99978 16.6191C2.99978 16.7492 3.02855 16.8777 3.08401 16.9954C3.13947 17.1131 3.22027 17.2171 3.32061 17.2999C3.43757 17.4213 3.55894 17.5405 3.6781 17.6596C3.86787 17.8472 4.06206 18.0392 4.24743 18.2334C4.30106 18.2995 4.36817 18.3534 4.44428 18.3914C4.52039 18.4295 4.60374 18.4509 4.68877 18.4541C4.75579 18.4538 4.82224 18.4419 4.88517 18.4188C4.97958 18.3949 5.07691 18.3845 5.17424 18.3879H5.25589V18.3835ZM16.6116 2.98356C16.404 2.98242 16.204 3.06148 16.0533 3.20425C15.7113 3.53308 15.3781 3.86633 15.0559 4.2062C14.9235 4.34082 14.7911 4.47765 14.6565 4.61227L14.4954 4.77558L21.2324 11.5155L21.7797 10.9682C22.0842 10.6637 22.3998 10.3503 22.7087 10.0347C22.8026 9.95186 22.8779 9.84998 22.9294 9.73582C22.9809 9.62167 23.0076 9.49786 23.0076 9.37262C23.0076 9.24738 22.9809 9.12356 22.9294 9.00941C22.8779 8.89526 22.8026 8.79338 22.7087 8.71054C22.3888 8.38171 22.0467 8.03522 21.6914 7.69756C21.5867 7.60465 21.4519 7.5529 21.3119 7.5519C21.2848 7.54864 21.2574 7.54864 21.2302 7.5519C21.073 7.5809 20.9135 7.59568 20.7536 7.59604C20.4081 7.59814 20.0664 7.52431 19.7525 7.37978C19.4387 7.23525 19.1605 7.02353 18.9375 6.75961C18.7122 6.4828 18.5506 6.15971 18.4644 5.81334C18.3782 5.46698 18.3695 5.10586 18.4388 4.75572C18.4531 4.68339 18.4511 4.60875 18.4328 4.53732C18.4144 4.46588 18.3803 4.39948 18.3328 4.34303C17.982 3.98109 17.6046 3.59708 17.2074 3.2219C17.0477 3.06741 16.8338 2.98182 16.6116 2.98356Z"/>
    </mask>
    <path d="M9.37581 23.8457C9.1289 23.8374 8.88614 23.7798 8.6618 23.6763C8.43746 23.5729 8.23606 23.4256 8.06944 23.2432L7.65237 22.8239C7.37433 22.5436 7.08525 22.2545 6.79617 21.9742C6.70046 21.9006 6.63395 21.7955 6.60849 21.6775C6.58303 21.5595 6.60028 21.4363 6.65715 21.3298C6.74888 21.0999 6.78406 20.8514 6.75971 20.6051C6.73536 20.3588 6.65221 20.122 6.51725 19.9146C6.38229 19.7071 6.19947 19.5351 5.98418 19.4131C5.7689 19.2911 5.52745 19.2226 5.28017 19.2133C5.06528 19.2156 4.85301 19.2607 4.65567 19.3457C4.57649 19.3788 4.49205 19.3975 4.40631 19.4009C4.33658 19.3994 4.26804 19.3826 4.20551 19.3517C4.14298 19.3208 4.08798 19.2766 4.04441 19.2221C3.72664 18.8933 3.36695 18.5203 2.99623 18.1761C2.58902 17.8388 2.29866 17.3816 2.1665 16.8696V16.3553C2.28125 15.8213 2.63653 15.4351 3.04919 15.0202C6.99698 11.0742 11.0264 7.04431 15.0184 3.04976C15.431 2.63486 15.8194 2.28175 16.3424 2.16699H16.8588C17.3802 2.30109 17.8446 2.59984 18.1828 3.01887C18.4652 3.32342 18.7653 3.61695 19.0655 3.90164L19.2354 4.06937C19.3176 4.13718 19.374 4.23115 19.3953 4.33558C19.4166 4.44001 19.4014 4.54858 19.3523 4.64317C19.2198 4.92145 19.1789 5.23461 19.2356 5.5376C19.2923 5.84058 19.4437 6.11777 19.6679 6.32926C19.8015 6.47421 19.9635 6.59015 20.1438 6.66987C20.3242 6.7496 20.5189 6.79141 20.7161 6.79272C20.9438 6.79097 21.1689 6.7437 21.3781 6.65368C21.4478 6.62319 21.5227 6.6067 21.5988 6.60513C21.666 6.60767 21.732 6.62431 21.7925 6.65396C21.8529 6.68361 21.9064 6.72562 21.9496 6.77727C22.2233 7.05534 22.5035 7.33562 22.7749 7.60487L23.2648 8.09481C24.0482 8.88047 24.0482 9.89566 23.2648 10.6835L16.2718 17.6552L12.6594 21.268L10.6866 23.241C10.5193 23.4238 10.3172 23.5715 10.0921 23.6753C9.86702 23.7791 9.62352 23.8371 9.37581 23.8457ZM5.25589 18.3835C5.6034 18.3831 5.9467 18.4596 6.2611 18.6077C6.5755 18.7557 6.85319 18.9716 7.07422 19.2398C7.2998 19.513 7.46194 19.8329 7.54894 20.1764C7.63595 20.5199 7.64565 20.8784 7.57735 21.226C7.5621 21.3013 7.5639 21.379 7.58261 21.4535C7.60132 21.5279 7.63647 21.5973 7.68547 21.6564C8.09813 22.0978 8.4512 22.4376 8.78883 22.7599C8.95101 22.9173 9.16742 23.0066 9.39347 23.0092C9.59548 23.0086 9.78932 22.9294 9.93411 22.7885C10.2784 22.4619 10.5961 22.1265 10.9514 21.7712C11.0926 21.6233 11.2383 21.4754 11.3927 21.3298L11.5627 21.1598L11.3839 20.9965L11.2449 20.8729C11.1412 20.7824 11.0441 20.6964 10.9558 20.6037C10.9128 20.5665 10.8779 20.521 10.853 20.4699C10.8282 20.4188 10.814 20.3631 10.8113 20.3064C10.8087 20.2496 10.8175 20.1929 10.8374 20.1397C10.8573 20.0865 10.8879 20.0378 10.9271 19.9968C10.9639 19.9577 11.0084 19.9265 11.0577 19.9052C11.1071 19.884 11.1603 19.8731 11.214 19.8732C11.34 19.8758 11.4598 19.9282 11.5472 20.0188C11.6443 20.1115 11.737 20.2109 11.8253 20.3057L11.94 20.4271L12.1033 20.5993L20.5682 12.1313L13.8819 5.45973L5.41477 13.9255L5.5869 14.0888L5.69944 14.197C5.79212 14.283 5.88701 14.3713 5.97748 14.464C6.06003 14.5427 6.1089 14.6504 6.11383 14.7643C6.11877 14.8783 6.0794 14.9898 6.00396 15.0753C5.96773 15.1146 5.92369 15.1459 5.87467 15.1672C5.82566 15.1884 5.77274 15.1993 5.7193 15.1989C5.59319 15.195 5.4736 15.1419 5.38609 15.051C5.29561 14.965 5.20734 14.8701 5.11466 14.7686L4.96902 14.6141L4.81455 14.4397L4.22536 15.029L3.32061 15.9382C3.22027 16.0211 3.13947 16.125 3.08401 16.2427C3.02855 16.3604 2.99978 16.489 2.99978 16.6191C2.99978 16.7492 3.02855 16.8777 3.08401 16.9954C3.13947 17.1131 3.22027 17.2171 3.32061 17.2999C3.43757 17.4213 3.55894 17.5405 3.6781 17.6596C3.86787 17.8472 4.06206 18.0392 4.24743 18.2334C4.30106 18.2995 4.36817 18.3534 4.44428 18.3914C4.52039 18.4295 4.60374 18.4509 4.68877 18.4541C4.75579 18.4538 4.82224 18.4419 4.88517 18.4188C4.97958 18.3949 5.07691 18.3845 5.17424 18.3879H5.25589V18.3835ZM16.6116 2.98356C16.404 2.98242 16.204 3.06148 16.0533 3.20425C15.7113 3.53308 15.3781 3.86633 15.0559 4.2062C14.9235 4.34082 14.7911 4.47765 14.6565 4.61227L14.4954 4.77558L21.2324 11.5155L21.7797 10.9682C22.0842 10.6637 22.3998 10.3503 22.7087 10.0347C22.8026 9.95186 22.8779 9.84998 22.9294 9.73582C22.9809 9.62167 23.0076 9.49786 23.0076 9.37262C23.0076 9.24738 22.9809 9.12356 22.9294 9.00941C22.8779 8.89526 22.8026 8.79338 22.7087 8.71054C22.3888 8.38171 22.0467 8.03522 21.6914 7.69756C21.5867 7.60465 21.4519 7.5529 21.3119 7.5519C21.2848 7.54864 21.2574 7.54864 21.2302 7.5519C21.073 7.5809 20.9135 7.59568 20.7536 7.59604C20.4081 7.59814 20.0664 7.52431 19.7525 7.37978C19.4387 7.23525 19.1605 7.02353 18.9375 6.75961C18.7122 6.4828 18.5506 6.15971 18.4644 5.81334C18.3782 5.46698 18.3695 5.10586 18.4388 4.75572C18.4531 4.68339 18.4511 4.60875 18.4328 4.53732C18.4144 4.46588 18.3803 4.39948 18.3328 4.34303C17.982 3.98109 17.6046 3.59708 17.2074 3.2219C17.0477 3.06741 16.8338 2.98182 16.6116 2.98356Z" fill="#002C5E"/>
    <path d="M9.37581 23.8457C9.1289 23.8374 8.88614 23.7798 8.6618 23.6763C8.43746 23.5729 8.23606 23.4256 8.06944 23.2432L7.65237 22.8239C7.37433 22.5436 7.08525 22.2545 6.79617 21.9742C6.70046 21.9006 6.63395 21.7955 6.60849 21.6775C6.58303 21.5595 6.60028 21.4363 6.65715 21.3298C6.74888 21.0999 6.78406 20.8514 6.75971 20.6051C6.73536 20.3588 6.65221 20.122 6.51725 19.9146C6.38229 19.7071 6.19947 19.5351 5.98418 19.4131C5.7689 19.2911 5.52745 19.2226 5.28017 19.2133C5.06528 19.2156 4.85301 19.2607 4.65567 19.3457C4.57649 19.3788 4.49205 19.3975 4.40631 19.4009C4.33658 19.3994 4.26804 19.3826 4.20551 19.3517C4.14298 19.3208 4.08798 19.2766 4.04441 19.2221C3.72664 18.8933 3.36695 18.5203 2.99623 18.1761C2.58902 17.8388 2.29866 17.3816 2.1665 16.8696V16.3553C2.28125 15.8213 2.63653 15.4351 3.04919 15.0202C6.99698 11.0742 11.0264 7.04431 15.0184 3.04976C15.431 2.63486 15.8194 2.28175 16.3424 2.16699H16.8588C17.3802 2.30109 17.8446 2.59984 18.1828 3.01887C18.4652 3.32342 18.7653 3.61695 19.0655 3.90164L19.2354 4.06937C19.3176 4.13718 19.374 4.23115 19.3953 4.33558C19.4166 4.44001 19.4014 4.54858 19.3523 4.64317C19.2198 4.92145 19.1789 5.23461 19.2356 5.5376C19.2923 5.84058 19.4437 6.11777 19.6679 6.32926C19.8015 6.47421 19.9635 6.59015 20.1438 6.66987C20.3242 6.7496 20.5189 6.79141 20.7161 6.79272C20.9438 6.79097 21.1689 6.7437 21.3781 6.65368C21.4478 6.62319 21.5227 6.6067 21.5988 6.60513C21.666 6.60767 21.732 6.62431 21.7925 6.65396C21.8529 6.68361 21.9064 6.72562 21.9496 6.77727C22.2233 7.05534 22.5035 7.33562 22.7749 7.60487L23.2648 8.09481C24.0482 8.88047 24.0482 9.89566 23.2648 10.6835L16.2718 17.6552L12.6594 21.268L10.6866 23.241C10.5193 23.4238 10.3172 23.5715 10.0921 23.6753C9.86702 23.7791 9.62352 23.8371 9.37581 23.8457ZM5.25589 18.3835C5.6034 18.3831 5.9467 18.4596 6.2611 18.6077C6.5755 18.7557 6.85319 18.9716 7.07422 19.2398C7.2998 19.513 7.46194 19.8329 7.54894 20.1764C7.63595 20.5199 7.64565 20.8784 7.57735 21.226C7.5621 21.3013 7.5639 21.379 7.58261 21.4535C7.60132 21.5279 7.63647 21.5973 7.68547 21.6564C8.09813 22.0978 8.4512 22.4376 8.78883 22.7599C8.95101 22.9173 9.16742 23.0066 9.39347 23.0092C9.59548 23.0086 9.78932 22.9294 9.93411 22.7885C10.2784 22.4619 10.5961 22.1265 10.9514 21.7712C11.0926 21.6233 11.2383 21.4754 11.3927 21.3298L11.5627 21.1598L11.3839 20.9965L11.2449 20.8729C11.1412 20.7824 11.0441 20.6964 10.9558 20.6037C10.9128 20.5665 10.8779 20.521 10.853 20.4699C10.8282 20.4188 10.814 20.3631 10.8113 20.3064C10.8087 20.2496 10.8175 20.1929 10.8374 20.1397C10.8573 20.0865 10.8879 20.0378 10.9271 19.9968C10.9639 19.9577 11.0084 19.9265 11.0577 19.9052C11.1071 19.884 11.1603 19.8731 11.214 19.8732C11.34 19.8758 11.4598 19.9282 11.5472 20.0188C11.6443 20.1115 11.737 20.2109 11.8253 20.3057L11.94 20.4271L12.1033 20.5993L20.5682 12.1313L13.8819 5.45973L5.41477 13.9255L5.5869 14.0888L5.69944 14.197C5.79212 14.283 5.88701 14.3713 5.97748 14.464C6.06003 14.5427 6.1089 14.6504 6.11383 14.7643C6.11877 14.8783 6.0794 14.9898 6.00396 15.0753C5.96773 15.1146 5.92369 15.1459 5.87467 15.1672C5.82566 15.1884 5.77274 15.1993 5.7193 15.1989C5.59319 15.195 5.4736 15.1419 5.38609 15.051C5.29561 14.965 5.20734 14.8701 5.11466 14.7686L4.96902 14.6141L4.81455 14.4397L4.22536 15.029L3.32061 15.9382C3.22027 16.0211 3.13947 16.125 3.08401 16.2427C3.02855 16.3604 2.99978 16.489 2.99978 16.6191C2.99978 16.7492 3.02855 16.8777 3.08401 16.9954C3.13947 17.1131 3.22027 17.2171 3.32061 17.2999C3.43757 17.4213 3.55894 17.5405 3.6781 17.6596C3.86787 17.8472 4.06206 18.0392 4.24743 18.2334C4.30106 18.2995 4.36817 18.3534 4.44428 18.3914C4.52039 18.4295 4.60374 18.4509 4.68877 18.4541C4.75579 18.4538 4.82224 18.4419 4.88517 18.4188C4.97958 18.3949 5.07691 18.3845 5.17424 18.3879H5.25589V18.3835ZM16.6116 2.98356C16.404 2.98242 16.204 3.06148 16.0533 3.20425C15.7113 3.53308 15.3781 3.86633 15.0559 4.2062C14.9235 4.34082 14.7911 4.47765 14.6565 4.61227L14.4954 4.77558L21.2324 11.5155L21.7797 10.9682C22.0842 10.6637 22.3998 10.3503 22.7087 10.0347C22.8026 9.95186 22.8779 9.84998 22.9294 9.73582C22.9809 9.62167 23.0076 9.49786 23.0076 9.37262C23.0076 9.24738 22.9809 9.12356 22.9294 9.00941C22.8779 8.89526 22.8026 8.79338 22.7087 8.71054C22.3888 8.38171 22.0467 8.03522 21.6914 7.69756C21.5867 7.60465 21.4519 7.5529 21.3119 7.5519C21.2848 7.54864 21.2574 7.54864 21.2302 7.5519C21.073 7.5809 20.9135 7.59568 20.7536 7.59604C20.4081 7.59814 20.0664 7.52431 19.7525 7.37978C19.4387 7.23525 19.1605 7.02353 18.9375 6.75961C18.7122 6.4828 18.5506 6.15971 18.4644 5.81334C18.3782 5.46698 18.3695 5.10586 18.4388 4.75572C18.4531 4.68339 18.4511 4.60875 18.4328 4.53732C18.4144 4.46588 18.3803 4.39948 18.3328 4.34303C17.982 3.98109 17.6046 3.59708 17.2074 3.2219C17.0477 3.06741 16.8338 2.98182 16.6116 2.98356Z" stroke="#002C5E" stroke-width="0.4" stroke-linejoin="round" mask="url(#path-1-outside-1_407_50947)"/>
    <path d="M12.3156 14.1114C12.3254 14.1082 12.3357 14.1066 12.3461 14.1066C12.5481 14.1066 12.7293 14.1651 12.8921 14.2871C13.0529 14.4076 13.1916 14.5867 13.317 14.8216L13.3175 14.8224L13.3175 14.8224L13.5224 15.2155L13.5415 14.7738L13.5416 14.7712L13.5417 14.7712C13.5637 14.4576 13.6545 14.2109 13.8382 14.0281C14.0201 13.8471 14.2808 13.7412 14.6172 13.6821L14.6191 13.6818L14.6191 13.6818L15.0597 13.6132L14.6495 13.4331L12.3156 14.1114ZM12.3156 14.1114C12.1892 14.1143 12.0638 14.1341 11.9427 14.1703C11.9426 14.1703 11.9425 14.1703 11.9424 14.1703L11.6497 14.2558M12.3156 14.1114L11.6497 14.2558M11.6497 14.2558L11.8055 13.9927L11.8055 13.9927L11.8069 13.9901C11.8621 13.8904 11.9196 13.7986 11.9783 13.7073C12.0869 13.5602 12.1667 13.3937 12.2133 13.2169C12.2151 13.2099 12.2162 13.2027 12.2165 13.1955C12.2239 13.0176 12.196 12.8401 12.1347 12.673C12.1314 12.6612 12.1282 12.6495 12.1249 12.6379C12.1038 12.5616 12.0835 12.4884 12.0692 12.4135L12.0692 12.4135L12.0689 12.4121L12.0281 12.2133L12.2305 12.2355C12.299 12.2477 12.3689 12.2654 12.4418 12.2838C12.4558 12.2874 12.47 12.2909 12.4842 12.2945C12.6265 12.3398 12.774 12.367 12.923 12.3754L12.923 12.3755H12.9287H13.0103C13.0194 12.3755 13.0284 12.3743 13.0371 12.3719C13.2082 12.3243 13.3685 12.2444 13.5095 12.1365C13.5291 12.1237 13.5486 12.1109 13.568 12.0982C13.637 12.0528 13.7055 12.0077 13.7797 11.9649L14.034 11.8179L13.9656 12.1092L13.9655 12.1097C13.8949 12.4172 13.9066 12.6835 14.0235 12.9093C14.1401 13.1347 14.3527 13.303 14.6494 13.433L11.6497 14.2558ZM13.6386 16.7342L13.6386 16.7343L13.7319 16.6254L13.747 16.7242C13.7473 16.7242 13.7477 16.7241 13.748 16.7241C13.8231 16.7125 13.9101 16.6878 13.9903 16.6181C14.0701 16.5488 14.1333 16.4437 14.1787 16.2895L14.1787 16.2895L14.1791 16.288L14.309 15.8212C14.3091 15.821 14.3091 15.8208 14.3092 15.8206C14.3324 15.7404 14.3565 15.659 14.3807 15.5769C14.4318 15.4041 14.4836 15.2285 14.5302 15.0558L14.5303 15.0558L14.5313 15.0514C14.5511 14.962 14.5959 14.8801 14.6607 14.8154C14.7254 14.7507 14.8072 14.7058 14.8966 14.686L14.8966 14.6862L14.9028 14.6844C15.1534 14.6119 15.4059 14.5307 15.6504 14.4521L15.6581 14.4496L15.6581 14.4497L15.6622 14.4482L16.1364 14.2726C16.2921 14.2239 16.3957 14.1525 16.4622 14.0659C16.5289 13.9793 16.5507 13.8874 16.5607 13.8139L16.5607 13.8139C16.5756 13.7036 16.5552 13.5914 16.5023 13.4935C16.4507 13.398 16.3709 13.3208 16.2738 13.2725C15.897 13.0139 15.53 12.7604 15.1655 12.492C15.1142 12.4505 15.0717 12.3992 15.0404 12.3411C15.0096 12.2837 14.9903 12.2208 14.9838 12.156V12.1554V12.1543V12.1532V12.1522V12.1511V12.15V12.1489V12.1479V12.1468V12.1457V12.1446V12.1436V12.1425V12.1414V12.1404V12.1393V12.1382V12.1371V12.1361V12.135V12.1339V12.1328V12.1318V12.1307V12.1296V12.1285V12.1275V12.1264V12.1253V12.1242V12.1232V12.1221V12.121V12.1199V12.1189V12.1178V12.1167V12.1156V12.1146V12.1135V12.1124V12.1113V12.1103V12.1092V12.1081V12.107V12.106V12.1049V12.1038V12.1027V12.1017V12.1006V12.0995V12.0984V12.0974V12.0963V12.0952V12.0941V12.0931V12.092V12.0909V12.0898V12.0888V12.0877V12.0866V12.0855V12.0845V12.0834V12.0823V12.0812V12.0801V12.0791V12.078V12.0769V12.0758V12.0748V12.0737V12.0726V12.0715V12.0705V12.0694V12.0683V12.0672V12.0662V12.0651V12.064V12.0629V12.0619V12.0608V12.0597V12.0586V12.0576V12.0565V12.0554V12.0543V12.0533V12.0522V12.0511V12.05V12.049V12.0479V12.0468V12.0457V12.0446V12.0436V12.0425V12.0414V12.0403V12.0393V12.0382V12.0371V12.036V12.035V12.0339V12.0328V12.0317V12.0307V12.0296V12.0285V12.0274V12.0264V12.0253V12.0242V12.0231V12.0221V12.021V12.0199V12.0188V12.0178V12.0167V12.0156V12.0145V12.0134V12.0124V12.0113V12.0102V12.0091V12.0081V12.007V12.0059V12.0048V12.0038V12.0027V12.0016V12.0005V11.9995V11.9984V11.9973V11.9962V11.9952V11.9941V11.993V11.9919V11.9909V11.9898V11.9887V11.9876V11.9866V11.9855V11.9844V11.9833V11.9823V11.9812V11.9801V11.979V11.978V11.9769V11.9758V11.9747V11.9737V11.9726V11.9715V11.9704V11.9694V11.9683V11.9672V11.9661V11.9651V11.964V11.9629V11.9619V11.9608V11.9597V11.9586V11.9576V11.9565V11.9554V11.9543V11.9533V11.9522V11.9511V11.95V11.949V11.9479V11.9468V11.9457V11.9447V11.9436V11.9425V11.9414V11.9404V11.9393V11.9382V11.9372V11.9361V11.935V11.9339V11.9329V11.9318V11.9307V11.9296V11.9286V11.9275V11.9264V11.9254V11.9243V11.9232V11.9221V11.9211V11.92V11.9189V11.9178V11.9168V11.9157V11.9146V11.9136V11.9125V11.9114V11.9103V11.9093V11.9082V11.9071V11.9061V11.905V11.9039V11.9028V11.9018V11.9007V11.8996V11.8986V11.8975V11.8964V11.8953V11.8943V11.8932V11.8921V11.8911V11.89V11.8889V11.8879V11.8868V11.8857V11.8846V11.8836V11.8825V11.8814V11.8804V11.8793V11.8782V11.8772V11.8761V11.875V11.8739V11.8729V11.8718V11.8707V11.8697V11.8686V11.8675V11.8665V11.8654V11.8643V11.8633V11.8622V11.8611V11.8601V11.859V11.8579V11.8569V11.8558V11.8547V11.8536V11.8526V11.8515V11.8504V11.8494V11.8483V11.8472V11.8462V11.8451V11.844V11.843V11.8419V11.8408V11.8398V11.8387V11.8376V11.8366V11.8355V11.8344V11.8334V11.8323V11.8313V11.8302V11.8291V11.8281V11.827V11.8259V11.8249V11.8238V11.8227V11.8217V11.8206V11.8195V11.8185V11.8174V11.8163V11.8153V11.8142V11.8132V11.8121V11.811V11.81V11.8089V11.8078V11.8068V11.8057V11.8046V11.8036V11.8025V11.8015V11.8004V11.7993V11.7983V11.7972V11.7961V11.7951V11.794V11.793V11.7919V11.7908V11.7898V11.7887V11.7877V11.7866V11.7855V11.7845V11.7834V11.7824V11.7813V11.7802V11.7792V11.7781V11.777V11.776V11.7749V11.7739V11.7728V11.7718V11.7707V11.7696V11.7686V11.7675V11.7665V11.7654V11.7643V11.7633V11.7622V11.7612V11.7601V11.7591V11.758V11.7569V11.7559V11.7548V11.7538V11.7527V11.7517V11.7506V11.7495V11.7485V11.7474V11.7464V11.7453V11.7443V11.7432V11.7421V11.7411V11.74V11.739V11.7379V11.7369V11.7358V11.7348V11.7337V11.7327V11.7316V11.7305V11.7295V11.7284V11.7274V11.7263V11.7253V11.7242V11.7232V11.7221V11.7211V11.72V11.719V11.7179V11.7169V11.7158V11.7148V11.7137V11.7127V11.7116V11.7106V11.7095V11.7085V11.7074V11.7064V11.7053V11.7043V11.7032V11.7022V11.7011V11.7001V11.699V11.698V11.6969V11.6959V11.6948V11.6938V11.6927V11.6917V11.6906V11.6896V11.6885V11.6875V11.6864V11.6854V11.6843V11.6833V11.6822V11.6812V11.6801V11.6791V11.6781V11.677V11.676V11.6749V11.6739V11.6728V11.6718V11.6707V11.6697V11.6687V11.6676V11.6666V11.6655V11.6645V11.6634V11.6624V11.6613V11.6603V11.6593V11.6582V11.6572V11.6561V11.6551V11.6541V11.653V11.652V11.6509V11.6499V11.6488V11.6478V11.6468V11.6457V11.6447V11.6436V11.6426V11.6416V11.6405V11.6395V11.6384V11.6374V11.6364V11.6353V11.6343V11.6333V11.6322V11.6312V11.6301V11.6291V11.6281V11.627V11.626V11.625V11.6239V11.6229V11.6219V11.6208V11.6198V11.6187V11.6177V11.6167V11.6156V11.6152V11.6148V11.6144V11.614V11.6136V11.6132V11.6128V11.6124V11.612V11.6116V11.6112V11.6108V11.6104V11.61V11.6096V11.6092V11.6088V11.6084V11.608V11.6076V11.6072V11.6068V11.6064V11.606V11.6056V11.6052V11.6048V11.6044V11.604V11.6036V11.6032V11.6028V11.6024V11.602V11.6016V11.6012V11.6008V11.6004V11.6V11.5996V11.5992V11.5988V11.5984V11.598V11.5976V11.5972V11.5968V11.5964V11.596V11.5956V11.5952V11.5948V11.5944V11.594V11.5936V11.5932V11.5928V11.5924V11.592V11.5916V11.5912V11.5908V11.5904V11.59V11.5896V11.5892V11.5888V11.5884V11.588V11.5876V11.5872V11.5868V11.5864V11.586V11.5856V11.5852V11.5848V11.5844V11.584V11.5836V11.5832V11.5828V11.5824V11.582V11.5816V11.5812V11.5808V11.5804V11.58V11.5796V11.5792V11.5788V11.5784V11.578V11.5776V11.5772V11.5768V11.5764V11.576V11.5756V11.5752V11.5748V11.5744V11.574V11.5736V11.5731V11.5727V11.5723V11.5719V11.5715V11.5711V11.5707V11.5703V11.5699V11.5695V11.5691V11.5687V11.5683V11.5679V11.5675V11.5671V11.5667V11.5663V11.5659V11.5655V11.5651V11.5647V11.5643V11.5639V11.5635V11.5631V11.5627V11.5623V11.5619V11.5615V11.5611V11.5607V11.5603V11.5599V11.5595V11.5591V11.5587V11.5583V11.5579V11.5575V11.5571V11.5567V11.5563V11.5559V11.5555V11.5551V11.5547V11.5543V11.5539V11.5535V11.5531V11.5527V11.5523V11.5519V11.5515V11.5511V11.5507V11.5503V11.5499V11.5495V11.5491V11.5487V11.5483V11.5479V11.5475V11.5471V11.5467V11.5463V11.5459V11.5455V11.5451V11.5447V11.5443V11.5439V11.5435V11.5431V11.5427V11.5423V11.5419V11.5415V11.5411V11.5407V11.5403V11.5399V11.5395V11.5391V11.5387V11.5383V11.5379V11.5375V11.5371V11.5367V11.5363V11.5359V11.5355V11.5351V11.5347V11.5343V11.5339V11.5335V11.5331V11.5327V11.5323V11.5319V11.5315V11.5311V11.5307V11.5303V11.5299V11.5295V11.5291V11.5287V11.5283V11.5279V11.5275V11.527V11.5266V11.5262V11.5258V11.5254V11.525V11.5246V11.5242V11.5238V11.5234V11.523V11.5226V11.5222V11.5218V11.5214V11.521V11.5206V11.5202V11.5198V11.5194V11.519V11.5186V11.5182V11.5178V11.5174V11.517V11.5166V11.5162V11.5158V11.5154V11.515V11.5146V11.5142V11.5138V11.5134V11.513V11.5126V11.5122V11.5118V11.5114V11.511V11.5106V11.5102V11.5098V11.5094V11.509V11.5086V11.5082V11.5078V11.5074V11.507V11.5066V11.5062V11.5058V11.5054V11.505V11.5046V11.5042V11.5038V11.5034V11.503V11.5026V11.5022V11.5018V11.5014V11.501V11.5006V11.5002V11.4998V11.4994V11.499V11.4986V11.4982V11.4978V11.4974V11.497V11.4966V11.4962V11.4958V11.4954V11.495V11.4946V11.4942V11.4938V11.4934V11.493V11.4926V11.4922V11.4918V11.4914V11.491V11.4906V11.4902V11.4898V11.4894V11.489V11.4886V11.4882V11.4878V11.4874V11.487V11.4866V11.4862V11.4858V11.4854V11.485V11.4846V11.4842V11.4838V11.4834V11.483V11.4826V11.4822V11.4818V11.4814V11.481V11.4805V11.4801V11.4797V11.4793V11.4789V11.4785V11.4781V11.4777V11.4773V11.4769V11.4765V11.4761V11.4757V11.4753V11.4749V11.4745V11.4741V11.4737V11.4733V11.4729V11.4725V11.4721V11.4717V11.4713V11.4709V11.4705V11.4701V11.4697V11.4693V11.4689V11.4685V11.4681V11.4677V11.4673V11.4669V11.4665V11.4661V11.4657V11.4653V11.4649V11.4645V11.4641V11.4637V11.4633V11.4629V11.4625V11.4621V11.4617V11.4613V11.4609V11.4605V11.4601V11.4597V11.4593V11.4589V11.4585V11.4581V11.4577V11.4573V11.4569V11.4565V11.4561V11.4557V11.4553V11.4549V11.4545V11.4541V11.4537V11.4533V11.4529V11.4525V11.4521V11.4517V11.4513V11.4509V11.4505V11.4501V11.4497V11.4493V11.4489V11.4485V11.4481V11.4477V11.4473V11.4469V11.4465V11.4461V11.4457V11.4453V11.4449V11.4445V11.4441V11.4437V11.4433V11.4429V11.4425V11.4421V11.4417V11.4413V11.4409V11.4405V11.4401V11.4397V11.4393V11.4389V11.4385V11.4381V11.4377V11.4373V11.4369V11.4365V11.4361V11.4357V11.4353V11.4349V11.4344V11.434V11.4336V11.4332V11.4328V11.4324V11.432V11.4316V11.4312V11.4308V11.4304V11.43V11.4296V11.4292V11.4288V11.4284V11.428V11.4276V11.4272V11.4268V11.4264V11.426V11.4256V11.4252V11.4248V11.4244V11.424V11.4236V11.4232V11.4228V11.4224V11.422V11.4216V11.4212V11.4208V11.4204V11.42V11.4196V11.4192V11.4188V11.4184V11.418V11.4176V11.4172V11.4168V11.4164V11.416V11.4156V11.4152V11.4148V11.4144V11.414V11.4136V11.4132V11.4128V11.4124V11.412V11.4116V11.4112V11.4108V11.4104V11.1897V11.1889V11.1882V11.1874V11.1866V11.1858V11.185V11.1843V11.1835V11.1827V11.1819V11.1812V11.1804V11.1796V11.1788V11.1781V11.1773V11.1765V11.1757V11.1749V11.1742V11.1734V11.1726V11.1718V11.1711V11.1703V11.1695V11.1687V11.1679V11.1672V11.1664V11.1656V11.1648V11.164V11.1633V11.1625V11.1617V11.1609V11.1602V11.1594V11.1586V11.1578V11.157V11.1563V11.1555V11.1547V11.1539V11.1531V11.1524V11.1516V11.1508V11.15V11.1492V11.1484V11.1477V11.1469V11.1461V11.1453V11.1445V11.1438V11.143V11.1422V11.1414V11.1406V11.1399V11.1391V11.1383V11.1375V11.1367V11.1359V11.1352V11.1344V11.1336V11.1328V11.132V11.1313V11.1305V11.1297V11.1289V11.1281V11.1273V11.1266V11.1258V11.125V11.1242V11.1234V11.1226V11.1219V11.1211V11.1203V11.1195V11.1187V11.1179V11.1172V11.1164V11.1156V11.1148V11.114V11.1132V11.1124V11.1117V11.1109V11.1101V11.1093V11.1085V11.1077V11.107V11.1062V11.1054V11.1046V11.1038V11.103V11.1022V11.1015V11.1007V11.0999V11.0991V11.0983V11.0975V11.0967V11.096V11.0952V11.0944V11.0936V11.0928V11.092V11.0912V11.0905V11.0897V11.0889V11.0881V11.0873V11.0865V11.0857V11.0849V11.0842V11.0834V11.0826V11.0818V11.081V11.0802V11.0794V11.0787V11.0779V11.0771V11.0763V11.0755V11.0747V11.0739V11.0731V11.0724V11.0716V11.0708V11.07V11.0692V11.0684V11.0676V11.0668V11.0661V11.0653V11.0645V11.0637V11.0629V11.0621V11.0613V11.0605V11.0597V11.059V11.0582V11.0574V11.0566V11.0558V11.055V11.0542V11.0534V11.0526V11.0519V11.0511V11.0503V11.0495V11.0487V11.0479V11.0471V11.0463V11.0455V11.0448V11.044V11.0432V11.0424V11.0416V11.0408V11.04V11.0392V11.0384V11.0376V11.0369V11.0361V11.0353V11.0345V11.0337V11.0329V11.0321V11.0313V11.0305V11.0297V11.029V11.0282V11.0274V11.0266V11.0258V11.025V11.0242V11.0234V11.0226V11.0218V11.021V11.0203V11.0195V11.0187V11.0179V11.0171V11.0163V11.0155V11.0147V11.0139V11.0131V11.0123V11.0116V11.0108V11.01V11.0092V11.0084V11.0076V11.0068V11.006V11.0052V11.0044V11.0036V11.0029V11.0021V11.0013V11.0005V10.9997V10.9989V10.9981V10.9973V10.9965V10.9957V10.9949V10.9941V10.9933V10.9926V10.9918V10.991V10.9902V10.9894V10.9886V10.9878V10.987V10.9862V10.9854V10.9846V10.9838V10.9831V10.9823V10.9815V10.9807V10.9799V10.9791V10.9783V10.9775V10.9767V10.9759V10.9751V10.9743V10.9735V10.9728V10.972V10.9712V10.9704V10.9696V10.9688V10.968V10.9672V10.9664V10.9656V10.9648V10.964V10.9632V10.9624V10.9617V10.9609V10.9601V10.9593V10.9585V10.9577V10.9569V10.9561V10.9553V10.9545V10.9537V10.9529V10.9521V10.9513V10.9506V10.9498V10.949V10.9482V10.9474V10.9466V10.9458V10.945V10.9442V10.9434V10.9426V10.9418V10.941V10.9402V10.9395V10.9387V10.9379V10.9371V10.9363V10.9355V10.9347V10.9339V10.9331V10.9323V10.9315V10.9307V10.9299V10.9291V10.9284V10.9276V10.9268V10.926V10.9252V10.9244V10.9236V10.9228V10.922V10.9212V10.9204V10.9196V10.9188V10.918V10.9172V10.9165V10.9157V10.9149V10.9141V10.9133V10.9125V10.9117V10.9109V10.9101V10.9093V10.9085V10.9077V10.9069V10.9061V10.9054V10.9046V10.9038V10.903V10.9022V10.9014V10.9006V10.8998V10.899V10.8982V10.8974V10.8966V10.8958V10.895V10.8942V10.8935V10.8927V10.8919V10.8911V10.8903V10.8895V10.8887V10.8879V10.8871V10.8863V10.8855V10.8847V10.8839V10.8831V10.8824V10.8816V10.8808V10.88V10.8792V10.8784V10.8776V10.8768V10.876V10.8752V10.8744V10.8736V10.8728V10.8721V10.8713V10.8705V10.8697V10.8689V10.8681V10.8673V10.8665V10.8657V10.8649V10.8641V10.8633V10.8625V10.8618V10.861V10.8602V10.8594V10.8586V10.8578V10.857V10.8562V10.8554V10.8546V10.8538V10.853V10.8522V10.8515V10.8507V10.8499V10.8491V10.8483V10.8475V10.8467V10.8459V10.8451V10.8443V10.8435V10.8427V10.842V10.8412V10.8404V10.8396V10.8388V10.838V10.8372V10.8364V10.8356V10.8348V10.834V10.8332V10.8325V10.8317V10.8309V10.8301V10.8293V10.8285V10.8277V10.8269V10.8261V10.8253V10.8245V10.8238V10.823V10.8222V10.8214V10.8206V10.8198V10.819V10.8182V10.8174V10.8166V10.8158V10.8151V10.8143V10.8135V10.8127V10.8119V10.8111V10.8103V10.8095V10.8087V10.8079V10.8072V10.8064V10.8056V10.8048V10.804V10.8032V10.8024V10.8016V10.8008V10.8V10.7993V10.7985V10.7977V10.7969V10.7961V10.7953V10.7946C15.0016 10.6886 14.9853 10.5796 14.9371 10.4833C14.8878 10.3847 14.8078 10.3048 14.7091 10.2556C14.6376 10.2172 14.5578 10.1967 14.4765 10.1959L14.4765 10.1957L14.4702 10.196C14.3329 10.2034 14.202 10.2566 14.0984 10.3469C14.0185 10.4095 13.9443 10.4653 13.866 10.5241L13.8653 10.5247C13.7866 10.5838 13.704 10.6459 13.6087 10.7202C13.5279 10.7831 13.445 10.8467 13.3617 10.9105C13.2524 10.9943 13.1427 11.0784 13.0367 11.1619L13.0366 11.1619L13.0334 11.1646C12.9586 11.2289 12.8637 11.2649 12.7651 11.2663C12.709 11.2657 12.6534 11.2558 12.6006 11.2368L12.6006 11.2367L12.5953 11.2351C12.367 11.167 12.1255 11.0902 11.9061 11.0156L11.9061 11.0156L11.9056 11.0154L11.3332 10.8239C11.2525 10.7945 11.1677 10.7784 11.0819 10.7764L11.0819 10.7763L11.0804 10.7763C11.0147 10.7757 10.9496 10.7888 10.8893 10.8149C10.829 10.8409 10.7749 10.8793 10.7303 10.9275C10.6547 11.0086 10.6059 11.1111 10.5904 11.2209C10.5752 11.3288 10.5929 11.4388 10.6412 11.5364C10.8225 12.024 10.9603 12.4242 11.0783 12.7978C11.0962 12.8658 11.0998 12.9368 11.0888 13.0063C11.0778 13.0761 11.0523 13.1427 11.014 13.202C10.8862 13.3874 10.7534 13.5666 10.6212 13.7449C10.5192 13.8826 10.4176 14.0197 10.3191 14.1586L10.2162 14.295C10.1406 14.3707 10.0908 14.4683 10.0738 14.5741C10.0566 14.6818 10.0745 14.7922 10.1249 14.8889C10.1708 14.9857 10.2454 15.0661 10.3386 15.119C10.431 15.1715 10.5371 15.1945 10.6428 15.1849H10.6602H10.9669V15.1851L10.9725 15.1848C11.2826 15.1673 11.6019 15.1673 11.9224 15.1673H12.0263C12.0965 15.1702 12.1653 15.188 12.2281 15.2194C12.291 15.2508 12.3464 15.2952 12.3909 15.3496C12.6877 15.7447 12.9651 16.1399 13.1736 16.4428C13.2176 16.5273 13.283 16.5987 13.3634 16.6498C13.4459 16.7023 13.541 16.7314 13.6386 16.7342Z" fill="#002C5E" stroke="#002C5E" stroke-width="0.2" stroke-linejoin="round"/>
    <path d="M9.36183 18.9725L9.36184 18.9722C9.29124 18.9699 9.22187 18.9532 9.15796 18.9231C9.09515 18.8935 9.03892 18.8517 8.99258 18.8C8.73466 18.5465 8.47467 18.2842 8.22396 18.0313L9.36183 18.9725ZM9.36183 18.9725L9.3696 18.9722C9.44369 18.9689 9.51651 18.9518 9.58434 18.9218L9.58439 18.9219L9.58859 18.9198C9.67517 18.8766 9.75011 18.8132 9.80714 18.735C9.86418 18.6568 9.90163 18.566 9.91636 18.4704C9.91952 18.4499 9.91623 18.429 9.90697 18.4104L9.86657 18.3296C9.82669 18.2345 9.77282 18.1459 9.70675 18.0667L9.70696 18.0665L9.70176 18.0611C9.14051 17.4822 8.55955 16.9056 7.99468 16.3473L7.93397 16.2865C7.82775 16.1752 7.6822 16.1097 7.52836 16.1042L7.52836 16.1041L7.52439 16.1041C7.45811 16.1044 7.39257 16.118 7.33168 16.1441C7.27079 16.1703 7.21581 16.2085 7.17001 16.2564L7.2423 16.3255M9.36183 18.9725L8.22388 18.0312L7.87994 17.685L7.87971 17.6848L7.65927 17.4643L7.22247 17.0275C7.16641 16.9837 7.11994 16.9288 7.08597 16.8662C7.05085 16.8015 7.02989 16.7301 7.02446 16.6567C7.01903 16.5833 7.02927 16.5096 7.05449 16.4404C7.07971 16.3713 7.11933 16.3083 7.17074 16.2556L7.2423 16.3255M7.2423 16.3255C7.2788 16.2873 7.32263 16.2569 7.37116 16.236C7.4197 16.2152 7.47194 16.2043 7.52476 16.2041L7.72998 17.3936L7.28864 16.9522C7.24133 16.9163 7.2022 16.8707 7.17385 16.8185C7.1455 16.7662 7.12857 16.7086 7.12419 16.6493C7.11981 16.59 7.12807 16.5305 7.14843 16.4747C7.1688 16.4189 7.20079 16.368 7.2423 16.3255Z" fill="#002C5E" stroke="#002C5E" stroke-width="0.2" stroke-linejoin="round"/>
</svg>
