<svg width="28" height="28" viewBox="0 0 28 28" fill="none" xmlns="http://www.w3.org/2000/svg">
    <path d="M3.50971 6.35013C3.5645 6.18182 3.67349 6.03885 3.81791 5.94584C3.96232 5.85283 4.13311 5.81561 4.30085 5.84058C6.52624 5.84058 8.75405 5.86606 10.9794 5.84058C13.506 5.83184 15.9897 6.52633 18.1774 7.85329C20.1779 8.97095 21.8704 10.6109 23.0917 12.615C24.0334 14.1502 24.5222 15.9432 24.4968 17.769C24.4968 18.141 24.4968 18.513 24.4968 18.8875C24.506 18.9821 24.4953 19.0777 24.4653 19.1675C24.4353 19.2573 24.3869 19.339 24.3234 19.4069C24.2599 19.4748 24.1829 19.5271 24.098 19.5602C24.013 19.5933 23.9221 19.6063 23.8318 19.5983H21.6914L21.6137 20.8722C21.6647 20.8722 21.7351 20.8722 21.8055 20.8722C22.4898 20.8722 23.1717 20.8722 23.8561 20.8722C23.9606 20.8666 24.0647 20.8894 24.1584 20.9384C24.2521 20.9873 24.3321 21.0608 24.3909 21.1516C24.4497 21.2425 24.4852 21.3478 24.4939 21.4572C24.5027 21.5667 24.4845 21.6767 24.441 21.7766C24.4031 21.8733 24.3417 21.9579 24.2629 22.0219C24.1841 22.0858 24.0907 22.1269 23.992 22.1409C23.8971 22.1545 23.8014 22.1604 23.7056 22.1588C17.2341 22.1588 10.7626 22.1588 4.29114 22.1588C4.1234 22.1837 3.95261 22.1465 3.8082 22.0535C3.66379 21.9605 3.5548 21.8175 3.5 21.6492V21.3817C3.64076 21.0046 3.91256 20.8722 4.29114 20.8722C7.97019 20.8722 11.6509 20.8722 15.3331 20.8722H15.5758L15.4982 19.5983H15.2409C11.5942 19.5983 7.94754 19.5983 4.30085 19.5983C4.13311 19.6233 3.96232 19.5861 3.81791 19.493C3.67349 19.4 3.5645 19.2571 3.50971 19.0888V6.35013ZM23.0456 15.7385H22.8174C21.1623 15.7385 19.5097 15.7385 17.857 15.7385C16.6515 15.7386 15.4931 15.2471 14.6261 14.3678C13.759 13.4885 13.2512 12.29 13.2097 11.0252C13.1878 10.4494 13.4111 10.2048 13.9596 10.2048H19.284L19.2986 10.136C18.8933 9.8507 18.4953 9.54498 18.0851 9.28001C16.1024 8.00615 13.9596 7.21126 11.6347 7.16285C9.37046 7.11444 7.10624 7.15521 4.84688 7.15521C4.81423 7.15801 4.7818 7.16311 4.74981 7.17049V10.2099H10.7004C11.2391 10.2099 11.4599 10.4392 11.4599 10.9997V18.2811H23.2591C23.3131 17.4288 23.2411 16.5728 23.0456 15.7436V15.7385ZM14.4983 11.4991C14.4983 11.5653 14.5105 11.601 14.5177 11.6367C14.6883 12.4311 15.1109 13.1412 15.7163 13.6504C16.3217 14.1596 17.074 14.4377 17.8497 14.4392C19.3738 14.4392 20.8954 14.4392 22.417 14.4392C22.4777 14.4392 22.5359 14.4392 22.5942 14.4392C22.5942 14.4162 22.5942 14.3984 22.5942 14.3882C22.565 14.3169 22.5359 14.243 22.5044 14.1716C22.0725 13.2436 21.5078 12.3904 20.8299 11.6418C20.7494 11.5615 20.6446 11.5137 20.5338 11.5067C18.5924 11.5067 16.6509 11.5067 14.7095 11.5067L14.4983 11.4991ZM7.98475 11.4991V18.2837H10.2126V11.5118L7.98475 11.4991ZM4.75952 14.2481H6.72523V11.5144H4.75952V14.2481ZM6.72523 18.2913C6.73388 18.2639 6.74037 18.2358 6.74465 18.2072C6.74465 17.3741 6.74465 16.5436 6.74465 15.713C6.74465 15.5678 6.67913 15.5525 6.56749 15.5525H4.75952V18.2837L6.72523 18.2913ZM17.9784 19.5983H16.7504C16.7504 19.8301 16.7504 20.0467 16.7504 20.2607C16.7691 20.4158 16.8411 20.5583 16.9528 20.6617C17.0645 20.765 17.2082 20.822 17.3571 20.822C17.506 20.822 17.6497 20.765 17.7614 20.6617C17.8731 20.5583 17.9451 20.4158 17.9638 20.2607C17.9881 20.0518 17.9784 19.8352 17.9784 19.5983ZM19.2112 19.5983C19.2112 19.8352 19.2112 20.0569 19.2112 20.2785C19.225 20.4346 19.2926 20.5799 19.4014 20.6872C19.5102 20.7945 19.6526 20.8563 19.8018 20.861C19.951 20.8657 20.0967 20.813 20.2114 20.7127C20.3261 20.6125 20.4019 20.4716 20.4246 20.3168C20.4464 20.0824 20.4246 19.8454 20.4246 19.5983H19.2112Z" fill="white"/>
</svg>
