<svg width="25" height="25" viewBox="0 0 25 25" fill="none" xmlns="http://www.w3.org/2000/svg">
    <path d="M12.5 0C5.5971 0 0 5.5971 0 12.5C0 19.4029 5.5971 25 12.5 25C19.4029 25 25 19.4029 25 12.5C25 5.5971 19.4029 0 12.5 0ZM11.6071 6.47321C11.6071 6.35045 11.7076 6.25 11.8304 6.25H13.1696C13.2924 6.25 13.3929 6.35045 13.3929 6.47321V14.0625C13.3929 14.1853 13.2924 14.2857 13.1696 14.2857H11.8304C11.7076 14.2857 11.6071 14.1853 11.6071 14.0625V6.47321ZM12.5 18.75C12.1495 18.7428 11.8158 18.5986 11.5705 18.3482C11.3252 18.0978 11.1878 17.7613 11.1878 17.4107C11.1878 17.0602 11.3252 16.7236 11.5705 16.4732C11.8158 16.2228 12.1495 16.0786 12.5 16.0714C12.8505 16.0786 13.1842 16.2228 13.4295 16.4732C13.6748 16.7236 13.8122 17.0602 13.8122 17.4107C13.8122 17.7613 13.6748 18.0978 13.4295 18.3482C13.1842 18.5986 12.8505 18.7428 12.5 18.75Z" fill="#002C5E" fill-opacity="0.5"/>
</svg>
